<?xml version="1.0" encoding="us-ascii" standalone="no"?><svg xmlns="http://www.w3.org/2000/svg" xmlns:xlink="http://www.w3.org/1999/xlink" contentStyleType="text/css" height="1119px" preserveAspectRatio="none" style="width:1079px;height:1119px;background:#FFFFFF;" version="1.1" viewBox="0 0 1079 1119" width="1079px" zoomAndPan="magnify"><defs/><g><!--class Deck--><g id="elem_Deck"><rect codeLine="5" fill="#FFFFFF" height="96.8906" id="Deck" rx="2.5" ry="2.5" style="stroke:#181818;stroke-width:0.5;" width="171" x="81.6951" y="302.5"/><ellipse cx="144.4451" cy="318.5" fill="#ADD1B2" rx="11" ry="11" style="stroke:#181818;stroke-width:1.0;"/><path d="M146.7889,314.1719 C145.8514,313.7344 145.2576,313.5938 144.3826,313.5938 C141.7576,313.5938 139.7576,315.6719 139.7576,318.3906 L139.7576,319.5156 C139.7576,322.0938 141.867,323.9844 144.7576,323.9844 C145.9764,323.9844 147.1326,323.6875 147.8826,323.1406 C148.4607,322.7344 148.7889,322.2813 148.7889,321.8906 C148.7889,321.4375 148.3982,321.0469 147.9295,321.0469 C147.7107,321.0469 147.5076,321.125 147.3201,321.3125 C146.867,321.7969 146.867,321.7969 146.6795,321.8906 C146.2576,322.1563 145.5701,322.2813 144.8045,322.2813 C142.7576,322.2813 141.4607,321.1875 141.4607,319.4844 L141.4607,318.3906 C141.4607,316.6094 142.7107,315.2969 144.4451,315.2969 C145.0232,315.2969 145.6326,315.4531 146.1014,315.7031 C146.5857,315.9844 146.7576,316.2031 146.8514,316.6094 C146.9139,317.0156 146.9451,317.1406 147.0857,317.2656 C147.2264,317.4063 147.4607,317.5156 147.6795,317.5156 C147.9451,317.5156 148.2107,317.375 148.3826,317.1563 C148.492,317 148.5232,316.8125 148.5232,316.3906 L148.5232,314.9688 C148.5232,314.5313 148.5076,314.4063 148.4139,314.25 C148.2576,313.9844 147.9764,313.8438 147.6795,313.8438 C147.3826,313.8438 147.1795,313.9375 146.9607,314.25 L146.7889,314.1719 Z " fill="#000000"/><text fill="#000000" font-family="sans-serif" font-size="14" lengthAdjust="spacing" textLength="37" x="164.9451" y="323.3467">Deck</text><line style="stroke:#181818;stroke-width:0.5;" x1="82.6951" x2="251.6951" y1="334.5" y2="334.5"/><text fill="#000000" font-family="sans-serif" font-size="14" lengthAdjust="spacing" textLength="159" x="87.6951" y="351.4951">#cardList: List&lt;Card&gt;</text><line style="stroke:#181818;stroke-width:0.5;" x1="82.6951" x2="251.6951" y1="358.7969" y2="358.7969"/><text fill="#000000" font-family="sans-serif" font-size="14" lengthAdjust="spacing" textLength="58" x="87.6951" y="375.792">+Deck()</text><text fill="#000000" font-family="sans-serif" font-size="14" lengthAdjust="spacing" textLength="121" x="87.6951" y="392.0889">+getCard(): Card</text></g><!--class Card--><g id="elem_Card"><rect codeLine="11" fill="#FFFFFF" height="162.0781" id="Card" rx="2.5" ry="2.5" style="stroke:#181818;stroke-width:0.5;" width="230" x="73.1951" y="533"/><ellipse cx="167.4451" cy="549" fill="#ADD1B2" rx="11" ry="11" style="stroke:#181818;stroke-width:1.0;"/><path d="M169.7889,544.6719 C168.8514,544.2344 168.2576,544.0938 167.3826,544.0938 C164.7576,544.0938 162.7576,546.1719 162.7576,548.8906 L162.7576,550.0156 C162.7576,552.5938 164.867,554.4844 167.7576,554.4844 C168.9764,554.4844 170.1326,554.1875 170.8826,553.6406 C171.4607,553.2344 171.7889,552.7813 171.7889,552.3906 C171.7889,551.9375 171.3982,551.5469 170.9295,551.5469 C170.7107,551.5469 170.5076,551.625 170.3201,551.8125 C169.867,552.2969 169.867,552.2969 169.6795,552.3906 C169.2576,552.6563 168.5701,552.7813 167.8045,552.7813 C165.7576,552.7813 164.4607,551.6875 164.4607,549.9844 L164.4607,548.8906 C164.4607,547.1094 165.7107,545.7969 167.4451,545.7969 C168.0232,545.7969 168.6326,545.9531 169.1014,546.2031 C169.5857,546.4844 169.7576,546.7031 169.8514,547.1094 C169.9139,547.5156 169.9451,547.6406 170.0857,547.7656 C170.2264,547.9063 170.4607,548.0156 170.6795,548.0156 C170.9451,548.0156 171.2107,547.875 171.3826,547.6563 C171.492,547.5 171.5232,547.3125 171.5232,546.8906 L171.5232,545.4688 C171.5232,545.0313 171.5076,544.9063 171.4139,544.75 C171.2576,544.4844 170.9764,544.3438 170.6795,544.3438 C170.3826,544.3438 170.1795,544.4375 169.9607,544.75 L169.7889,544.6719 Z " fill="#000000"/><text fill="#000000" font-family="sans-serif" font-size="14" lengthAdjust="spacing" textLength="33" x="187.9451" y="553.8467">Card</text><line style="stroke:#181818;stroke-width:0.5;" x1="74.1951" x2="302.1951" y1="565" y2="565"/><text fill="#000000" font-family="sans-serif" font-size="14" lengthAdjust="spacing" textLength="87" x="79.1951" y="581.9951">-suite: Suite</text><text fill="#000000" font-family="sans-serif" font-size="14" lengthAdjust="spacing" textLength="91" x="79.1951" y="598.292">-value: Value</text><line style="stroke:#181818;stroke-width:0.5;" x1="74.1951" x2="302.1951" y1="605.5938" y2="605.5938"/><text fill="#000000" font-family="sans-serif" font-size="14" lengthAdjust="spacing" textLength="218" x="79.1951" y="622.5889">+Card(Suite suite, Value value)</text><text fill="#000000" font-family="sans-serif" font-size="14" lengthAdjust="spacing" textLength="210" x="79.1951" y="638.8857">+greater(Card card): boolean</text><text fill="#000000" font-family="sans-serif" font-size="14" lengthAdjust="spacing" textLength="133" x="79.1951" y="655.1826">+getValue(): Value</text><text fill="#000000" font-family="sans-serif" font-size="14" lengthAdjust="spacing" textLength="129" x="79.1951" y="671.4795">+getSuite(): Suite</text><text fill="#000000" font-family="sans-serif" font-size="14" lengthAdjust="spacing" textLength="134" x="79.1951" y="687.7764">+toString(): String</text></g><!--class GambleType--><g id="elem_GambleType"><rect codeLine="21" fill="#FFFFFF" height="243.5625" id="GambleType" rx="2.5" ry="2.5" style="stroke:#181818;stroke-width:0.5;" width="340" x="732.1955" y="229"/><ellipse cx="851.9455" cy="245" fill="#EB937F" rx="11" ry="11" style="stroke:#181818;stroke-width:1.0;"/><path d="M850.7424,245.875 L852.1955,245.875 L852.1955,245.9844 C852.1955,246.3906 852.2268,246.5469 852.3049,246.7031 C852.4611,246.9531 852.7424,247.1094 853.0393,247.1094 C853.2893,247.1094 853.5549,246.9688 853.7111,246.75 C853.8361,246.5938 853.8674,246.4375 853.8674,245.9844 L853.8674,244.0625 C853.8674,243.9063 853.8674,243.8594 853.8518,243.7031 C853.7893,243.2344 853.4768,242.9219 853.0236,242.9219 C852.7736,242.9219 852.508,243.0625 852.3361,243.2813 C852.2268,243.4531 852.1955,243.6094 852.1955,244.0625 L852.1955,244.1875 L850.7424,244.1875 L850.7424,241.7813 L854.7268,241.7813 L854.7268,242.6406 C854.7268,243.0469 854.758,243.2188 854.8361,243.375 C855.008,243.625 855.2893,243.7813 855.5705,243.7813 C855.8361,243.7813 856.1018,243.6406 856.2736,243.4219 C856.383,243.25 856.4143,243.1094 856.4143,242.6406 L856.4143,240.0938 L848.7893,240.0938 C848.3518,240.0938 848.2268,240.1094 848.0705,240.2031 C847.8205,240.3594 847.6643,240.6563 847.6643,240.9375 C847.6643,241.2188 847.8049,241.4688 848.0236,241.6406 C848.1799,241.75 848.3674,241.7813 848.7893,241.7813 L849.0393,241.7813 L849.0393,248.2969 L848.7893,248.2969 C848.383,248.2969 848.2268,248.3125 848.0705,248.4219 C847.8205,248.5938 847.6643,248.8594 847.6643,249.1563 C847.6643,249.4219 847.8049,249.6719 848.0236,249.8281 C848.1643,249.9531 848.3986,250 848.7893,250 L856.7893,250 L856.7893,247.4219 C856.7893,246.9844 856.758,246.8438 856.6799,246.6875 C856.508,246.4375 856.2268,246.2813 855.9455,246.2813 C855.6799,246.2813 855.4143,246.3906 855.2424,246.6406 C855.133,246.7969 855.1018,246.9375 855.1018,247.4219 L855.1018,248.2969 L850.7424,248.2969 L850.7424,245.875 Z " fill="#000000"/><text fill="#000000" font-family="sans-serif" font-size="14" lengthAdjust="spacing" textLength="92" x="872.4455" y="249.8467">GambleType</text><line style="stroke:#181818;stroke-width:0.5;" x1="733.1955" x2="1071.1955" y1="261" y2="261"/><text fill="#000000" font-family="sans-serif" font-size="14" lengthAdjust="spacing" textLength="93" x="738.1955" y="277.9951">CARTA_ALTA</text><text fill="#000000" font-family="sans-serif" font-size="14" lengthAdjust="spacing" textLength="52" x="738.1955" y="294.292">PAREJA</text><text fill="#000000" font-family="sans-serif" font-size="14" lengthAdjust="spacing" textLength="108" x="738.1955" y="310.5889">DOBLE_PAREJA</text><text fill="#000000" font-family="sans-serif" font-size="14" lengthAdjust="spacing" textLength="34" x="738.1955" y="326.8857">TRIO</text><text fill="#000000" font-family="sans-serif" font-size="14" lengthAdjust="spacing" textLength="75" x="738.1955" y="343.1826">ESCALERA</text><text fill="#000000" font-family="sans-serif" font-size="14" lengthAdjust="spacing" textLength="50" x="738.1955" y="359.4795">COLOR</text><text fill="#000000" font-family="sans-serif" font-size="14" lengthAdjust="spacing" textLength="33" x="738.1955" y="375.7764">FULL</text><text fill="#000000" font-family="sans-serif" font-size="14" lengthAdjust="spacing" textLength="59" x="738.1955" y="392.0732">POQUER</text><text fill="#000000" font-family="sans-serif" font-size="14" lengthAdjust="spacing" textLength="132" x="738.1955" y="408.3701">ESCALERA_COLOR</text><text fill="#000000" font-family="sans-serif" font-size="14" lengthAdjust="spacing" textLength="119" x="738.1955" y="424.667">ESCALERA_REAL</text><line style="stroke:#181818;stroke-width:0.5;" x1="733.1955" x2="1071.1955" y1="431.9688" y2="431.9688"/><text fill="#000000" font-family="sans-serif" font-size="14" lengthAdjust="spacing" textLength="319" x="738.1955" y="448.9639">+equals(GambleType gambleType): boolean</text><text fill="#000000" font-family="sans-serif" font-size="14" lengthAdjust="spacing" textLength="328" x="738.1955" y="465.2607">+greater(GambleType gambleType): boolean</text></g><!--class Player--><g id="elem_Player"><rect codeLine="36" fill="#FFFFFF" height="162.0781" id="Player" rx="2.5" ry="2.5" style="stroke:#181818;stroke-width:0.5;" width="270" x="228.1955" y="7"/><ellipse cx="336.9455" cy="23" fill="#ADD1B2" rx="11" ry="11" style="stroke:#181818;stroke-width:1.0;"/><path d="M339.2893,18.6719 C338.3518,18.2344 337.758,18.0938 336.883,18.0938 C334.258,18.0938 332.258,20.1719 332.258,22.8906 L332.258,24.0156 C332.258,26.5938 334.3674,28.4844 337.258,28.4844 C338.4768,28.4844 339.633,28.1875 340.383,27.6406 C340.9611,27.2344 341.2893,26.7813 341.2893,26.3906 C341.2893,25.9375 340.8986,25.5469 340.4299,25.5469 C340.2111,25.5469 340.008,25.625 339.8205,25.8125 C339.3674,26.2969 339.3674,26.2969 339.1799,26.3906 C338.758,26.6563 338.0705,26.7813 337.3049,26.7813 C335.258,26.7813 333.9611,25.6875 333.9611,23.9844 L333.9611,22.8906 C333.9611,21.1094 335.2111,19.7969 336.9455,19.7969 C337.5236,19.7969 338.133,19.9531 338.6018,20.2031 C339.0861,20.4844 339.258,20.7031 339.3518,21.1094 C339.4143,21.5156 339.4455,21.6406 339.5861,21.7656 C339.7268,21.9063 339.9611,22.0156 340.1799,22.0156 C340.4455,22.0156 340.7111,21.875 340.883,21.6563 C340.9924,21.5 341.0236,21.3125 341.0236,20.8906 L341.0236,19.4688 C341.0236,19.0313 341.008,18.9063 340.9143,18.75 C340.758,18.4844 340.4768,18.3438 340.1799,18.3438 C339.883,18.3438 339.6799,18.4375 339.4611,18.75 L339.2893,18.6719 Z " fill="#000000"/><text fill="#000000" font-family="sans-serif" font-size="14" lengthAdjust="spacing" textLength="44" x="357.4455" y="27.8467">Player</text><line style="stroke:#181818;stroke-width:0.5;" x1="229.1955" x2="497.1955" y1="39" y2="39"/><text fill="#000000" font-family="sans-serif" font-size="14" lengthAdjust="spacing" textLength="153" x="234.1955" y="55.9951">-cardList: List&lt;Card&gt;</text><text fill="#000000" font-family="sans-serif" font-size="14" lengthAdjust="spacing" textLength="125" x="234.1955" y="72.292">-gamble: Gamble</text><line style="stroke:#181818;stroke-width:0.5;" x1="229.1955" x2="497.1955" y1="79.5938" y2="79.5938"/><text fill="#000000" font-family="sans-serif" font-size="14" lengthAdjust="spacing" textLength="65" x="234.1955" y="96.5889">+Player()</text><text fill="#000000" font-family="sans-serif" font-size="14" lengthAdjust="spacing" textLength="115" x="234.1955" y="112.8857">+add(Card card)</text><text fill="#000000" font-family="sans-serif" font-size="14" lengthAdjust="spacing" textLength="258" x="234.1955" y="129.1826">+whoIsWinner(Player player): Player</text><text fill="#000000" font-family="sans-serif" font-size="14" lengthAdjust="spacing" textLength="134" x="234.1955" y="145.4795">+toString(): String</text><text fill="#000000" font-family="sans-serif" font-size="14" lengthAdjust="spacing" textLength="162" x="234.1955" y="161.7764">-getGamble(): Gamble</text></g><!--class Suite--><g id="elem_Suite"><rect codeLine="46" fill="#FFFFFF" height="194.6719" id="Suite" rx="2.5" ry="2.5" style="stroke:#181818;stroke-width:0.5;" width="191" x="92.6951" y="836.5"/><ellipse cx="165.4451" cy="852.5" fill="#EB937F" rx="11" ry="11" style="stroke:#181818;stroke-width:1.0;"/><path d="M164.242,853.375 L165.6951,853.375 L165.6951,853.4844 C165.6951,853.8906 165.7264,854.0469 165.8045,854.2031 C165.9607,854.4531 166.242,854.6094 166.5389,854.6094 C166.7889,854.6094 167.0545,854.4688 167.2107,854.25 C167.3357,854.0938 167.367,853.9375 167.367,853.4844 L167.367,851.5625 C167.367,851.4063 167.367,851.3594 167.3514,851.2031 C167.2889,850.7344 166.9764,850.4219 166.5232,850.4219 C166.2732,850.4219 166.0076,850.5625 165.8357,850.7813 C165.7264,850.9531 165.6951,851.1094 165.6951,851.5625 L165.6951,851.6875 L164.242,851.6875 L164.242,849.2813 L168.2264,849.2813 L168.2264,850.1406 C168.2264,850.5469 168.2576,850.7188 168.3357,850.875 C168.5076,851.125 168.7889,851.2813 169.0701,851.2813 C169.3357,851.2813 169.6014,851.1406 169.7732,850.9219 C169.8826,850.75 169.9139,850.6094 169.9139,850.1406 L169.9139,847.5938 L162.2889,847.5938 C161.8514,847.5938 161.7264,847.6094 161.5701,847.7031 C161.3201,847.8594 161.1639,848.1563 161.1639,848.4375 C161.1639,848.7188 161.3045,848.9688 161.5232,849.1406 C161.6795,849.25 161.867,849.2813 162.2889,849.2813 L162.5389,849.2813 L162.5389,855.7969 L162.2889,855.7969 C161.8826,855.7969 161.7264,855.8125 161.5701,855.9219 C161.3201,856.0938 161.1639,856.3594 161.1639,856.6563 C161.1639,856.9219 161.3045,857.1719 161.5232,857.3281 C161.6639,857.4531 161.8982,857.5 162.2889,857.5 L170.2889,857.5 L170.2889,854.9219 C170.2889,854.4844 170.2576,854.3438 170.1795,854.1875 C170.0076,853.9375 169.7264,853.7813 169.4451,853.7813 C169.1795,853.7813 168.9139,853.8906 168.742,854.1406 C168.6326,854.2969 168.6014,854.4375 168.6014,854.9219 L168.6014,855.7969 L164.242,855.7969 L164.242,853.375 Z " fill="#000000"/><text fill="#000000" font-family="sans-serif" font-size="14" lengthAdjust="spacing" textLength="37" x="185.9451" y="857.3467">Suite</text><line style="stroke:#181818;stroke-width:0.5;" x1="93.6951" x2="282.6951" y1="868.5" y2="868.5"/><text fill="#000000" font-family="sans-serif" font-size="14" lengthAdjust="spacing" textLength="90" x="98.6951" y="885.4951">CORAZONES</text><text fill="#000000" font-family="sans-serif" font-size="14" lengthAdjust="spacing" textLength="84" x="98.6951" y="901.792">DIAMANTES</text><text fill="#000000" font-family="sans-serif" font-size="14" lengthAdjust="spacing" textLength="42" x="98.6951" y="918.0889">PICAS</text><text fill="#000000" font-family="sans-serif" font-size="14" lengthAdjust="spacing" textLength="75" x="98.6951" y="934.3857">TREBOLES</text><text fill="#000000" font-family="sans-serif" font-size="14" lengthAdjust="spacing" textLength="90" x="98.6951" y="950.6826">-title: String</text><line style="stroke:#181818;stroke-width:0.5;" x1="93.6951" x2="282.6951" y1="957.9844" y2="957.9844"/><text fill="#000000" font-family="sans-serif" font-size="14" lengthAdjust="spacing" textLength="132" x="98.6951" y="974.9795">-Suite(String title)</text><text fill="#000000" font-family="sans-serif" font-size="14" lengthAdjust="spacing" textLength="95" x="98.6951" y="991.2764">-next(): Suite</text><text fill="#000000" font-family="sans-serif" font-size="14" lengthAdjust="spacing" textLength="132" x="98.6951" y="1007.5732">+getTitle(): String</text><text fill="#000000" font-family="sans-serif" font-size="14" lengthAdjust="spacing" textLength="179" x="98.6951" y="1023.8701">+next(int amount): Suite</text></g><!--class Value--><g id="elem_Value"><rect codeLine="58" fill="#FFFFFF" height="357.6406" id="Value" rx="2.5" ry="2.5" style="stroke:#181818;stroke-width:0.5;" width="234" x="340.1955" y="755"/><ellipse cx="433.4455" cy="771" fill="#EB937F" rx="11" ry="11" style="stroke:#181818;stroke-width:1.0;"/><path d="M432.2424,771.875 L433.6955,771.875 L433.6955,771.9844 C433.6955,772.3906 433.7268,772.5469 433.8049,772.7031 C433.9611,772.9531 434.2424,773.1094 434.5393,773.1094 C434.7893,773.1094 435.0549,772.9688 435.2111,772.75 C435.3361,772.5938 435.3674,772.4375 435.3674,771.9844 L435.3674,770.0625 C435.3674,769.9063 435.3674,769.8594 435.3518,769.7031 C435.2893,769.2344 434.9768,768.9219 434.5236,768.9219 C434.2736,768.9219 434.008,769.0625 433.8361,769.2813 C433.7268,769.4531 433.6955,769.6094 433.6955,770.0625 L433.6955,770.1875 L432.2424,770.1875 L432.2424,767.7813 L436.2268,767.7813 L436.2268,768.6406 C436.2268,769.0469 436.258,769.2188 436.3361,769.375 C436.508,769.625 436.7893,769.7813 437.0705,769.7813 C437.3361,769.7813 437.6018,769.6406 437.7736,769.4219 C437.883,769.25 437.9143,769.1094 437.9143,768.6406 L437.9143,766.0938 L430.2893,766.0938 C429.8518,766.0938 429.7268,766.1094 429.5705,766.2031 C429.3205,766.3594 429.1643,766.6563 429.1643,766.9375 C429.1643,767.2188 429.3049,767.4688 429.5236,767.6406 C429.6799,767.75 429.8674,767.7813 430.2893,767.7813 L430.5393,767.7813 L430.5393,774.2969 L430.2893,774.2969 C429.883,774.2969 429.7268,774.3125 429.5705,774.4219 C429.3205,774.5938 429.1643,774.8594 429.1643,775.1563 C429.1643,775.4219 429.3049,775.6719 429.5236,775.8281 C429.6643,775.9531 429.8986,776 430.2893,776 L438.2893,776 L438.2893,773.4219 C438.2893,772.9844 438.258,772.8438 438.1799,772.6875 C438.008,772.4375 437.7268,772.2813 437.4455,772.2813 C437.1799,772.2813 436.9143,772.3906 436.7424,772.6406 C436.633,772.7969 436.6018,772.9375 436.6018,773.4219 L436.6018,774.2969 L432.2424,774.2969 L432.2424,771.875 Z " fill="#000000"/><text fill="#000000" font-family="sans-serif" font-size="14" lengthAdjust="spacing" textLength="39" x="453.9455" y="775.8467">Value</text><line style="stroke:#181818;stroke-width:0.5;" x1="341.1955" x2="573.1955" y1="787" y2="787"/><text fill="#000000" font-family="sans-serif" font-size="14" lengthAdjust="spacing" textLength="31" x="346.1955" y="803.9951">DOS</text><text fill="#000000" font-family="sans-serif" font-size="14" lengthAdjust="spacing" textLength="37" x="346.1955" y="820.292">TRES</text><text fill="#000000" font-family="sans-serif" font-size="14" lengthAdjust="spacing" textLength="59" x="346.1955" y="836.5889">CUATRO</text><text fill="#000000" font-family="sans-serif" font-size="14" lengthAdjust="spacing" textLength="45" x="346.1955" y="852.8857">CINCO</text><text fill="#000000" font-family="sans-serif" font-size="14" lengthAdjust="spacing" textLength="31" x="346.1955" y="869.1826">SEIS</text><text fill="#000000" font-family="sans-serif" font-size="14" lengthAdjust="spacing" textLength="40" x="346.1955" y="885.4795">SIETE</text><text fill="#000000" font-family="sans-serif" font-size="14" lengthAdjust="spacing" textLength="42" x="346.1955" y="901.7764">OCHO</text><text fill="#000000" font-family="sans-serif" font-size="14" lengthAdjust="spacing" textLength="47" x="346.1955" y="918.0732">NUEVE</text><text fill="#000000" font-family="sans-serif" font-size="14" lengthAdjust="spacing" textLength="34" x="346.1955" y="934.3701">DIEZ</text><text fill="#000000" font-family="sans-serif" font-size="14" lengthAdjust="spacing" textLength="60" x="346.1955" y="950.667">INFANTE</text><text fill="#000000" font-family="sans-serif" font-size="14" lengthAdjust="spacing" textLength="43" x="346.1955" y="966.9639">REINA</text><text fill="#000000" font-family="sans-serif" font-size="14" lengthAdjust="spacing" textLength="28" x="346.1955" y="983.2607">REY</text><text fill="#000000" font-family="sans-serif" font-size="14" lengthAdjust="spacing" textLength="19" x="346.1955" y="999.5576">AS</text><text fill="#000000" font-family="sans-serif" font-size="14" lengthAdjust="spacing" textLength="90" x="346.1955" y="1015.8545">-title: String</text><line style="stroke:#181818;stroke-width:0.5;" x1="341.1955" x2="573.1955" y1="1023.1563" y2="1023.1563"/><text fill="#000000" font-family="sans-serif" font-size="14" lengthAdjust="spacing" textLength="134" x="346.1955" y="1040.1514">-Value(String title)</text><text fill="#000000" font-family="sans-serif" font-size="14" lengthAdjust="spacing" textLength="132" x="346.1955" y="1056.4482">+getTitle(): String</text><text fill="#000000" font-family="sans-serif" font-size="14" lengthAdjust="spacing" textLength="222" x="346.1955" y="1072.7451">+greater(Value value): boolean</text><text fill="#000000" font-family="sans-serif" font-size="14" lengthAdjust="spacing" textLength="181" x="346.1955" y="1089.042">+next(int amount): Value</text><text fill="#000000" font-family="sans-serif" font-size="14" lengthAdjust="spacing" textLength="97" x="346.1955" y="1105.3389">-next(): Value</text></g><!--class Gamble--><g id="elem_Gamble"><rect codeLine="80" fill="#FFFFFF" height="145.7813" id="Gamble" rx="2.5" ry="2.5" style="stroke:#181818;stroke-width:0.5;" width="477" x="533.6955" y="15"/><ellipse cx="739.9455" cy="31" fill="#ADD1B2" rx="11" ry="11" style="stroke:#181818;stroke-width:1.0;"/><path d="M742.2893,26.6719 C741.3518,26.2344 740.758,26.0938 739.883,26.0938 C737.258,26.0938 735.258,28.1719 735.258,30.8906 L735.258,32.0156 C735.258,34.5938 737.3674,36.4844 740.258,36.4844 C741.4768,36.4844 742.633,36.1875 743.383,35.6406 C743.9611,35.2344 744.2893,34.7813 744.2893,34.3906 C744.2893,33.9375 743.8986,33.5469 743.4299,33.5469 C743.2111,33.5469 743.008,33.625 742.8205,33.8125 C742.3674,34.2969 742.3674,34.2969 742.1799,34.3906 C741.758,34.6563 741.0705,34.7813 740.3049,34.7813 C738.258,34.7813 736.9611,33.6875 736.9611,31.9844 L736.9611,30.8906 C736.9611,29.1094 738.2111,27.7969 739.9455,27.7969 C740.5236,27.7969 741.133,27.9531 741.6018,28.2031 C742.0861,28.4844 742.258,28.7031 742.3518,29.1094 C742.4143,29.5156 742.4455,29.6406 742.5861,29.7656 C742.7268,29.9063 742.9611,30.0156 743.1799,30.0156 C743.4455,30.0156 743.7111,29.875 743.883,29.6563 C743.9924,29.5 744.0236,29.3125 744.0236,28.8906 L744.0236,27.4688 C744.0236,27.0313 744.008,26.9063 743.9143,26.75 C743.758,26.4844 743.4768,26.3438 743.1799,26.3438 C742.883,26.3438 742.6799,26.4375 742.4611,26.75 L742.2893,26.6719 Z " fill="#000000"/><text fill="#000000" font-family="sans-serif" font-size="14" lengthAdjust="spacing" textLength="56" x="760.4455" y="35.8467">Gamble</text><line style="stroke:#181818;stroke-width:0.5;" x1="534.6955" x2="1009.6955" y1="47" y2="47"/><text fill="#000000" font-family="sans-serif" font-size="14" lengthAdjust="spacing" textLength="203" x="539.6955" y="63.9951">#gambleType: GambleType</text><text fill="#000000" font-family="sans-serif" font-size="14" lengthAdjust="spacing" textLength="205" x="539.6955" y="80.292">-orderedValues: List&lt;Value&gt;</text><line style="stroke:#181818;stroke-width:0.5;" x1="534.6955" x2="1009.6955" y1="87.5938" y2="87.5938"/><text fill="#000000" font-family="sans-serif" font-size="14" lengthAdjust="spacing" textLength="465" x="539.6955" y="104.5889">+Gamble(GambleType gambleType, List&lt;Value&gt; orderedValues)</text><text fill="#000000" font-family="sans-serif" font-size="14" lengthAdjust="spacing" textLength="291" x="539.6955" y="120.8857">+whoIsWinner(Gamble gamble): Gamble</text><text fill="#000000" font-family="sans-serif" font-size="14" lengthAdjust="spacing" textLength="452" x="539.6955" y="137.1826">-whoIsWinnerWithSameGambleType(Gamble gamble): Gamble</text><text fill="#000000" font-family="sans-serif" font-size="14" lengthAdjust="spacing" textLength="134" x="539.6955" y="153.4795">+toString(): String</text></g><!--class PlayerStatistics--><g id="elem_PlayerStatistics"><rect codeLine="89" fill="#FFFFFF" height="227.2656" id="PlayerStatistics" rx="2.5" ry="2.5" style="stroke:#181818;stroke-width:0.5;" width="338" x="288.1955" y="237.5"/><ellipse cx="396.9455" cy="253.5" fill="#ADD1B2" rx="11" ry="11" style="stroke:#181818;stroke-width:1.0;"/><path d="M399.2893,249.1719 C398.3518,248.7344 397.758,248.5938 396.883,248.5938 C394.258,248.5938 392.258,250.6719 392.258,253.3906 L392.258,254.5156 C392.258,257.0938 394.3674,258.9844 397.258,258.9844 C398.4768,258.9844 399.633,258.6875 400.383,258.1406 C400.9611,257.7344 401.2893,257.2813 401.2893,256.8906 C401.2893,256.4375 400.8986,256.0469 400.4299,256.0469 C400.2111,256.0469 400.008,256.125 399.8205,256.3125 C399.3674,256.7969 399.3674,256.7969 399.1799,256.8906 C398.758,257.1563 398.0705,257.2813 397.3049,257.2813 C395.258,257.2813 393.9611,256.1875 393.9611,254.4844 L393.9611,253.3906 C393.9611,251.6094 395.2111,250.2969 396.9455,250.2969 C397.5236,250.2969 398.133,250.4531 398.6018,250.7031 C399.0861,250.9844 399.258,251.2031 399.3518,251.6094 C399.4143,252.0156 399.4455,252.1406 399.5861,252.2656 C399.7268,252.4063 399.9611,252.5156 400.1799,252.5156 C400.4455,252.5156 400.7111,252.375 400.883,252.1563 C400.9924,252 401.0236,251.8125 401.0236,251.3906 L401.0236,249.9688 C401.0236,249.5313 401.008,249.4063 400.9143,249.25 C400.758,248.9844 400.4768,248.8438 400.1799,248.8438 C399.883,248.8438 399.6799,248.9375 399.4611,249.25 L399.2893,249.1719 Z " fill="#000000"/><text fill="#000000" font-family="sans-serif" font-size="14" lengthAdjust="spacing" textLength="112" x="417.4455" y="258.3467">PlayerStatistics</text><line style="stroke:#181818;stroke-width:0.5;" x1="289.1955" x2="625.1955" y1="269.5" y2="269.5"/><text fill="#000000" font-family="sans-serif" font-size="14" lengthAdjust="spacing" textLength="124" x="294.1955" y="286.4951">-valuesCont: int[]</text><text fill="#000000" font-family="sans-serif" font-size="14" lengthAdjust="spacing" textLength="122" x="294.1955" y="302.792">-suitesCont: int[]</text><line style="stroke:#181818;stroke-width:0.5;" x1="289.1955" x2="625.1955" y1="310.0938" y2="310.0938"/><text fill="#000000" font-family="sans-serif" font-size="14" lengthAdjust="spacing" textLength="275" x="294.1955" y="327.0889">+PlayerStatistics(List&lt;Card&gt; cardList)</text><text fill="#000000" font-family="sans-serif" font-size="14" lengthAdjust="spacing" textLength="161" x="294.1955" y="343.3857">+getMaxValue(): Value</text><text fill="#000000" font-family="sans-serif" font-size="14" lengthAdjust="spacing" textLength="270" x="294.1955" y="359.6826">+hasSameValue(int amount): boolean</text><text fill="#000000" font-family="sans-serif" font-size="14" lengthAdjust="spacing" textLength="269" x="294.1955" y="375.9795">+hasSameColor(int amount): boolean</text><text fill="#000000" font-family="sans-serif" font-size="14" lengthAdjust="spacing" textLength="175" x="294.1955" y="392.2764">+hasTwoPairs(): boolean</text><text fill="#000000" font-family="sans-serif" font-size="14" lengthAdjust="spacing" textLength="326" x="294.1955" y="408.5732">+getOrderedValues(int amount): List&lt;Value&gt;</text><text fill="#000000" font-family="sans-serif" font-size="14" lengthAdjust="spacing" textLength="247" x="294.1955" y="424.8701">+getOrderedValues(): List&lt;Value&gt;</text><text fill="#000000" font-family="sans-serif" font-size="14" lengthAdjust="spacing" textLength="263" x="294.1955" y="441.167">+hasStairStart(Value value): boolean</text><text fill="#000000" font-family="sans-serif" font-size="14" lengthAdjust="spacing" textLength="146" x="294.1955" y="457.4639">+hasStair(): boolean</text></g><!--reverse link Deck to Card--><g id="link_Deck_Card"><path codeLine="103" d="M171.9849,411.5293 C174.9779,448.7293 178.2435,489.318 181.7555,532.966 " fill="none" id="Deck-backto-Card" style="stroke:#181818;stroke-width:1.0;"/><polygon fill="#181818" points="171.0225,399.568,167.5166,405.8695,171.9849,411.5293,175.4908,405.2279,171.0225,399.568" style="stroke:#181818;stroke-width:1.0;"/><text fill="#000000" font-family="sans-serif" font-size="13" lengthAdjust="spacing" textLength="7" x="173.8392" y="521.8737">*</text></g><!--reverse link Player to Card--><g id="link_Player_Card"><path codeLine="104" d="M216.466,121.2208 C155.466,141.5128 100.4907,171.928 64.1951,229 C6,320.507 25.7461,371.6 64.1951,473 C72.3109,494.403 85.3608,514.636 100.0117,532.719 " fill="none" id="Player-backto-Card" style="stroke:#181818;stroke-width:1.0;"/><polygon fill="#181818" points="227.8525,117.433,220.8966,115.5314,216.466,121.2208,223.4218,123.1224,227.8525,117.433" style="stroke:#181818;stroke-width:1.0;"/><text fill="#000000" font-family="sans-serif" font-size="13" lengthAdjust="spacing" textLength="7" x="84.8461" y="521.8813">*</text></g><!--reverse link Player to Gamble--><g id="link_Player_Gamble"><path codeLine="105" d="M510.1975,88 C521.9705,88 521.7435,88 533.5175,88 " fill="none" id="Player-backto-Gamble" style="stroke:#181818;stroke-width:1.0;"/><polygon fill="#181818" points="498.1975,88,504.1975,92,510.1975,88,504.1975,84,498.1975,88" style="stroke:#181818;stroke-width:1.0;"/></g><!--reverse link Player to PlayerStatistics--><g id="link_Player_PlayerStatistics"><path codeLine="106" d="M396.1035,180.3722 C403.8745,201.9502 408.3625,214.412 416.6445,237.407 " fill="none" id="Player-backto-PlayerStatistics" style="stroke:#181818;stroke-width:1.0;"/><polygon fill="#181818" points="392.0375,169.082,390.3071,176.0824,396.1035,180.3722,397.8339,173.3718,392.0375,169.082" style="stroke:#181818;stroke-width:1.0;"/></g><!--link PlayerStatistics to Card--><g id="link_PlayerStatistics_Card"><path codeLine="107" d="M341.1635,464.581 C317.5585,487.484 297.4867,506.9588 275.3177,528.4688 " fill="none" id="PlayerStatistics-to-Card" style="stroke:#181818;stroke-width:1.0;"/><polygon fill="#181818" points="271.0115,532.647,280.2562,529.2505,274.6,529.1652,274.6853,523.509,271.0115,532.647" style="stroke:#181818;stroke-width:1.0;"/><text fill="#000000" font-family="sans-serif" font-size="13" lengthAdjust="spacing" textLength="7" x="271.0756" y="521.8029">*</text></g><!--reverse link PlayerStatistics to Value--><g id="link_PlayerStatistics_Value"><path codeLine="108" d="M457.1955,476.712 C457.1955,559.046 457.1955,660.339 457.1955,754.866 " fill="none" id="PlayerStatistics-backto-Value" style="stroke:#181818;stroke-width:1.0;"/><polygon fill="#181818" points="457.1955,464.712,453.1955,470.712,457.1955,476.712,461.1955,470.712,457.1955,464.712" style="stroke:#181818;stroke-width:1.0;"/><text fill="#000000" font-family="sans-serif" font-size="13" lengthAdjust="spacing" textLength="7" x="450.0478" y="744.0697">*</text></g><!--link Gamble to GambleType--><g id="link_Gamble_GambleType"><path codeLine="109" d="M808.0625,161.01 C818.5085,181.984 827.5465,200.1273 839.0675,223.2583 " fill="none" id="Gamble-to-GambleType" style="stroke:#181818;stroke-width:1.0;"/><polygon fill="#181818" points="841.7425,228.629,841.3104,218.7896,839.5133,224.1534,834.1495,222.3563,841.7425,228.629" style="stroke:#181818;stroke-width:1.0;"/></g><!--link Gamble to Value--><g id="link_Gamble_Value"><path codeLine="110" d="M741.1685,161.119 C732.3075,182.768 722.9585,206.694 715.1955,229 C678.0735,335.667 681.2885,366.323 644.1955,473 C611.4225,567.25 572.3767,664.7788 536.8877,749.4148 " fill="none" id="Gamble-to-Value" style="stroke:#181818;stroke-width:1.0;"/><polygon fill="#181818" points="534.5675,754.948,541.7366,748.1949,536.501,750.337,534.3589,745.1014,534.5675,754.948" style="stroke:#181818;stroke-width:1.0;"/><text fill="#000000" font-family="sans-serif" font-size="13" lengthAdjust="spacing" textLength="7" x="530.684" y="744.1551">*</text></g><!--link Card to Value--><g id="link_Card_Value"><path codeLine="111" d="M256.0755,695.245 C281.6005,725.42 307.5335,756.0771 336.2615,790.0381 " fill="none" id="Card-to-Value" style="stroke:#181818;stroke-width:1.0;"/><polygon fill="#181818" points="340.1365,794.619,337.3779,785.1644,336.9073,790.8016,331.2701,790.331,340.1365,794.619" style="stroke:#181818;stroke-width:1.0;"/></g><!--link Card to Suite--><g id="link_Card_Suite"><path codeLine="112" d="M188.1955,695.245 C188.1955,738.115 188.1955,785.205 188.1955,830.335 " fill="none" id="Card-to-Suite" style="stroke:#181818;stroke-width:1.0;"/><polygon fill="#181818" points="188.1955,836.335,192.1955,827.335,188.1955,831.335,184.1955,827.335,188.1955,836.335" style="stroke:#181818;stroke-width:1.0;"/></g><!--SRC=[XLNRRfmm47ttLrZf2ya6gS-hAf93d9QAB5jW4pLL5JbWxQAmaDhURYxgltTiSp5xQL-06P-PEPuRygcidvbWQnnKJCfBbZyjHREfYw2f6e6tgr9n97jGha54AL4-RXGFywPEopUEFoAvQhOuBqLUSOGC2b_n_0c_emyuPwA8IgccM3y_1I1Ue8avzqxXOycLrdcdKwpVw4_dGKlWmSTo0pIcEDKl47-pQWFYhNw1lJ4sPnPuRayip0GGd2akFEDFiu58ZqrJSLRRy0QlutSkGMSSQfsDEi6gIU7UzTBep9TcoklD6dzcwyUAPw_F7EW69Cd80uaoWkOaeLy9keel8_hG2baIneYc0ObeGb0GHt62hXTHXERnjmLD-gC7UzIB2IKHiE2_DgoIdXDnsN-EhzLU-d_8FjlpYhroOV9zi69-Qpzjhminh8af8YiA9x-WsAwQKDwLTGs0rlMpUK5iAn_EgQ-JRoDeRHkhoxGjCoGvJiXzFACfkWh93Pbby3KF0v92Vkbb787eOrKgJRTtR4jgHNju2jgQloYtpX0-qsSEfua5bRN2R0tJeNfunyiqpZjKsX18KR0WMHAZ89m5CKffcA8qf1b5SV0bHhC5lQL0dDwZS7QjoQE4XZC2p- -8769k6tJC_0ZJhkxk3BXziNyJs_H38gpSzuMjW9daeO6cJi-3QICABdXXB6NRDKRGWzuMys0ZdhlOiPlT9cfvMDkXCtmNT5UgLShMV8XrpEpOFBkpa2gcW5sPIpCL9fSoQ6gO2qZWZv_TPXhf9dl6tZ14_MIrvRjXBtkxPyMaleBLZmer5B75c2Nz3qosRUQi5DBRNNYnc-YnWt7jzh1x24r5GH1u27MqwpgKDzuyvXznvXS-FZaxiTk_tHL7bCBl2kZYTZEEzke7g8jTTyvn7yqMeUqPO-JqkQiUm6Rh6TskR5R4Nm00]--></g></svg>