<?xml version="1.0" encoding="us-ascii" standalone="no"?><svg xmlns="http://www.w3.org/2000/svg" xmlns:xlink="http://www.w3.org/1999/xlink" contentStyleType="text/css" height="1326px" preserveAspectRatio="none" style="width:1874px;height:1326px;background:#FFFFFF;" version="1.1" viewBox="0 0 1874 1326" width="1874px" zoomAndPan="magnify"><defs/><g><!--cluster analyzers--><g id="cluster_analyzers"><path d="M8.5,6 L87.5,6 A3.75,3.75 0 0 1 90,8.5 L97,28.2969 L1329.5,28.2969 A2.5,2.5 0 0 1 1332,30.7969 L1332,324 A2.5,2.5 0 0 1 1329.5,326.5 L8.5,326.5 A2.5,2.5 0 0 1 6,324 L6,8.5 A2.5,2.5 0 0 1 8.5,6 " fill="none" style="stroke:#000000;stroke-width:1.5;"/><line style="stroke:#000000;stroke-width:1.5;" x1="6" x2="97" y1="28.2969" y2="28.2969"/><text fill="#000000" font-family="sans-serif" font-size="14" font-weight="bold" lengthAdjust="spacing" textLength="78" x="10" y="20.9951">analyzers</text></g><!--class GambleAnalyzer--><g id="elem_GambleAnalyzer"><rect codeLine="104" fill="#FFFFFF" height="129.4844" id="GambleAnalyzer" rx="2.5" ry="2.5" style="stroke:#181818;stroke-width:0.5;" width="408" x="908" y="41"/><ellipse cx="1048.75" cy="57" fill="#ADD1B2" rx="11" ry="11" style="stroke:#181818;stroke-width:1.0;"/><path d="M1051.0938,52.6719 C1050.1563,52.2344 1049.5625,52.0938 1048.6875,52.0938 C1046.0625,52.0938 1044.0625,54.1719 1044.0625,56.8906 L1044.0625,58.0156 C1044.0625,60.5938 1046.1719,62.4844 1049.0625,62.4844 C1050.2813,62.4844 1051.4375,62.1875 1052.1875,61.6406 C1052.7656,61.2344 1053.0938,60.7813 1053.0938,60.3906 C1053.0938,59.9375 1052.7031,59.5469 1052.2344,59.5469 C1052.0156,59.5469 1051.8125,59.625 1051.625,59.8125 C1051.1719,60.2969 1051.1719,60.2969 1050.9844,60.3906 C1050.5625,60.6563 1049.875,60.7813 1049.1094,60.7813 C1047.0625,60.7813 1045.7656,59.6875 1045.7656,57.9844 L1045.7656,56.8906 C1045.7656,55.1094 1047.0156,53.7969 1048.75,53.7969 C1049.3281,53.7969 1049.9375,53.9531 1050.4063,54.2031 C1050.8906,54.4844 1051.0625,54.7031 1051.1563,55.1094 C1051.2188,55.5156 1051.25,55.6406 1051.3906,55.7656 C1051.5313,55.9063 1051.7656,56.0156 1051.9844,56.0156 C1052.25,56.0156 1052.5156,55.875 1052.6875,55.6563 C1052.7969,55.5 1052.8281,55.3125 1052.8281,54.8906 L1052.8281,53.4688 C1052.8281,53.0313 1052.8125,52.9063 1052.7188,52.75 C1052.5625,52.4844 1052.2813,52.3438 1051.9844,52.3438 C1051.6875,52.3438 1051.4844,52.4375 1051.2656,52.75 L1051.0938,52.6719 Z " fill="#000000"/><text fill="#000000" font-family="sans-serif" font-size="14" lengthAdjust="spacing" textLength="118" x="1069.25" y="61.8467">GambleAnalyzer</text><line style="stroke:#181818;stroke-width:0.5;" x1="909" x2="1315" y1="73" y2="73"/><text fill="#000000" font-family="sans-serif" font-size="14" lengthAdjust="spacing" textLength="311" x="914" y="89.9951">-dobleParejaAnalyzer: DobleParejaAnalyzer</text><text fill="#000000" font-family="sans-serif" font-size="14" lengthAdjust="spacing" textLength="228" x="914" y="106.292">-parejaAnalyzer: ParejaAnalyzer</text><text fill="#000000" font-family="sans-serif" font-size="14" lengthAdjust="spacing" textLength="273" x="914" y="122.5889">-cartaAltaAnalyzer: CartaAltaAnalyzer</text><line style="stroke:#181818;stroke-width:0.5;" x1="909" x2="1315" y1="129.8906" y2="129.8906"/><text fill="#000000" font-family="sans-serif" font-size="14" lengthAdjust="spacing" textLength="139" x="914" y="146.8857">+GambleAnalyzer()</text><text fill="#000000" font-family="sans-serif" font-size="14" lengthAdjust="spacing" textLength="396" x="914" y="163.1826">+getGamble(PlayerStatistics playerStatistics): Gamble</text></g><!--class CartaAltaAnalyzer--><g id="elem_CartaAltaAnalyzer"><rect codeLine="112" fill="#FFFFFF" height="64.2969" id="CartaAltaAnalyzer" rx="2.5" ry="2.5" style="stroke:#181818;stroke-width:0.5;" width="408" x="908" y="246.5"/><ellipse cx="1042.75" cy="262.5" fill="#ADD1B2" rx="11" ry="11" style="stroke:#181818;stroke-width:1.0;"/><path d="M1045.0938,258.1719 C1044.1563,257.7344 1043.5625,257.5938 1042.6875,257.5938 C1040.0625,257.5938 1038.0625,259.6719 1038.0625,262.3906 L1038.0625,263.5156 C1038.0625,266.0938 1040.1719,267.9844 1043.0625,267.9844 C1044.2813,267.9844 1045.4375,267.6875 1046.1875,267.1406 C1046.7656,266.7344 1047.0938,266.2813 1047.0938,265.8906 C1047.0938,265.4375 1046.7031,265.0469 1046.2344,265.0469 C1046.0156,265.0469 1045.8125,265.125 1045.625,265.3125 C1045.1719,265.7969 1045.1719,265.7969 1044.9844,265.8906 C1044.5625,266.1563 1043.875,266.2813 1043.1094,266.2813 C1041.0625,266.2813 1039.7656,265.1875 1039.7656,263.4844 L1039.7656,262.3906 C1039.7656,260.6094 1041.0156,259.2969 1042.75,259.2969 C1043.3281,259.2969 1043.9375,259.4531 1044.4063,259.7031 C1044.8906,259.9844 1045.0625,260.2031 1045.1563,260.6094 C1045.2188,261.0156 1045.25,261.1406 1045.3906,261.2656 C1045.5313,261.4063 1045.7656,261.5156 1045.9844,261.5156 C1046.25,261.5156 1046.5156,261.375 1046.6875,261.1563 C1046.7969,261 1046.8281,260.8125 1046.8281,260.3906 L1046.8281,258.9688 C1046.8281,258.5313 1046.8125,258.4063 1046.7188,258.25 C1046.5625,257.9844 1046.2813,257.8438 1045.9844,257.8438 C1045.6875,257.8438 1045.4844,257.9375 1045.2656,258.25 L1045.0938,258.1719 Z " fill="#000000"/><text fill="#000000" font-family="sans-serif" font-size="14" lengthAdjust="spacing" textLength="130" x="1063.25" y="267.3467">CartaAltaAnalyzer</text><line style="stroke:#181818;stroke-width:0.5;" x1="909" x2="1315" y1="278.5" y2="278.5"/><line style="stroke:#181818;stroke-width:0.5;" x1="909" x2="1315" y1="286.5" y2="286.5"/><text fill="#000000" font-family="sans-serif" font-size="14" lengthAdjust="spacing" textLength="396" x="914" y="303.4951">+getGamble(PlayerStatistics playerStatistics): Gamble</text></g><!--class ParejaAnalyzer--><g id="elem_ParejaAnalyzer"><rect codeLine="115" fill="#FFFFFF" height="64.2969" id="ParejaAnalyzer" rx="2.5" ry="2.5" style="stroke:#181818;stroke-width:0.5;" width="408" x="465" y="246.5"/><ellipse cx="611.75" cy="262.5" fill="#ADD1B2" rx="11" ry="11" style="stroke:#181818;stroke-width:1.0;"/><path d="M614.0938,258.1719 C613.1563,257.7344 612.5625,257.5938 611.6875,257.5938 C609.0625,257.5938 607.0625,259.6719 607.0625,262.3906 L607.0625,263.5156 C607.0625,266.0938 609.1719,267.9844 612.0625,267.9844 C613.2813,267.9844 614.4375,267.6875 615.1875,267.1406 C615.7656,266.7344 616.0938,266.2813 616.0938,265.8906 C616.0938,265.4375 615.7031,265.0469 615.2344,265.0469 C615.0156,265.0469 614.8125,265.125 614.625,265.3125 C614.1719,265.7969 614.1719,265.7969 613.9844,265.8906 C613.5625,266.1563 612.875,266.2813 612.1094,266.2813 C610.0625,266.2813 608.7656,265.1875 608.7656,263.4844 L608.7656,262.3906 C608.7656,260.6094 610.0156,259.2969 611.75,259.2969 C612.3281,259.2969 612.9375,259.4531 613.4063,259.7031 C613.8906,259.9844 614.0625,260.2031 614.1563,260.6094 C614.2188,261.0156 614.25,261.1406 614.3906,261.2656 C614.5313,261.4063 614.7656,261.5156 614.9844,261.5156 C615.25,261.5156 615.5156,261.375 615.6875,261.1563 C615.7969,261 615.8281,260.8125 615.8281,260.3906 L615.8281,258.9688 C615.8281,258.5313 615.8125,258.4063 615.7188,258.25 C615.5625,257.9844 615.2813,257.8438 614.9844,257.8438 C614.6875,257.8438 614.4844,257.9375 614.2656,258.25 L614.0938,258.1719 Z " fill="#000000"/><text fill="#000000" font-family="sans-serif" font-size="14" lengthAdjust="spacing" textLength="106" x="632.25" y="267.3467">ParejaAnalyzer</text><line style="stroke:#181818;stroke-width:0.5;" x1="466" x2="872" y1="278.5" y2="278.5"/><line style="stroke:#181818;stroke-width:0.5;" x1="466" x2="872" y1="286.5" y2="286.5"/><text fill="#000000" font-family="sans-serif" font-size="14" lengthAdjust="spacing" textLength="396" x="471" y="303.4951">+getGamble(PlayerStatistics playerStatistics): Gamble</text></g><!--class DobleParejaAnalyzer--><g id="elem_DobleParejaAnalyzer"><rect codeLine="118" fill="#FFFFFF" height="64.2969" id="DobleParejaAnalyzer" rx="2.5" ry="2.5" style="stroke:#181818;stroke-width:0.5;" width="408" x="22" y="246.5"/><ellipse cx="147.25" cy="262.5" fill="#ADD1B2" rx="11" ry="11" style="stroke:#181818;stroke-width:1.0;"/><path d="M149.5938,258.1719 C148.6563,257.7344 148.0625,257.5938 147.1875,257.5938 C144.5625,257.5938 142.5625,259.6719 142.5625,262.3906 L142.5625,263.5156 C142.5625,266.0938 144.6719,267.9844 147.5625,267.9844 C148.7813,267.9844 149.9375,267.6875 150.6875,267.1406 C151.2656,266.7344 151.5938,266.2813 151.5938,265.8906 C151.5938,265.4375 151.2031,265.0469 150.7344,265.0469 C150.5156,265.0469 150.3125,265.125 150.125,265.3125 C149.6719,265.7969 149.6719,265.7969 149.4844,265.8906 C149.0625,266.1563 148.375,266.2813 147.6094,266.2813 C145.5625,266.2813 144.2656,265.1875 144.2656,263.4844 L144.2656,262.3906 C144.2656,260.6094 145.5156,259.2969 147.25,259.2969 C147.8281,259.2969 148.4375,259.4531 148.9063,259.7031 C149.3906,259.9844 149.5625,260.2031 149.6563,260.6094 C149.7188,261.0156 149.75,261.1406 149.8906,261.2656 C150.0313,261.4063 150.2656,261.5156 150.4844,261.5156 C150.75,261.5156 151.0156,261.375 151.1875,261.1563 C151.2969,261 151.3281,260.8125 151.3281,260.3906 L151.3281,258.9688 C151.3281,258.5313 151.3125,258.4063 151.2188,258.25 C151.0625,257.9844 150.7813,257.8438 150.4844,257.8438 C150.1875,257.8438 149.9844,257.9375 149.7656,258.25 L149.5938,258.1719 Z " fill="#000000"/><text fill="#000000" font-family="sans-serif" font-size="14" lengthAdjust="spacing" textLength="149" x="167.75" y="267.3467">DobleParejaAnalyzer</text><line style="stroke:#181818;stroke-width:0.5;" x1="23" x2="429" y1="278.5" y2="278.5"/><line style="stroke:#181818;stroke-width:0.5;" x1="23" x2="429" y1="286.5" y2="286.5"/><text fill="#000000" font-family="sans-serif" font-size="14" lengthAdjust="spacing" textLength="396" x="28" y="303.4951">+getGamble(PlayerStatistics playerStatistics): Gamble</text></g><!--class Deck--><g id="elem_Deck"><rect codeLine="5" fill="#FFFFFF" height="96.8906" id="Deck" rx="2.5" ry="2.5" style="stroke:#181818;stroke-width:0.5;" width="171" x="1632.5" y="435.5"/><ellipse cx="1695.25" cy="451.5" fill="#ADD1B2" rx="11" ry="11" style="stroke:#181818;stroke-width:1.0;"/><path d="M1697.5938,447.1719 C1696.6563,446.7344 1696.0625,446.5938 1695.1875,446.5938 C1692.5625,446.5938 1690.5625,448.6719 1690.5625,451.3906 L1690.5625,452.5156 C1690.5625,455.0938 1692.6719,456.9844 1695.5625,456.9844 C1696.7813,456.9844 1697.9375,456.6875 1698.6875,456.1406 C1699.2656,455.7344 1699.5938,455.2813 1699.5938,454.8906 C1699.5938,454.4375 1699.2031,454.0469 1698.7344,454.0469 C1698.5156,454.0469 1698.3125,454.125 1698.125,454.3125 C1697.6719,454.7969 1697.6719,454.7969 1697.4844,454.8906 C1697.0625,455.1563 1696.375,455.2813 1695.6094,455.2813 C1693.5625,455.2813 1692.2656,454.1875 1692.2656,452.4844 L1692.2656,451.3906 C1692.2656,449.6094 1693.5156,448.2969 1695.25,448.2969 C1695.8281,448.2969 1696.4375,448.4531 1696.9063,448.7031 C1697.3906,448.9844 1697.5625,449.2031 1697.6563,449.6094 C1697.7188,450.0156 1697.75,450.1406 1697.8906,450.2656 C1698.0313,450.4063 1698.2656,450.5156 1698.4844,450.5156 C1698.75,450.5156 1699.0156,450.375 1699.1875,450.1563 C1699.2969,450 1699.3281,449.8125 1699.3281,449.3906 L1699.3281,447.9688 C1699.3281,447.5313 1699.3125,447.4063 1699.2188,447.25 C1699.0625,446.9844 1698.7813,446.8438 1698.4844,446.8438 C1698.1875,446.8438 1697.9844,446.9375 1697.7656,447.25 L1697.5938,447.1719 Z " fill="#000000"/><text fill="#000000" font-family="sans-serif" font-size="14" lengthAdjust="spacing" textLength="37" x="1715.75" y="456.3467">Deck</text><line style="stroke:#181818;stroke-width:0.5;" x1="1633.5" x2="1802.5" y1="467.5" y2="467.5"/><text fill="#000000" font-family="sans-serif" font-size="14" lengthAdjust="spacing" textLength="159" x="1638.5" y="484.4951">#cardList: List&lt;Card&gt;</text><line style="stroke:#181818;stroke-width:0.5;" x1="1633.5" x2="1802.5" y1="491.7969" y2="491.7969"/><text fill="#000000" font-family="sans-serif" font-size="14" lengthAdjust="spacing" textLength="58" x="1638.5" y="508.792">+Deck()</text><text fill="#000000" font-family="sans-serif" font-size="14" lengthAdjust="spacing" textLength="121" x="1638.5" y="525.0889">+getCard(): Card</text></g><!--class Card--><g id="elem_Card"><rect codeLine="11" fill="#FFFFFF" height="162.0781" id="Card" rx="2.5" ry="2.5" style="stroke:#181818;stroke-width:0.5;" width="230" x="1448" y="698.5"/><ellipse cx="1542.25" cy="714.5" fill="#ADD1B2" rx="11" ry="11" style="stroke:#181818;stroke-width:1.0;"/><path d="M1544.5938,710.1719 C1543.6563,709.7344 1543.0625,709.5938 1542.1875,709.5938 C1539.5625,709.5938 1537.5625,711.6719 1537.5625,714.3906 L1537.5625,715.5156 C1537.5625,718.0938 1539.6719,719.9844 1542.5625,719.9844 C1543.7813,719.9844 1544.9375,719.6875 1545.6875,719.1406 C1546.2656,718.7344 1546.5938,718.2813 1546.5938,717.8906 C1546.5938,717.4375 1546.2031,717.0469 1545.7344,717.0469 C1545.5156,717.0469 1545.3125,717.125 1545.125,717.3125 C1544.6719,717.7969 1544.6719,717.7969 1544.4844,717.8906 C1544.0625,718.1563 1543.375,718.2813 1542.6094,718.2813 C1540.5625,718.2813 1539.2656,717.1875 1539.2656,715.4844 L1539.2656,714.3906 C1539.2656,712.6094 1540.5156,711.2969 1542.25,711.2969 C1542.8281,711.2969 1543.4375,711.4531 1543.9063,711.7031 C1544.3906,711.9844 1544.5625,712.2031 1544.6563,712.6094 C1544.7188,713.0156 1544.75,713.1406 1544.8906,713.2656 C1545.0313,713.4063 1545.2656,713.5156 1545.4844,713.5156 C1545.75,713.5156 1546.0156,713.375 1546.1875,713.1563 C1546.2969,713 1546.3281,712.8125 1546.3281,712.3906 L1546.3281,710.9688 C1546.3281,710.5313 1546.3125,710.4063 1546.2188,710.25 C1546.0625,709.9844 1545.7813,709.8438 1545.4844,709.8438 C1545.1875,709.8438 1544.9844,709.9375 1544.7656,710.25 L1544.5938,710.1719 Z " fill="#000000"/><text fill="#000000" font-family="sans-serif" font-size="14" lengthAdjust="spacing" textLength="33" x="1562.75" y="719.3467">Card</text><line style="stroke:#181818;stroke-width:0.5;" x1="1449" x2="1677" y1="730.5" y2="730.5"/><text fill="#000000" font-family="sans-serif" font-size="14" lengthAdjust="spacing" textLength="87" x="1454" y="747.4951">-suite: Suite</text><text fill="#000000" font-family="sans-serif" font-size="14" lengthAdjust="spacing" textLength="91" x="1454" y="763.792">-value: Value</text><line style="stroke:#181818;stroke-width:0.5;" x1="1449" x2="1677" y1="771.0938" y2="771.0938"/><text fill="#000000" font-family="sans-serif" font-size="14" lengthAdjust="spacing" textLength="218" x="1454" y="788.0889">+Card(Suite suite, Value value)</text><text fill="#000000" font-family="sans-serif" font-size="14" lengthAdjust="spacing" textLength="210" x="1454" y="804.3857">+greater(Card card): boolean</text><text fill="#000000" font-family="sans-serif" font-size="14" lengthAdjust="spacing" textLength="133" x="1454" y="820.6826">+getValue(): Value</text><text fill="#000000" font-family="sans-serif" font-size="14" lengthAdjust="spacing" textLength="129" x="1454" y="836.9795">+getSuite(): Suite</text><text fill="#000000" font-family="sans-serif" font-size="14" lengthAdjust="spacing" textLength="134" x="1454" y="853.2764">+toString(): String</text></g><!--class GambleType--><g id="elem_GambleType"><rect codeLine="21" fill="#FFFFFF" height="243.5625" id="GambleType" rx="2.5" ry="2.5" style="stroke:#181818;stroke-width:0.5;" width="340" x="581" y="657.5"/><ellipse cx="700.75" cy="673.5" fill="#EB937F" rx="11" ry="11" style="stroke:#181818;stroke-width:1.0;"/><path d="M699.5469,674.375 L701,674.375 L701,674.4844 C701,674.8906 701.0313,675.0469 701.1094,675.2031 C701.2656,675.4531 701.5469,675.6094 701.8438,675.6094 C702.0938,675.6094 702.3594,675.4688 702.5156,675.25 C702.6406,675.0938 702.6719,674.9375 702.6719,674.4844 L702.6719,672.5625 C702.6719,672.4063 702.6719,672.3594 702.6563,672.2031 C702.5938,671.7344 702.2813,671.4219 701.8281,671.4219 C701.5781,671.4219 701.3125,671.5625 701.1406,671.7813 C701.0313,671.9531 701,672.1094 701,672.5625 L701,672.6875 L699.5469,672.6875 L699.5469,670.2813 L703.5313,670.2813 L703.5313,671.1406 C703.5313,671.5469 703.5625,671.7188 703.6406,671.875 C703.8125,672.125 704.0938,672.2813 704.375,672.2813 C704.6406,672.2813 704.9063,672.1406 705.0781,671.9219 C705.1875,671.75 705.2188,671.6094 705.2188,671.1406 L705.2188,668.5938 L697.5938,668.5938 C697.1563,668.5938 697.0313,668.6094 696.875,668.7031 C696.625,668.8594 696.4688,669.1563 696.4688,669.4375 C696.4688,669.7188 696.6094,669.9688 696.8281,670.1406 C696.9844,670.25 697.1719,670.2813 697.5938,670.2813 L697.8438,670.2813 L697.8438,676.7969 L697.5938,676.7969 C697.1875,676.7969 697.0313,676.8125 696.875,676.9219 C696.625,677.0938 696.4688,677.3594 696.4688,677.6563 C696.4688,677.9219 696.6094,678.1719 696.8281,678.3281 C696.9688,678.4531 697.2031,678.5 697.5938,678.5 L705.5938,678.5 L705.5938,675.9219 C705.5938,675.4844 705.5625,675.3438 705.4844,675.1875 C705.3125,674.9375 705.0313,674.7813 704.75,674.7813 C704.4844,674.7813 704.2188,674.8906 704.0469,675.1406 C703.9375,675.2969 703.9063,675.4375 703.9063,675.9219 L703.9063,676.7969 L699.5469,676.7969 L699.5469,674.375 Z " fill="#000000"/><text fill="#000000" font-family="sans-serif" font-size="14" lengthAdjust="spacing" textLength="92" x="721.25" y="678.3467">GambleType</text><line style="stroke:#181818;stroke-width:0.5;" x1="582" x2="920" y1="689.5" y2="689.5"/><text fill="#000000" font-family="sans-serif" font-size="14" lengthAdjust="spacing" textLength="93" x="587" y="706.4951">CARTA_ALTA</text><text fill="#000000" font-family="sans-serif" font-size="14" lengthAdjust="spacing" textLength="52" x="587" y="722.792">PAREJA</text><text fill="#000000" font-family="sans-serif" font-size="14" lengthAdjust="spacing" textLength="108" x="587" y="739.0889">DOBLE_PAREJA</text><text fill="#000000" font-family="sans-serif" font-size="14" lengthAdjust="spacing" textLength="34" x="587" y="755.3857">TRIO</text><text fill="#000000" font-family="sans-serif" font-size="14" lengthAdjust="spacing" textLength="75" x="587" y="771.6826">ESCALERA</text><text fill="#000000" font-family="sans-serif" font-size="14" lengthAdjust="spacing" textLength="50" x="587" y="787.9795">COLOR</text><text fill="#000000" font-family="sans-serif" font-size="14" lengthAdjust="spacing" textLength="33" x="587" y="804.2764">FULL</text><text fill="#000000" font-family="sans-serif" font-size="14" lengthAdjust="spacing" textLength="59" x="587" y="820.5732">POQUER</text><text fill="#000000" font-family="sans-serif" font-size="14" lengthAdjust="spacing" textLength="132" x="587" y="836.8701">ESCALERA_COLOR</text><text fill="#000000" font-family="sans-serif" font-size="14" lengthAdjust="spacing" textLength="119" x="587" y="853.167">ESCALERA_REAL</text><line style="stroke:#181818;stroke-width:0.5;" x1="582" x2="920" y1="860.4688" y2="860.4688"/><text fill="#000000" font-family="sans-serif" font-size="14" lengthAdjust="spacing" textLength="319" x="587" y="877.4639">+equals(GambleType gambleType): boolean</text><text fill="#000000" font-family="sans-serif" font-size="14" lengthAdjust="spacing" textLength="328" x="587" y="893.7607">+greater(GambleType gambleType): boolean</text></g><!--class Player--><g id="elem_Player"><rect codeLine="36" fill="#FFFFFF" height="162.0781" id="Player" rx="2.5" ry="2.5" style="stroke:#181818;stroke-width:0.5;" width="270" x="1411" y="24.5"/><ellipse cx="1519.75" cy="40.5" fill="#ADD1B2" rx="11" ry="11" style="stroke:#181818;stroke-width:1.0;"/><path d="M1522.0938,36.1719 C1521.1563,35.7344 1520.5625,35.5938 1519.6875,35.5938 C1517.0625,35.5938 1515.0625,37.6719 1515.0625,40.3906 L1515.0625,41.5156 C1515.0625,44.0938 1517.1719,45.9844 1520.0625,45.9844 C1521.2813,45.9844 1522.4375,45.6875 1523.1875,45.1406 C1523.7656,44.7344 1524.0938,44.2813 1524.0938,43.8906 C1524.0938,43.4375 1523.7031,43.0469 1523.2344,43.0469 C1523.0156,43.0469 1522.8125,43.125 1522.625,43.3125 C1522.1719,43.7969 1522.1719,43.7969 1521.9844,43.8906 C1521.5625,44.1563 1520.875,44.2813 1520.1094,44.2813 C1518.0625,44.2813 1516.7656,43.1875 1516.7656,41.4844 L1516.7656,40.3906 C1516.7656,38.6094 1518.0156,37.2969 1519.75,37.2969 C1520.3281,37.2969 1520.9375,37.4531 1521.4063,37.7031 C1521.8906,37.9844 1522.0625,38.2031 1522.1563,38.6094 C1522.2188,39.0156 1522.25,39.1406 1522.3906,39.2656 C1522.5313,39.4063 1522.7656,39.5156 1522.9844,39.5156 C1523.25,39.5156 1523.5156,39.375 1523.6875,39.1563 C1523.7969,39 1523.8281,38.8125 1523.8281,38.3906 L1523.8281,36.9688 C1523.8281,36.5313 1523.8125,36.4063 1523.7188,36.25 C1523.5625,35.9844 1523.2813,35.8438 1522.9844,35.8438 C1522.6875,35.8438 1522.4844,35.9375 1522.2656,36.25 L1522.0938,36.1719 Z " fill="#000000"/><text fill="#000000" font-family="sans-serif" font-size="14" lengthAdjust="spacing" textLength="44" x="1540.25" y="45.3467">Player</text><line style="stroke:#181818;stroke-width:0.5;" x1="1412" x2="1680" y1="56.5" y2="56.5"/><text fill="#000000" font-family="sans-serif" font-size="14" lengthAdjust="spacing" textLength="153" x="1417" y="73.4951">-cardList: List&lt;Card&gt;</text><text fill="#000000" font-family="sans-serif" font-size="14" lengthAdjust="spacing" textLength="125" x="1417" y="89.792">-gamble: Gamble</text><line style="stroke:#181818;stroke-width:0.5;" x1="1412" x2="1680" y1="97.0938" y2="97.0938"/><text fill="#000000" font-family="sans-serif" font-size="14" lengthAdjust="spacing" textLength="65" x="1417" y="114.0889">+Player()</text><text fill="#000000" font-family="sans-serif" font-size="14" lengthAdjust="spacing" textLength="115" x="1417" y="130.3857">+add(Card card)</text><text fill="#000000" font-family="sans-serif" font-size="14" lengthAdjust="spacing" textLength="258" x="1417" y="146.6826">+whoIsWinner(Player player): Player</text><text fill="#000000" font-family="sans-serif" font-size="14" lengthAdjust="spacing" textLength="134" x="1417" y="162.9795">+toString(): String</text><text fill="#000000" font-family="sans-serif" font-size="14" lengthAdjust="spacing" textLength="162" x="1417" y="179.2764">-getGamble(): Gamble</text></g><!--class Suite--><g id="elem_Suite"><rect codeLine="46" fill="#FFFFFF" height="194.6719" id="Suite" rx="2.5" ry="2.5" style="stroke:#181818;stroke-width:0.5;" width="191" x="1467.5" y="1043"/><ellipse cx="1540.25" cy="1059" fill="#EB937F" rx="11" ry="11" style="stroke:#181818;stroke-width:1.0;"/><path d="M1539.0469,1059.875 L1540.5,1059.875 L1540.5,1059.9844 C1540.5,1060.3906 1540.5313,1060.5469 1540.6094,1060.7031 C1540.7656,1060.9531 1541.0469,1061.1094 1541.3438,1061.1094 C1541.5938,1061.1094 1541.8594,1060.9688 1542.0156,1060.75 C1542.1406,1060.5938 1542.1719,1060.4375 1542.1719,1059.9844 L1542.1719,1058.0625 C1542.1719,1057.9063 1542.1719,1057.8594 1542.1563,1057.7031 C1542.0938,1057.2344 1541.7813,1056.9219 1541.3281,1056.9219 C1541.0781,1056.9219 1540.8125,1057.0625 1540.6406,1057.2813 C1540.5313,1057.4531 1540.5,1057.6094 1540.5,1058.0625 L1540.5,1058.1875 L1539.0469,1058.1875 L1539.0469,1055.7813 L1543.0313,1055.7813 L1543.0313,1056.6406 C1543.0313,1057.0469 1543.0625,1057.2188 1543.1406,1057.375 C1543.3125,1057.625 1543.5938,1057.7813 1543.875,1057.7813 C1544.1406,1057.7813 1544.4063,1057.6406 1544.5781,1057.4219 C1544.6875,1057.25 1544.7188,1057.1094 1544.7188,1056.6406 L1544.7188,1054.0938 L1537.0938,1054.0938 C1536.6563,1054.0938 1536.5313,1054.1094 1536.375,1054.2031 C1536.125,1054.3594 1535.9688,1054.6563 1535.9688,1054.9375 C1535.9688,1055.2188 1536.1094,1055.4688 1536.3281,1055.6406 C1536.4844,1055.75 1536.6719,1055.7813 1537.0938,1055.7813 L1537.3438,1055.7813 L1537.3438,1062.2969 L1537.0938,1062.2969 C1536.6875,1062.2969 1536.5313,1062.3125 1536.375,1062.4219 C1536.125,1062.5938 1535.9688,1062.8594 1535.9688,1063.1563 C1535.9688,1063.4219 1536.1094,1063.6719 1536.3281,1063.8281 C1536.4688,1063.9531 1536.7031,1064 1537.0938,1064 L1545.0938,1064 L1545.0938,1061.4219 C1545.0938,1060.9844 1545.0625,1060.8438 1544.9844,1060.6875 C1544.8125,1060.4375 1544.5313,1060.2813 1544.25,1060.2813 C1543.9844,1060.2813 1543.7188,1060.3906 1543.5469,1060.6406 C1543.4375,1060.7969 1543.4063,1060.9375 1543.4063,1061.4219 L1543.4063,1062.2969 L1539.0469,1062.2969 L1539.0469,1059.875 Z " fill="#000000"/><text fill="#000000" font-family="sans-serif" font-size="14" lengthAdjust="spacing" textLength="37" x="1560.75" y="1063.8467">Suite</text><line style="stroke:#181818;stroke-width:0.5;" x1="1468.5" x2="1657.5" y1="1075" y2="1075"/><text fill="#000000" font-family="sans-serif" font-size="14" lengthAdjust="spacing" textLength="90" x="1473.5" y="1091.9951">CORAZONES</text><text fill="#000000" font-family="sans-serif" font-size="14" lengthAdjust="spacing" textLength="84" x="1473.5" y="1108.292">DIAMANTES</text><text fill="#000000" font-family="sans-serif" font-size="14" lengthAdjust="spacing" textLength="42" x="1473.5" y="1124.5889">PICAS</text><text fill="#000000" font-family="sans-serif" font-size="14" lengthAdjust="spacing" textLength="75" x="1473.5" y="1140.8857">TREBOLES</text><text fill="#000000" font-family="sans-serif" font-size="14" lengthAdjust="spacing" textLength="90" x="1473.5" y="1157.1826">-title: String</text><line style="stroke:#181818;stroke-width:0.5;" x1="1468.5" x2="1657.5" y1="1164.4844" y2="1164.4844"/><text fill="#000000" font-family="sans-serif" font-size="14" lengthAdjust="spacing" textLength="132" x="1473.5" y="1181.4795">-Suite(String title)</text><text fill="#000000" font-family="sans-serif" font-size="14" lengthAdjust="spacing" textLength="95" x="1473.5" y="1197.7764">-next(): Suite</text><text fill="#000000" font-family="sans-serif" font-size="14" lengthAdjust="spacing" textLength="132" x="1473.5" y="1214.0732">+getTitle(): String</text><text fill="#000000" font-family="sans-serif" font-size="14" lengthAdjust="spacing" textLength="179" x="1473.5" y="1230.3701">+next(int amount): Suite</text></g><!--class Value--><g id="elem_Value"><rect codeLine="58" fill="#FFFFFF" height="357.6406" id="Value" rx="2.5" ry="2.5" style="stroke:#181818;stroke-width:0.5;" width="234" x="868" y="961.5"/><ellipse cx="961.25" cy="977.5" fill="#EB937F" rx="11" ry="11" style="stroke:#181818;stroke-width:1.0;"/><path d="M960.0469,978.375 L961.5,978.375 L961.5,978.4844 C961.5,978.8906 961.5313,979.0469 961.6094,979.2031 C961.7656,979.4531 962.0469,979.6094 962.3438,979.6094 C962.5938,979.6094 962.8594,979.4688 963.0156,979.25 C963.1406,979.0938 963.1719,978.9375 963.1719,978.4844 L963.1719,976.5625 C963.1719,976.4063 963.1719,976.3594 963.1563,976.2031 C963.0938,975.7344 962.7813,975.4219 962.3281,975.4219 C962.0781,975.4219 961.8125,975.5625 961.6406,975.7813 C961.5313,975.9531 961.5,976.1094 961.5,976.5625 L961.5,976.6875 L960.0469,976.6875 L960.0469,974.2813 L964.0313,974.2813 L964.0313,975.1406 C964.0313,975.5469 964.0625,975.7188 964.1406,975.875 C964.3125,976.125 964.5938,976.2813 964.875,976.2813 C965.1406,976.2813 965.4063,976.1406 965.5781,975.9219 C965.6875,975.75 965.7188,975.6094 965.7188,975.1406 L965.7188,972.5938 L958.0938,972.5938 C957.6563,972.5938 957.5313,972.6094 957.375,972.7031 C957.125,972.8594 956.9688,973.1563 956.9688,973.4375 C956.9688,973.7188 957.1094,973.9688 957.3281,974.1406 C957.4844,974.25 957.6719,974.2813 958.0938,974.2813 L958.3438,974.2813 L958.3438,980.7969 L958.0938,980.7969 C957.6875,980.7969 957.5313,980.8125 957.375,980.9219 C957.125,981.0938 956.9688,981.3594 956.9688,981.6563 C956.9688,981.9219 957.1094,982.1719 957.3281,982.3281 C957.4688,982.4531 957.7031,982.5 958.0938,982.5 L966.0938,982.5 L966.0938,979.9219 C966.0938,979.4844 966.0625,979.3438 965.9844,979.1875 C965.8125,978.9375 965.5313,978.7813 965.25,978.7813 C964.9844,978.7813 964.7188,978.8906 964.5469,979.1406 C964.4375,979.2969 964.4063,979.4375 964.4063,979.9219 L964.4063,980.7969 L960.0469,980.7969 L960.0469,978.375 Z " fill="#000000"/><text fill="#000000" font-family="sans-serif" font-size="14" lengthAdjust="spacing" textLength="39" x="981.75" y="982.3467">Value</text><line style="stroke:#181818;stroke-width:0.5;" x1="869" x2="1101" y1="993.5" y2="993.5"/><text fill="#000000" font-family="sans-serif" font-size="14" lengthAdjust="spacing" textLength="31" x="874" y="1010.4951">DOS</text><text fill="#000000" font-family="sans-serif" font-size="14" lengthAdjust="spacing" textLength="37" x="874" y="1026.792">TRES</text><text fill="#000000" font-family="sans-serif" font-size="14" lengthAdjust="spacing" textLength="59" x="874" y="1043.0889">CUATRO</text><text fill="#000000" font-family="sans-serif" font-size="14" lengthAdjust="spacing" textLength="45" x="874" y="1059.3857">CINCO</text><text fill="#000000" font-family="sans-serif" font-size="14" lengthAdjust="spacing" textLength="31" x="874" y="1075.6826">SEIS</text><text fill="#000000" font-family="sans-serif" font-size="14" lengthAdjust="spacing" textLength="40" x="874" y="1091.9795">SIETE</text><text fill="#000000" font-family="sans-serif" font-size="14" lengthAdjust="spacing" textLength="42" x="874" y="1108.2764">OCHO</text><text fill="#000000" font-family="sans-serif" font-size="14" lengthAdjust="spacing" textLength="47" x="874" y="1124.5732">NUEVE</text><text fill="#000000" font-family="sans-serif" font-size="14" lengthAdjust="spacing" textLength="34" x="874" y="1140.8701">DIEZ</text><text fill="#000000" font-family="sans-serif" font-size="14" lengthAdjust="spacing" textLength="60" x="874" y="1157.167">INFANTE</text><text fill="#000000" font-family="sans-serif" font-size="14" lengthAdjust="spacing" textLength="43" x="874" y="1173.4639">REINA</text><text fill="#000000" font-family="sans-serif" font-size="14" lengthAdjust="spacing" textLength="28" x="874" y="1189.7607">REY</text><text fill="#000000" font-family="sans-serif" font-size="14" lengthAdjust="spacing" textLength="19" x="874" y="1206.0576">AS</text><text fill="#000000" font-family="sans-serif" font-size="14" lengthAdjust="spacing" textLength="90" x="874" y="1222.3545">-title: String</text><line style="stroke:#181818;stroke-width:0.5;" x1="869" x2="1101" y1="1229.6563" y2="1229.6563"/><text fill="#000000" font-family="sans-serif" font-size="14" lengthAdjust="spacing" textLength="134" x="874" y="1246.6514">-Value(String title)</text><text fill="#000000" font-family="sans-serif" font-size="14" lengthAdjust="spacing" textLength="132" x="874" y="1262.9482">+getTitle(): String</text><text fill="#000000" font-family="sans-serif" font-size="14" lengthAdjust="spacing" textLength="222" x="874" y="1279.2451">+greater(Value value): boolean</text><text fill="#000000" font-family="sans-serif" font-size="14" lengthAdjust="spacing" textLength="181" x="874" y="1295.542">+next(int amount): Value</text><text fill="#000000" font-family="sans-serif" font-size="14" lengthAdjust="spacing" textLength="97" x="874" y="1311.8389">-next(): Value</text></g><!--class Gamble--><g id="elem_Gamble"><rect codeLine="80" fill="#FFFFFF" height="145.7813" id="Gamble" rx="2.5" ry="2.5" style="stroke:#181818;stroke-width:0.5;" width="477" x="746.5" y="411"/><ellipse cx="952.75" cy="427" fill="#ADD1B2" rx="11" ry="11" style="stroke:#181818;stroke-width:1.0;"/><path d="M955.0938,422.6719 C954.1563,422.2344 953.5625,422.0938 952.6875,422.0938 C950.0625,422.0938 948.0625,424.1719 948.0625,426.8906 L948.0625,428.0156 C948.0625,430.5938 950.1719,432.4844 953.0625,432.4844 C954.2813,432.4844 955.4375,432.1875 956.1875,431.6406 C956.7656,431.2344 957.0938,430.7813 957.0938,430.3906 C957.0938,429.9375 956.7031,429.5469 956.2344,429.5469 C956.0156,429.5469 955.8125,429.625 955.625,429.8125 C955.1719,430.2969 955.1719,430.2969 954.9844,430.3906 C954.5625,430.6563 953.875,430.7813 953.1094,430.7813 C951.0625,430.7813 949.7656,429.6875 949.7656,427.9844 L949.7656,426.8906 C949.7656,425.1094 951.0156,423.7969 952.75,423.7969 C953.3281,423.7969 953.9375,423.9531 954.4063,424.2031 C954.8906,424.4844 955.0625,424.7031 955.1563,425.1094 C955.2188,425.5156 955.25,425.6406 955.3906,425.7656 C955.5313,425.9063 955.7656,426.0156 955.9844,426.0156 C956.25,426.0156 956.5156,425.875 956.6875,425.6563 C956.7969,425.5 956.8281,425.3125 956.8281,424.8906 L956.8281,423.4688 C956.8281,423.0313 956.8125,422.9063 956.7188,422.75 C956.5625,422.4844 956.2813,422.3438 955.9844,422.3438 C955.6875,422.3438 955.4844,422.4375 955.2656,422.75 L955.0938,422.6719 Z " fill="#000000"/><text fill="#000000" font-family="sans-serif" font-size="14" lengthAdjust="spacing" textLength="56" x="973.25" y="431.8467">Gamble</text><line style="stroke:#181818;stroke-width:0.5;" x1="747.5" x2="1222.5" y1="443" y2="443"/><text fill="#000000" font-family="sans-serif" font-size="14" lengthAdjust="spacing" textLength="203" x="752.5" y="459.9951">#gambleType: GambleType</text><text fill="#000000" font-family="sans-serif" font-size="14" lengthAdjust="spacing" textLength="205" x="752.5" y="476.292">-orderedValues: List&lt;Value&gt;</text><line style="stroke:#181818;stroke-width:0.5;" x1="747.5" x2="1222.5" y1="483.5938" y2="483.5938"/><text fill="#000000" font-family="sans-serif" font-size="14" lengthAdjust="spacing" textLength="465" x="752.5" y="500.5889">+Gamble(GambleType gambleType, List&lt;Value&gt; orderedValues)</text><text fill="#000000" font-family="sans-serif" font-size="14" lengthAdjust="spacing" textLength="291" x="752.5" y="516.8857">+whoIsWinner(Gamble gamble): Gamble</text><text fill="#000000" font-family="sans-serif" font-size="14" lengthAdjust="spacing" textLength="452" x="752.5" y="533.1826">-whoIsWinnerWithSameGambleType(Gamble gamble): Gamble</text><text fill="#000000" font-family="sans-serif" font-size="14" lengthAdjust="spacing" textLength="134" x="752.5" y="549.4795">+toString(): String</text></g><!--class PlayerStatistics--><g id="elem_PlayerStatistics"><rect codeLine="89" fill="#FFFFFF" height="227.2656" id="PlayerStatistics" rx="2.5" ry="2.5" style="stroke:#181818;stroke-width:0.5;" width="338" x="1259" y="370.5"/><ellipse cx="1367.75" cy="386.5" fill="#ADD1B2" rx="11" ry="11" style="stroke:#181818;stroke-width:1.0;"/><path d="M1370.0938,382.1719 C1369.1563,381.7344 1368.5625,381.5938 1367.6875,381.5938 C1365.0625,381.5938 1363.0625,383.6719 1363.0625,386.3906 L1363.0625,387.5156 C1363.0625,390.0938 1365.1719,391.9844 1368.0625,391.9844 C1369.2813,391.9844 1370.4375,391.6875 1371.1875,391.1406 C1371.7656,390.7344 1372.0938,390.2813 1372.0938,389.8906 C1372.0938,389.4375 1371.7031,389.0469 1371.2344,389.0469 C1371.0156,389.0469 1370.8125,389.125 1370.625,389.3125 C1370.1719,389.7969 1370.1719,389.7969 1369.9844,389.8906 C1369.5625,390.1563 1368.875,390.2813 1368.1094,390.2813 C1366.0625,390.2813 1364.7656,389.1875 1364.7656,387.4844 L1364.7656,386.3906 C1364.7656,384.6094 1366.0156,383.2969 1367.75,383.2969 C1368.3281,383.2969 1368.9375,383.4531 1369.4063,383.7031 C1369.8906,383.9844 1370.0625,384.2031 1370.1563,384.6094 C1370.2188,385.0156 1370.25,385.1406 1370.3906,385.2656 C1370.5313,385.4063 1370.7656,385.5156 1370.9844,385.5156 C1371.25,385.5156 1371.5156,385.375 1371.6875,385.1563 C1371.7969,385 1371.8281,384.8125 1371.8281,384.3906 L1371.8281,382.9688 C1371.8281,382.5313 1371.8125,382.4063 1371.7188,382.25 C1371.5625,381.9844 1371.2813,381.8438 1370.9844,381.8438 C1370.6875,381.8438 1370.4844,381.9375 1370.2656,382.25 L1370.0938,382.1719 Z " fill="#000000"/><text fill="#000000" font-family="sans-serif" font-size="14" lengthAdjust="spacing" textLength="112" x="1388.25" y="391.3467">PlayerStatistics</text><line style="stroke:#181818;stroke-width:0.5;" x1="1260" x2="1596" y1="402.5" y2="402.5"/><text fill="#000000" font-family="sans-serif" font-size="14" lengthAdjust="spacing" textLength="124" x="1265" y="419.4951">-valuesCont: int[]</text><text fill="#000000" font-family="sans-serif" font-size="14" lengthAdjust="spacing" textLength="122" x="1265" y="435.792">-suitesCont: int[]</text><line style="stroke:#181818;stroke-width:0.5;" x1="1260" x2="1596" y1="443.0938" y2="443.0938"/><text fill="#000000" font-family="sans-serif" font-size="14" lengthAdjust="spacing" textLength="275" x="1265" y="460.0889">+PlayerStatistics(List&lt;Card&gt; cardList)</text><text fill="#000000" font-family="sans-serif" font-size="14" lengthAdjust="spacing" textLength="161" x="1265" y="476.3857">+getMaxValue(): Value</text><text fill="#000000" font-family="sans-serif" font-size="14" lengthAdjust="spacing" textLength="270" x="1265" y="492.6826">+hasSameValue(int amount): boolean</text><text fill="#000000" font-family="sans-serif" font-size="14" lengthAdjust="spacing" textLength="269" x="1265" y="508.9795">+hasSameColor(int amount): boolean</text><text fill="#000000" font-family="sans-serif" font-size="14" lengthAdjust="spacing" textLength="175" x="1265" y="525.2764">+hasTwoPairs(): boolean</text><text fill="#000000" font-family="sans-serif" font-size="14" lengthAdjust="spacing" textLength="326" x="1265" y="541.5732">+getOrderedValues(int amount): List&lt;Value&gt;</text><text fill="#000000" font-family="sans-serif" font-size="14" lengthAdjust="spacing" textLength="247" x="1265" y="557.8701">+getOrderedValues(): List&lt;Value&gt;</text><text fill="#000000" font-family="sans-serif" font-size="14" lengthAdjust="spacing" textLength="263" x="1265" y="574.167">+hasStairStart(Value value): boolean</text><text fill="#000000" font-family="sans-serif" font-size="14" lengthAdjust="spacing" textLength="146" x="1265" y="590.4639">+hasStair(): boolean</text></g><!--reverse link Deck to Card--><g id="link_Deck_Card"><path codeLine="123" d="M1687.1468,543.4205 C1663.5168,588.1715 1633.35,645.288 1605.35,698.308 " fill="none" id="Deck-backto-Card" style="stroke:#181818;stroke-width:1.0;"/><polygon fill="#181818" points="1692.75,532.809,1686.4112,536.247,1687.1468,543.4205,1693.4856,539.9825,1692.75,532.809" style="stroke:#181818;stroke-width:1.0;"/><text fill="#000000" font-family="sans-serif" font-size="13" lengthAdjust="spacing" textLength="7" x="1601.8101" y="687.4782">*</text></g><!--reverse link Player to Card--><g id="link_Player_Card"><path codeLine="125" d="M1676.5535,194.1622 C1734.8135,240.2222 1789.34,296.22 1821,370.5 C1860.56,463.31 1867.55,507.989 1821,597.5 C1790.65,655.874 1731.88,699.345 1678.1,729.034 " fill="none" id="Player-backto-Card" style="stroke:#181818;stroke-width:1.0;"/><polygon fill="#181818" points="1667.14,186.72,1669.366,193.5789,1676.5535,194.1622,1674.3275,187.3033,1667.14,186.72" style="stroke:#181818;stroke-width:1.0;"/><text fill="#000000" font-family="sans-serif" font-size="13" lengthAdjust="spacing" textLength="7" x="1686.0684" y="722.2081">*</text></g><!--link Player to Gamble--><g id="link_Player_Gamble"><path codeLine="126" d="M1501.1,186.58 C1469.56,235.95 1423.07,296.81 1367,334.5 C1318.66,366.988 1295.79,350.739 1241,370.5 C1207.89,382.442 1178.51,394.2682 1145.51,408.4912 " fill="none" id="Player-to-Gamble" style="stroke:#181818;stroke-width:1.0;"/><polygon fill="#181818" points="1140,410.866,1149.8482,410.9771,1144.5917,408.887,1146.6818,403.6304,1140,410.866" style="stroke:#181818;stroke-width:1.0;"/></g><!--reverse link Player to PlayerStatistics--><g id="link_Player_PlayerStatistics"><path codeLine="127" d="M1554.6149,198.7106 C1556.3849,243.4006 1553.47,287.38 1537,334.5 C1532.73,346.727 1527.08,358.801 1520.59,370.466 " fill="none" id="Player-backto-PlayerStatistics" style="stroke:#181818;stroke-width:1.0;"/><polygon fill="#181818" points="1554.14,186.72,1550.3806,192.8736,1554.6149,198.7106,1558.3743,192.557,1554.14,186.72" style="stroke:#181818;stroke-width:1.0;"/></g><!--reverse link Player to GambleAnalyzer--><g id="link_Player_GambleAnalyzer"><path codeLine="128" d="M1398.95,105.5 C1367.4,105.5 1347.84,105.5 1316.29,105.5 " fill="none" id="Player-backto-GambleAnalyzer" style="stroke:#181818;stroke-width:1.0;"/><polygon fill="#181818" points="1410.95,105.5,1404.95,101.5,1398.95,105.5,1404.95,109.5,1410.95,105.5" style="stroke:#181818;stroke-width:1.0;"/></g><!--link PlayerStatistics to Card--><g id="link_PlayerStatistics_Card"><path codeLine="130" d="M1479.81,597.635 C1495.27,631.26 1509.3921,661.9633 1523.6921,693.0433 " fill="none" id="PlayerStatistics-to-Card" style="stroke:#181818;stroke-width:1.0;"/><polygon fill="#181818" points="1526.2,698.494,1526.072,688.646,1524.1101,693.9517,1518.8043,691.9898,1526.2,698.494" style="stroke:#181818;stroke-width:1.0;"/><text fill="#000000" font-family="sans-serif" font-size="13" lengthAdjust="spacing" textLength="7" x="1515.4848" y="687.4043">*</text></g><!--reverse link PlayerStatistics to Value--><g id="link_PlayerStatistics_Value"><path codeLine="131" d="M1345.1236,607.4506 C1276.4736,708.8736 1181.2,849.63 1102.17,966.392 " fill="none" id="PlayerStatistics-backto-Value" style="stroke:#181818;stroke-width:1.0;"/><polygon fill="#181818" points="1351.85,597.513,1345.1743,600.2396,1345.1236,607.4506,1351.7993,604.7239,1351.85,597.513" style="stroke:#181818;stroke-width:1.0;"/><text fill="#000000" font-family="sans-serif" font-size="13" lengthAdjust="spacing" textLength="7" x="1109.9004" y="951.8404">*</text></g><!--link Gamble to GambleType--><g id="link_Gamble_GambleType"><path codeLine="133" d="M927.457,557.174 C903.37,587.386 878.4433,618.6505 851.2933,652.7045 " fill="none" id="Gamble-to-GambleType" style="stroke:#181818;stroke-width:1.0;"/><polygon fill="#181818" points="847.553,657.396,856.2912,652.8524,850.6699,653.4864,850.0359,647.8652,847.553,657.396" style="stroke:#181818;stroke-width:1.0;"/></g><!--link Gamble to Value--><g id="link_Gamble_Value"><path codeLine="134" d="M985,557.229 C985,653.889 985,822.538 985,955.429 " fill="none" id="Gamble-to-Value" style="stroke:#181818;stroke-width:1.0;"/><polygon fill="#181818" points="985,961.429,989,952.429,985,956.429,981,952.429,985,961.429" style="stroke:#181818;stroke-width:1.0;"/><text fill="#000000" font-family="sans-serif" font-size="13" lengthAdjust="spacing" textLength="7" x="977.8523" y="950.6353">*</text></g><!--link Card to Value--><g id="link_Card_Value"><path codeLine="136" d="M1447.77,852.071 C1347.49,914.357 1207.8969,1001.0543 1107.0969,1063.6623 " fill="none" id="Card-to-Value" style="stroke:#181818;stroke-width:1.0;"/><polygon fill="#181818" points="1102,1066.828,1111.7558,1065.4773,1106.2474,1064.1899,1107.5348,1058.6815,1102,1066.828" style="stroke:#181818;stroke-width:1.0;"/></g><!--link Card to Suite--><g id="link_Card_Suite"><path codeLine="137" d="M1563,860.62 C1563,914.452 1563,979.699 1563,1036.704 " fill="none" id="Card-to-Suite" style="stroke:#181818;stroke-width:1.0;"/><polygon fill="#181818" points="1563,1042.704,1567,1033.704,1563,1037.704,1559,1033.704,1563,1042.704" style="stroke:#181818;stroke-width:1.0;"/></g><!--link GambleAnalyzer to Gamble--><g id="link_GambleAnalyzer_Gamble"><path codeLine="139" d="M1258.61,170.03 C1288.38,190.02 1315.81,215.26 1333,246.5 C1351.86,280.77 1355.05,302.2 1333,334.5 C1308.25,370.766 1281.55,353.664 1241,370.5 C1210.29,383.251 1183.1801,394.8352 1151.8901,408.4762 " fill="none" id="GambleAnalyzer-to-Gamble" style="stroke:#181818;stroke-width:1.0;"/><polygon fill="#181818" points="1146.39,410.874,1156.2386,410.944,1150.9734,408.8759,1153.0416,403.6106,1146.39,410.874" style="stroke:#181818;stroke-width:1.0;"/></g><!--link GambleAnalyzer to PlayerStatistics--><g id="link_GambleAnalyzer_PlayerStatistics"><path codeLine="140" d="M1275.02,170.12 C1309.5,190.08 1342.75,215.29 1367,246.5 C1394.38,281.74 1408.3923,322.0947 1416.7723,364.3317 " fill="none" id="GambleAnalyzer-to-PlayerStatistics" style="stroke:#181818;stroke-width:1.0;"/><polygon fill="#181818" points="1417.94,370.217,1420.112,360.6106,1416.9669,365.3126,1412.265,362.1675,1417.94,370.217" style="stroke:#181818;stroke-width:1.0;"/></g><!--reverse link GambleAnalyzer to CartaAltaAnalyzer--><g id="link_GambleAnalyzer_CartaAltaAnalyzer"><path codeLine="141" d="M1112,182.17 C1112,208.19 1112,225.1 1112,246.35 " fill="none" id="GambleAnalyzer-backto-CartaAltaAnalyzer" style="stroke:#181818;stroke-width:1.0;"/><polygon fill="#181818" points="1112,170.17,1108,176.17,1112,182.17,1116,176.17,1112,170.17" style="stroke:#181818;stroke-width:1.0;"/></g><!--reverse link GambleAnalyzer to DobleParejaAnalyzer--><g id="link_GambleAnalyzer_DobleParejaAnalyzer"><path codeLine="142" d="M896.1175,148.1645 C737.7035,178.7445 532.922,218.26 386.698,246.48 " fill="none" id="GambleAnalyzer-backto-DobleParejaAnalyzer" style="stroke:#181818;stroke-width:1.0;"/><polygon fill="#181818" points="907.9,145.89,901.2506,143.0997,896.1175,148.1645,902.7669,150.9547,907.9,145.89" style="stroke:#181818;stroke-width:1.0;"/></g><!--reverse link GambleAnalyzer to ParejaAnalyzer--><g id="link_GambleAnalyzer_ParejaAnalyzer"><path codeLine="143" d="M936.1632,174.3716 C868.6042,200.4516 804.67,225.13 749.508,246.42 " fill="none" id="GambleAnalyzer-backto-ParejaAnalyzer" style="stroke:#181818;stroke-width:1.0;"/><polygon fill="#181818" points="947.358,170.05,940.3201,168.4792,936.1632,174.3716,943.2011,175.9424,947.358,170.05" style="stroke:#181818;stroke-width:1.0;"/></g><!--link CartaAltaAnalyzer to PlayerStatistics--><g id="link_CartaAltaAnalyzer_PlayerStatistics"><path codeLine="145" d="M1160.34,310.63 C1187.31,327.998 1217.6453,347.5367 1253.8153,370.8267 " fill="none" id="CartaAltaAnalyzer-to-PlayerStatistics" style="stroke:#181818;stroke-width:1.0;"/><polygon fill="#181818" points="1258.86,374.075,1253.4585,365.8395,1254.6561,371.3681,1249.1275,372.5657,1258.86,374.075" style="stroke:#181818;stroke-width:1.0;"/></g><!--reverse link CartaAltaAnalyzer to Gamble--><g id="link_CartaAltaAnalyzer_Gamble"><path codeLine="146" d="M1086.0769,321.0303 C1069.5169,347.5663 1051.5,376.449 1030.15,410.66 " fill="none" id="CartaAltaAnalyzer-backto-Gamble" style="stroke:#181818;stroke-width:1.0;"/><polygon fill="#181818" points="1092.43,310.85,1085.86,313.8224,1086.0769,321.0303,1092.6469,318.0578,1092.43,310.85" style="stroke:#181818;stroke-width:1.0;"/></g><!--link CartaAltaAnalyzer to GambleType--><g id="link_CartaAltaAnalyzer_GambleType"><path codeLine="147" d="M988.825,310.55 C956.692,318.5 922.078,326.941 890,334.5 C818.632,351.317 774.842,313.28 729,370.5 C665.357,449.945 678.344,562.7505 703.483,651.6275 " fill="none" id="CartaAltaAnalyzer-to-GambleType" style="stroke:#181818;stroke-width:1.0;"/><polygon fill="#181818" points="705.116,657.401,706.5154,647.6521,703.7551,652.5898,698.8174,649.8295,705.116,657.401" style="stroke:#181818;stroke-width:1.0;"/></g><!--link DobleParejaAnalyzer to PlayerStatistics--><g id="link_DobleParejaAnalyzer_PlayerStatistics"><path codeLine="149" d="M332.497,310.54 C368.549,319.833 409.244,329.002 447,334.5 C621.782,359.953 1071.92,319.41 1241,370.5 C1246.98,372.308 1247.3521,372.2441 1253.3221,374.4831 " fill="none" id="DobleParejaAnalyzer-to-PlayerStatistics" style="stroke:#181818;stroke-width:1.0;"/><polygon fill="#181818" points="1258.94,376.59,1251.9178,369.6843,1254.2584,374.8342,1249.1085,377.1748,1258.94,376.59" style="stroke:#181818;stroke-width:1.0;"/></g><!--reverse link DobleParejaAnalyzer to Gamble--><g id="link_DobleParejaAnalyzer_Gamble"><path codeLine="150" d="M353.2797,313.6274 C460.3457,342.3314 611.27,382.797 746.164,418.964 " fill="none" id="DobleParejaAnalyzer-backto-Gamble" style="stroke:#181818;stroke-width:1.0;"/><polygon fill="#181818" points="341.689,310.52,346.4485,315.9373,353.2797,313.6274,348.5201,308.2101,341.689,310.52" style="stroke:#181818;stroke-width:1.0;"/></g><!--link DobleParejaAnalyzer to GambleType--><g id="link_DobleParejaAnalyzer_GambleType"><path codeLine="151" d="M268.712,310.7 C291.335,327.727 319.271,349.553 343,370.5 C446.823,462.153 553.3476,569.4721 633.1956,652.7911 " fill="none" id="DobleParejaAnalyzer-to-GambleType" style="stroke:#181818;stroke-width:1.0;"/><polygon fill="#181818" points="637.347,657.123,634.0078,647.8575,633.8875,653.5131,628.2319,653.3928,637.347,657.123" style="stroke:#181818;stroke-width:1.0;"/></g><!--link DobleParejaAnalyzer to Value--><g id="link_DobleParejaAnalyzer_Value"><path codeLine="152" d="M231.819,310.79 C251.996,410.848 328.035,726.72 512,901.5 C614.467,998.851 758.8233,1063.0744 862.3003,1100.4764 " fill="none" id="DobleParejaAnalyzer-to-Value" style="stroke:#181818;stroke-width:1.0;"/><polygon fill="#181818" points="867.943,1102.516,860.8387,1095.6948,863.2407,1100.8164,858.1192,1103.2185,867.943,1102.516" style="stroke:#181818;stroke-width:1.0;"/><text fill="#000000" font-family="sans-serif" font-size="13" lengthAdjust="spacing" textLength="7" x="852.8431" y="1112.5513">*</text></g><!--link ParejaAnalyzer to PlayerStatistics--><g id="link_ParejaAnalyzer_PlayerStatistics"><path codeLine="154" d="M780.488,310.51 C815.338,319.32 854.071,328.219 890,334.5 C1044.48,361.504 1092.24,320.887 1241,370.5 C1246.93,372.478 1247.2975,372.4437 1253.2275,374.8107 " fill="none" id="ParejaAnalyzer-to-PlayerStatistics" style="stroke:#181818;stroke-width:1.0;"/><polygon fill="#181818" points="1258.8,377.035,1251.9241,369.9836,1254.1563,375.1814,1248.9584,377.4135,1258.8,377.035" style="stroke:#181818;stroke-width:1.0;"/></g><!--reverse link ParejaAnalyzer to Gamble--><g id="link_ParejaAnalyzer_Gamble"><path codeLine="155" d="M727.4271,317.1269 C768.7481,343.7359 819.726,376.566 873.101,410.939 " fill="none" id="ParejaAnalyzer-backto-Gamble" style="stroke:#181818;stroke-width:1.0;"/><polygon fill="#181818" points="717.338,310.63,720.2169,317.2415,727.4271,317.1269,724.5482,310.5154,717.338,310.63" style="stroke:#181818;stroke-width:1.0;"/></g><!--link ParejaAnalyzer to GambleType--><g id="link_ParejaAnalyzer_GambleType"><path codeLine="156" d="M664.283,310.68 C656.571,368.193 644.27,494.529 667,597.5 C671.406,617.459 675.9895,632.2709 683.9025,651.8069 " fill="none" id="ParejaAnalyzer-to-GambleType" style="stroke:#181818;stroke-width:1.0;"/><polygon fill="#181818" points="686.155,657.368,686.4836,647.5246,684.2779,652.7337,679.0688,650.528,686.155,657.368" style="stroke:#181818;stroke-width:1.0;"/></g><!--link ParejaAnalyzer to Value--><g id="link_ParejaAnalyzer_Value"><path codeLine="157" d="M650.302,310.54 C595.431,406.006 445.872,700.97 563,901.5 C628.119,1012.988 761.1652,1074.484 861.8332,1107.347 " fill="none" id="ParejaAnalyzer-to-Value" style="stroke:#181818;stroke-width:1.0;"/><polygon fill="#181818" points="867.537,1109.209,860.2227,1102.6135,862.7839,1107.6573,857.74,1110.2185,867.537,1109.209" style="stroke:#181818;stroke-width:1.0;"/><text fill="#000000" font-family="sans-serif" font-size="13" lengthAdjust="spacing" textLength="7" x="853.1658" y="1103.9271">*</text></g><!--SRC=[hLRRRfj047tkViKgVN7Y8FNPgY9jC6cfY7419sggAjhOAvi6WmlhEXVrtpjx0PPRKgdnWytCd9avEvV5nNsSxcXEjzXEQ56Sq-NzEi_swShEaYp7XqtC6Iegq5A02ETvVBVdp5rcQHW_CVm15PliW9TnlamOGXA5fsnvZv_HUxoa-SgB2px1ulkZ3U8P6alxw1WUremBtUXuWiKl-bD64194i72n1neJ78eV47_JP0_YbVW1V-aiRGfugYmA9XFaZ7AMZsGymGOotMLPmcYgqakyo5-619qCA7GgwnZpB8Hpfskfaq-2AKltM_o9RkyI5Ztk6D2rIH2HM-951Cr9u7mXQEgVUywj5gB0zP4JsiHp0e9it_C3TB7mF3JtlowSe3BTAbCb1WxnW0NxjQT9CJ8ohgl7vh7qeLz3LjMU9_IHvRBUlHspjFz47nToA1VPHBfQ6VK5nM6JkSLrdAO0qA5tyWToAxc_ffOelieWj3fNMMdLPYYo7v0RV-Q4QEgIIpABu6dksYI4-ZhdlWUYXNdC1Tqgi6gf4fNn6BGfU-1cdo5z96m6fx42nId7T0lRmIjuoKiEpZDqMX88aRqWKU0ZsvtPFWeTDqIXwqGEyktFFfejd2i7Y3ito9rT2F8eSDmPWUzlYFGnLmFQP3x0jEoxkGFcN7HFeeQ-BeIIgxbG7P2RN0_Gn9XvSCto5SlPIdeMUcga81PTDxDt44zDR3DCUuWq3-LRJuPbWgvZlWdfbjMvXjo6zjdSXP1J3kpYPI6tGjQoiBCKzW8A-Fr7UJCrTEEEywXUecgpTFikwKFdxjdGGXn1wHkDgfkeCVAIVW4J7R8vZVDYrBxmVBFGpG3DtdMm7OIWmY49VELySEfArAXvy-pWVKFN3DEK9ezFB1U5nl0n9uzecpQ9ZuLN6LZcD6S_QMcVu6bNQRZiMkX18FI8Kv9m0sktLUYTm8vR5E4cBCECZMkiCqsxbg8UI-4ATQbhqCcio_1VyUlmpIAyRUoUThn50YYF_6jnOgqiV7HofFuq8FsEQMgrqigjipA8YMldhesjnfRX3PhWVzPEP9Wh7cgjaRw6f9TnTPfg0otVf5Af5BMiNZkejHhryRg6pY5R4CcqE-1zgBu5wyEr8AWxnF8i7MPTd0odZpOGnQWcwXkv_bHzI3FPO2GZtI36wEG_aNc1noiKNip-5m00]--></g></svg>