<?xml version="1.0" encoding="us-ascii" standalone="no"?><svg xmlns="http://www.w3.org/2000/svg" xmlns:xlink="http://www.w3.org/1999/xlink" contentStyleType="text/css" height="994px" preserveAspectRatio="none" style="width:928px;height:994px;background:#FFFFFF;" version="1.1" viewBox="0 0 928 994" width="928px" zoomAndPan="magnify"><defs/><g><!--class Deck--><g id="elem_Deck"><rect codeLine="5" fill="#FFFFFF" height="96.8906" id="Deck" rx="2.5" ry="2.5" style="stroke:#181818;stroke-width:0.5;" width="171" x="7" y="129"/><ellipse cx="69.75" cy="145" fill="#ADD1B2" rx="11" ry="11" style="stroke:#181818;stroke-width:1.0;"/><path d="M72.0938,140.6719 C71.1563,140.2344 70.5625,140.0938 69.6875,140.0938 C67.0625,140.0938 65.0625,142.1719 65.0625,144.8906 L65.0625,146.0156 C65.0625,148.5938 67.1719,150.4844 70.0625,150.4844 C71.2813,150.4844 72.4375,150.1875 73.1875,149.6406 C73.7656,149.2344 74.0938,148.7813 74.0938,148.3906 C74.0938,147.9375 73.7031,147.5469 73.2344,147.5469 C73.0156,147.5469 72.8125,147.625 72.625,147.8125 C72.1719,148.2969 72.1719,148.2969 71.9844,148.3906 C71.5625,148.6563 70.875,148.7813 70.1094,148.7813 C68.0625,148.7813 66.7656,147.6875 66.7656,145.9844 L66.7656,144.8906 C66.7656,143.1094 68.0156,141.7969 69.75,141.7969 C70.3281,141.7969 70.9375,141.9531 71.4063,142.2031 C71.8906,142.4844 72.0625,142.7031 72.1563,143.1094 C72.2188,143.5156 72.25,143.6406 72.3906,143.7656 C72.5313,143.9063 72.7656,144.0156 72.9844,144.0156 C73.25,144.0156 73.5156,143.875 73.6875,143.6563 C73.7969,143.5 73.8281,143.3125 73.8281,142.8906 L73.8281,141.4688 C73.8281,141.0313 73.8125,140.9063 73.7188,140.75 C73.5625,140.4844 73.2813,140.3438 72.9844,140.3438 C72.6875,140.3438 72.4844,140.4375 72.2656,140.75 L72.0938,140.6719 Z " fill="#000000"/><text fill="#000000" font-family="sans-serif" font-size="14" lengthAdjust="spacing" textLength="37" x="90.25" y="149.8467">Deck</text><line style="stroke:#181818;stroke-width:0.5;" x1="8" x2="177" y1="161" y2="161"/><text fill="#000000" font-family="sans-serif" font-size="14" lengthAdjust="spacing" textLength="159" x="13" y="177.9951">#cardList: List&lt;Card&gt;</text><line style="stroke:#181818;stroke-width:0.5;" x1="8" x2="177" y1="185.2969" y2="185.2969"/><text fill="#000000" font-family="sans-serif" font-size="14" lengthAdjust="spacing" textLength="58" x="13" y="202.292">+Deck()</text><text fill="#000000" font-family="sans-serif" font-size="14" lengthAdjust="spacing" textLength="121" x="13" y="218.5889">+getCard(): Card</text></g><!--class Card--><g id="elem_Card"><rect codeLine="11" fill="#FFFFFF" height="162.0781" id="Card" rx="2.5" ry="2.5" style="stroke:#181818;stroke-width:0.5;" width="230" x="56.5" y="408"/><ellipse cx="150.75" cy="424" fill="#ADD1B2" rx="11" ry="11" style="stroke:#181818;stroke-width:1.0;"/><path d="M153.0938,419.6719 C152.1563,419.2344 151.5625,419.0938 150.6875,419.0938 C148.0625,419.0938 146.0625,421.1719 146.0625,423.8906 L146.0625,425.0156 C146.0625,427.5938 148.1719,429.4844 151.0625,429.4844 C152.2813,429.4844 153.4375,429.1875 154.1875,428.6406 C154.7656,428.2344 155.0938,427.7813 155.0938,427.3906 C155.0938,426.9375 154.7031,426.5469 154.2344,426.5469 C154.0156,426.5469 153.8125,426.625 153.625,426.8125 C153.1719,427.2969 153.1719,427.2969 152.9844,427.3906 C152.5625,427.6563 151.875,427.7813 151.1094,427.7813 C149.0625,427.7813 147.7656,426.6875 147.7656,424.9844 L147.7656,423.8906 C147.7656,422.1094 149.0156,420.7969 150.75,420.7969 C151.3281,420.7969 151.9375,420.9531 152.4063,421.2031 C152.8906,421.4844 153.0625,421.7031 153.1563,422.1094 C153.2188,422.5156 153.25,422.6406 153.3906,422.7656 C153.5313,422.9063 153.7656,423.0156 153.9844,423.0156 C154.25,423.0156 154.5156,422.875 154.6875,422.6563 C154.7969,422.5 154.8281,422.3125 154.8281,421.8906 L154.8281,420.4688 C154.8281,420.0313 154.8125,419.9063 154.7188,419.75 C154.5625,419.4844 154.2813,419.3438 153.9844,419.3438 C153.6875,419.3438 153.4844,419.4375 153.2656,419.75 L153.0938,419.6719 Z " fill="#000000"/><text fill="#000000" font-family="sans-serif" font-size="14" lengthAdjust="spacing" textLength="33" x="171.25" y="428.8467">Card</text><line style="stroke:#181818;stroke-width:0.5;" x1="57.5" x2="285.5" y1="440" y2="440"/><text fill="#000000" font-family="sans-serif" font-size="14" lengthAdjust="spacing" textLength="87" x="62.5" y="456.9951">-suite: Suite</text><text fill="#000000" font-family="sans-serif" font-size="14" lengthAdjust="spacing" textLength="91" x="62.5" y="473.292">-value: Value</text><line style="stroke:#181818;stroke-width:0.5;" x1="57.5" x2="285.5" y1="480.5938" y2="480.5938"/><text fill="#000000" font-family="sans-serif" font-size="14" lengthAdjust="spacing" textLength="218" x="62.5" y="497.5889">+Card(Suite suite, Value value)</text><text fill="#000000" font-family="sans-serif" font-size="14" lengthAdjust="spacing" textLength="210" x="62.5" y="513.8857">+greater(Card card): boolean</text><text fill="#000000" font-family="sans-serif" font-size="14" lengthAdjust="spacing" textLength="133" x="62.5" y="530.1826">+getValue(): Value</text><text fill="#000000" font-family="sans-serif" font-size="14" lengthAdjust="spacing" textLength="129" x="62.5" y="546.4795">+getSuite(): Suite</text><text fill="#000000" font-family="sans-serif" font-size="14" lengthAdjust="spacing" textLength="134" x="62.5" y="562.7764">+toString(): String</text></g><!--class GambleType--><g id="elem_GambleType"><rect codeLine="21" fill="#FFFFFF" height="243.5625" id="GambleType" rx="2.5" ry="2.5" style="stroke:#181818;stroke-width:0.5;" width="340" x="581.5" y="55.5"/><ellipse cx="701.25" cy="71.5" fill="#EB937F" rx="11" ry="11" style="stroke:#181818;stroke-width:1.0;"/><path d="M700.0469,72.375 L701.5,72.375 L701.5,72.4844 C701.5,72.8906 701.5313,73.0469 701.6094,73.2031 C701.7656,73.4531 702.0469,73.6094 702.3438,73.6094 C702.5938,73.6094 702.8594,73.4688 703.0156,73.25 C703.1406,73.0938 703.1719,72.9375 703.1719,72.4844 L703.1719,70.5625 C703.1719,70.4063 703.1719,70.3594 703.1563,70.2031 C703.0938,69.7344 702.7813,69.4219 702.3281,69.4219 C702.0781,69.4219 701.8125,69.5625 701.6406,69.7813 C701.5313,69.9531 701.5,70.1094 701.5,70.5625 L701.5,70.6875 L700.0469,70.6875 L700.0469,68.2813 L704.0313,68.2813 L704.0313,69.1406 C704.0313,69.5469 704.0625,69.7188 704.1406,69.875 C704.3125,70.125 704.5938,70.2813 704.875,70.2813 C705.1406,70.2813 705.4063,70.1406 705.5781,69.9219 C705.6875,69.75 705.7188,69.6094 705.7188,69.1406 L705.7188,66.5938 L698.0938,66.5938 C697.6563,66.5938 697.5313,66.6094 697.375,66.7031 C697.125,66.8594 696.9688,67.1563 696.9688,67.4375 C696.9688,67.7188 697.1094,67.9688 697.3281,68.1406 C697.4844,68.25 697.6719,68.2813 698.0938,68.2813 L698.3438,68.2813 L698.3438,74.7969 L698.0938,74.7969 C697.6875,74.7969 697.5313,74.8125 697.375,74.9219 C697.125,75.0938 696.9688,75.3594 696.9688,75.6563 C696.9688,75.9219 697.1094,76.1719 697.3281,76.3281 C697.4688,76.4531 697.7031,76.5 698.0938,76.5 L706.0938,76.5 L706.0938,73.9219 C706.0938,73.4844 706.0625,73.3438 705.9844,73.1875 C705.8125,72.9375 705.5313,72.7813 705.25,72.7813 C704.9844,72.7813 704.7188,72.8906 704.5469,73.1406 C704.4375,73.2969 704.4063,73.4375 704.4063,73.9219 L704.4063,74.7969 L700.0469,74.7969 L700.0469,72.375 Z " fill="#000000"/><text fill="#000000" font-family="sans-serif" font-size="14" lengthAdjust="spacing" textLength="92" x="721.75" y="76.3467">GambleType</text><line style="stroke:#181818;stroke-width:0.5;" x1="582.5" x2="920.5" y1="87.5" y2="87.5"/><text fill="#000000" font-family="sans-serif" font-size="14" lengthAdjust="spacing" textLength="93" x="587.5" y="104.4951">CARTA_ALTA</text><text fill="#000000" font-family="sans-serif" font-size="14" lengthAdjust="spacing" textLength="52" x="587.5" y="120.792">PAREJA</text><text fill="#000000" font-family="sans-serif" font-size="14" lengthAdjust="spacing" textLength="108" x="587.5" y="137.0889">DOBLE_PAREJA</text><text fill="#000000" font-family="sans-serif" font-size="14" lengthAdjust="spacing" textLength="34" x="587.5" y="153.3857">TRIO</text><text fill="#000000" font-family="sans-serif" font-size="14" lengthAdjust="spacing" textLength="75" x="587.5" y="169.6826">ESCALERA</text><text fill="#000000" font-family="sans-serif" font-size="14" lengthAdjust="spacing" textLength="50" x="587.5" y="185.9795">COLOR</text><text fill="#000000" font-family="sans-serif" font-size="14" lengthAdjust="spacing" textLength="33" x="587.5" y="202.2764">FULL</text><text fill="#000000" font-family="sans-serif" font-size="14" lengthAdjust="spacing" textLength="59" x="587.5" y="218.5732">POQUER</text><text fill="#000000" font-family="sans-serif" font-size="14" lengthAdjust="spacing" textLength="132" x="587.5" y="234.8701">ESCALERA_COLOR</text><text fill="#000000" font-family="sans-serif" font-size="14" lengthAdjust="spacing" textLength="119" x="587.5" y="251.167">ESCALERA_REAL</text><line style="stroke:#181818;stroke-width:0.5;" x1="582.5" x2="920.5" y1="258.4688" y2="258.4688"/><text fill="#000000" font-family="sans-serif" font-size="14" lengthAdjust="spacing" textLength="319" x="587.5" y="275.4639">+equals(GambleType gambleType): boolean</text><text fill="#000000" font-family="sans-serif" font-size="14" lengthAdjust="spacing" textLength="328" x="587.5" y="291.7607">+greater(GambleType gambleType): boolean</text></g><!--class Player--><g id="elem_Player"><rect codeLine="36" fill="#FFFFFF" height="341.3438" id="Player" rx="2.5" ry="2.5" style="stroke:#181818;stroke-width:0.5;" width="333" x="213" y="7"/><ellipse cx="353.25" cy="23" fill="#ADD1B2" rx="11" ry="11" style="stroke:#181818;stroke-width:1.0;"/><path d="M355.5938,18.6719 C354.6563,18.2344 354.0625,18.0938 353.1875,18.0938 C350.5625,18.0938 348.5625,20.1719 348.5625,22.8906 L348.5625,24.0156 C348.5625,26.5938 350.6719,28.4844 353.5625,28.4844 C354.7813,28.4844 355.9375,28.1875 356.6875,27.6406 C357.2656,27.2344 357.5938,26.7813 357.5938,26.3906 C357.5938,25.9375 357.2031,25.5469 356.7344,25.5469 C356.5156,25.5469 356.3125,25.625 356.125,25.8125 C355.6719,26.2969 355.6719,26.2969 355.4844,26.3906 C355.0625,26.6563 354.375,26.7813 353.6094,26.7813 C351.5625,26.7813 350.2656,25.6875 350.2656,23.9844 L350.2656,22.8906 C350.2656,21.1094 351.5156,19.7969 353.25,19.7969 C353.8281,19.7969 354.4375,19.9531 354.9063,20.2031 C355.3906,20.4844 355.5625,20.7031 355.6563,21.1094 C355.7188,21.5156 355.75,21.6406 355.8906,21.7656 C356.0313,21.9063 356.2656,22.0156 356.4844,22.0156 C356.75,22.0156 357.0156,21.875 357.1875,21.6563 C357.2969,21.5 357.3281,21.3125 357.3281,20.8906 L357.3281,19.4688 C357.3281,19.0313 357.3125,18.9063 357.2188,18.75 C357.0625,18.4844 356.7813,18.3438 356.4844,18.3438 C356.1875,18.3438 355.9844,18.4375 355.7656,18.75 L355.5938,18.6719 Z " fill="#000000"/><text fill="#000000" font-family="sans-serif" font-size="14" lengthAdjust="spacing" textLength="44" x="373.75" y="27.8467">Player</text><line style="stroke:#181818;stroke-width:0.5;" x1="214" x2="545" y1="39" y2="39"/><text fill="#000000" font-family="sans-serif" font-size="14" lengthAdjust="spacing" textLength="153" x="219" y="55.9951">-cardList: List&lt;Card&gt;</text><text fill="#000000" font-family="sans-serif" font-size="14" lengthAdjust="spacing" textLength="124" x="219" y="72.292">-valuesCont: int[]</text><text fill="#000000" font-family="sans-serif" font-size="14" lengthAdjust="spacing" textLength="122" x="219" y="88.5889">-suitesCont: int[]</text><text fill="#000000" font-family="sans-serif" font-size="14" lengthAdjust="spacing" textLength="197" x="219" y="104.8857">-gambleType: GambleType</text><text fill="#000000" font-family="sans-serif" font-size="14" lengthAdjust="spacing" textLength="205" x="219" y="121.1826">-orderedValues: List&lt;Value&gt;</text><line style="stroke:#181818;stroke-width:0.5;" x1="214" x2="545" y1="128.4844" y2="128.4844"/><text fill="#000000" font-family="sans-serif" font-size="14" lengthAdjust="spacing" textLength="65" x="219" y="145.4795">+Player()</text><text fill="#000000" font-family="sans-serif" font-size="14" lengthAdjust="spacing" textLength="115" x="219" y="161.7764">+add(Card card)</text><text fill="#000000" font-family="sans-serif" font-size="14" lengthAdjust="spacing" textLength="258" x="219" y="178.0732">+whoIsWinner(Player player): Player</text><text fill="#000000" font-family="sans-serif" font-size="14" lengthAdjust="spacing" textLength="134" x="219" y="194.3701">+toString(): String</text><text fill="#000000" font-family="sans-serif" font-size="14" lengthAdjust="spacing" textLength="131" x="219" y="210.667">-setGambleType()</text><text fill="#000000" font-family="sans-serif" font-size="14" lengthAdjust="spacing" textLength="156" x="219" y="226.9639">-getMaxValue(): Value</text><text fill="#000000" font-family="sans-serif" font-size="14" lengthAdjust="spacing" textLength="265" x="219" y="243.2607">-hasSameValue(int amount): boolean</text><text fill="#000000" font-family="sans-serif" font-size="14" lengthAdjust="spacing" textLength="264" x="219" y="259.5576">-hasSameColor(int amount): boolean</text><text fill="#000000" font-family="sans-serif" font-size="14" lengthAdjust="spacing" textLength="170" x="219" y="275.8545">-hasTwoPairs(): boolean</text><text fill="#000000" font-family="sans-serif" font-size="14" lengthAdjust="spacing" textLength="321" x="219" y="292.1514">-getOrderedValues(int amount): List&lt;Value&gt;</text><text fill="#000000" font-family="sans-serif" font-size="14" lengthAdjust="spacing" textLength="242" x="219" y="308.4482">-getOrderedValues(): List&lt;Value&gt;</text><text fill="#000000" font-family="sans-serif" font-size="14" lengthAdjust="spacing" textLength="258" x="219" y="324.7451">-hasStairStart(Value value): boolean</text><text fill="#000000" font-family="sans-serif" font-size="14" lengthAdjust="spacing" textLength="141" x="219" y="341.042">-hasStair(): boolean</text></g><!--class Suite--><g id="elem_Suite"><rect codeLine="57" fill="#FFFFFF" height="194.6719" id="Suite" rx="2.5" ry="2.5" style="stroke:#181818;stroke-width:0.5;" width="191" x="36" y="711.5"/><ellipse cx="108.75" cy="727.5" fill="#EB937F" rx="11" ry="11" style="stroke:#181818;stroke-width:1.0;"/><path d="M107.5469,728.375 L109,728.375 L109,728.4844 C109,728.8906 109.0313,729.0469 109.1094,729.2031 C109.2656,729.4531 109.5469,729.6094 109.8438,729.6094 C110.0938,729.6094 110.3594,729.4688 110.5156,729.25 C110.6406,729.0938 110.6719,728.9375 110.6719,728.4844 L110.6719,726.5625 C110.6719,726.4063 110.6719,726.3594 110.6563,726.2031 C110.5938,725.7344 110.2813,725.4219 109.8281,725.4219 C109.5781,725.4219 109.3125,725.5625 109.1406,725.7813 C109.0313,725.9531 109,726.1094 109,726.5625 L109,726.6875 L107.5469,726.6875 L107.5469,724.2813 L111.5313,724.2813 L111.5313,725.1406 C111.5313,725.5469 111.5625,725.7188 111.6406,725.875 C111.8125,726.125 112.0938,726.2813 112.375,726.2813 C112.6406,726.2813 112.9063,726.1406 113.0781,725.9219 C113.1875,725.75 113.2188,725.6094 113.2188,725.1406 L113.2188,722.5938 L105.5938,722.5938 C105.1563,722.5938 105.0313,722.6094 104.875,722.7031 C104.625,722.8594 104.4688,723.1563 104.4688,723.4375 C104.4688,723.7188 104.6094,723.9688 104.8281,724.1406 C104.9844,724.25 105.1719,724.2813 105.5938,724.2813 L105.8438,724.2813 L105.8438,730.7969 L105.5938,730.7969 C105.1875,730.7969 105.0313,730.8125 104.875,730.9219 C104.625,731.0938 104.4688,731.3594 104.4688,731.6563 C104.4688,731.9219 104.6094,732.1719 104.8281,732.3281 C104.9688,732.4531 105.2031,732.5 105.5938,732.5 L113.5938,732.5 L113.5938,729.9219 C113.5938,729.4844 113.5625,729.3438 113.4844,729.1875 C113.3125,728.9375 113.0313,728.7813 112.75,728.7813 C112.4844,728.7813 112.2188,728.8906 112.0469,729.1406 C111.9375,729.2969 111.9063,729.4375 111.9063,729.9219 L111.9063,730.7969 L107.5469,730.7969 L107.5469,728.375 Z " fill="#000000"/><text fill="#000000" font-family="sans-serif" font-size="14" lengthAdjust="spacing" textLength="37" x="129.25" y="732.3467">Suite</text><line style="stroke:#181818;stroke-width:0.5;" x1="37" x2="226" y1="743.5" y2="743.5"/><text fill="#000000" font-family="sans-serif" font-size="14" lengthAdjust="spacing" textLength="90" x="42" y="760.4951">CORAZONES</text><text fill="#000000" font-family="sans-serif" font-size="14" lengthAdjust="spacing" textLength="84" x="42" y="776.792">DIAMANTES</text><text fill="#000000" font-family="sans-serif" font-size="14" lengthAdjust="spacing" textLength="42" x="42" y="793.0889">PICAS</text><text fill="#000000" font-family="sans-serif" font-size="14" lengthAdjust="spacing" textLength="75" x="42" y="809.3857">TREBOLES</text><text fill="#000000" font-family="sans-serif" font-size="14" lengthAdjust="spacing" textLength="90" x="42" y="825.6826">-title: String</text><line style="stroke:#181818;stroke-width:0.5;" x1="37" x2="226" y1="832.9844" y2="832.9844"/><text fill="#000000" font-family="sans-serif" font-size="14" lengthAdjust="spacing" textLength="132" x="42" y="849.9795">-Suite(String title)</text><text fill="#000000" font-family="sans-serif" font-size="14" lengthAdjust="spacing" textLength="95" x="42" y="866.2764">-next(): Suite</text><text fill="#000000" font-family="sans-serif" font-size="14" lengthAdjust="spacing" textLength="132" x="42" y="882.5732">+getTitle(): String</text><text fill="#000000" font-family="sans-serif" font-size="14" lengthAdjust="spacing" textLength="179" x="42" y="898.8701">+next(int amount): Suite</text></g><!--class Value--><g id="elem_Value"><rect codeLine="69" fill="#FFFFFF" height="357.6406" id="Value" rx="2.5" ry="2.5" style="stroke:#181818;stroke-width:0.5;" width="234" x="262.5" y="630"/><ellipse cx="355.75" cy="646" fill="#EB937F" rx="11" ry="11" style="stroke:#181818;stroke-width:1.0;"/><path d="M354.5469,646.875 L356,646.875 L356,646.9844 C356,647.3906 356.0313,647.5469 356.1094,647.7031 C356.2656,647.9531 356.5469,648.1094 356.8438,648.1094 C357.0938,648.1094 357.3594,647.9688 357.5156,647.75 C357.6406,647.5938 357.6719,647.4375 357.6719,646.9844 L357.6719,645.0625 C357.6719,644.9063 357.6719,644.8594 357.6563,644.7031 C357.5938,644.2344 357.2813,643.9219 356.8281,643.9219 C356.5781,643.9219 356.3125,644.0625 356.1406,644.2813 C356.0313,644.4531 356,644.6094 356,645.0625 L356,645.1875 L354.5469,645.1875 L354.5469,642.7813 L358.5313,642.7813 L358.5313,643.6406 C358.5313,644.0469 358.5625,644.2188 358.6406,644.375 C358.8125,644.625 359.0938,644.7813 359.375,644.7813 C359.6406,644.7813 359.9063,644.6406 360.0781,644.4219 C360.1875,644.25 360.2188,644.1094 360.2188,643.6406 L360.2188,641.0938 L352.5938,641.0938 C352.1563,641.0938 352.0313,641.1094 351.875,641.2031 C351.625,641.3594 351.4688,641.6563 351.4688,641.9375 C351.4688,642.2188 351.6094,642.4688 351.8281,642.6406 C351.9844,642.75 352.1719,642.7813 352.5938,642.7813 L352.8438,642.7813 L352.8438,649.2969 L352.5938,649.2969 C352.1875,649.2969 352.0313,649.3125 351.875,649.4219 C351.625,649.5938 351.4688,649.8594 351.4688,650.1563 C351.4688,650.4219 351.6094,650.6719 351.8281,650.8281 C351.9688,650.9531 352.2031,651 352.5938,651 L360.5938,651 L360.5938,648.4219 C360.5938,647.9844 360.5625,647.8438 360.4844,647.6875 C360.3125,647.4375 360.0313,647.2813 359.75,647.2813 C359.4844,647.2813 359.2188,647.3906 359.0469,647.6406 C358.9375,647.7969 358.9063,647.9375 358.9063,648.4219 L358.9063,649.2969 L354.5469,649.2969 L354.5469,646.875 Z " fill="#000000"/><text fill="#000000" font-family="sans-serif" font-size="14" lengthAdjust="spacing" textLength="39" x="376.25" y="650.8467">Value</text><line style="stroke:#181818;stroke-width:0.5;" x1="263.5" x2="495.5" y1="662" y2="662"/><text fill="#000000" font-family="sans-serif" font-size="14" lengthAdjust="spacing" textLength="31" x="268.5" y="678.9951">DOS</text><text fill="#000000" font-family="sans-serif" font-size="14" lengthAdjust="spacing" textLength="37" x="268.5" y="695.292">TRES</text><text fill="#000000" font-family="sans-serif" font-size="14" lengthAdjust="spacing" textLength="59" x="268.5" y="711.5889">CUATRO</text><text fill="#000000" font-family="sans-serif" font-size="14" lengthAdjust="spacing" textLength="45" x="268.5" y="727.8857">CINCO</text><text fill="#000000" font-family="sans-serif" font-size="14" lengthAdjust="spacing" textLength="31" x="268.5" y="744.1826">SEIS</text><text fill="#000000" font-family="sans-serif" font-size="14" lengthAdjust="spacing" textLength="40" x="268.5" y="760.4795">SIETE</text><text fill="#000000" font-family="sans-serif" font-size="14" lengthAdjust="spacing" textLength="42" x="268.5" y="776.7764">OCHO</text><text fill="#000000" font-family="sans-serif" font-size="14" lengthAdjust="spacing" textLength="47" x="268.5" y="793.0732">NUEVE</text><text fill="#000000" font-family="sans-serif" font-size="14" lengthAdjust="spacing" textLength="34" x="268.5" y="809.3701">DIEZ</text><text fill="#000000" font-family="sans-serif" font-size="14" lengthAdjust="spacing" textLength="60" x="268.5" y="825.667">INFANTE</text><text fill="#000000" font-family="sans-serif" font-size="14" lengthAdjust="spacing" textLength="43" x="268.5" y="841.9639">REINA</text><text fill="#000000" font-family="sans-serif" font-size="14" lengthAdjust="spacing" textLength="28" x="268.5" y="858.2607">REY</text><text fill="#000000" font-family="sans-serif" font-size="14" lengthAdjust="spacing" textLength="19" x="268.5" y="874.5576">AS</text><text fill="#000000" font-family="sans-serif" font-size="14" lengthAdjust="spacing" textLength="90" x="268.5" y="890.8545">-title: String</text><line style="stroke:#181818;stroke-width:0.5;" x1="263.5" x2="495.5" y1="898.1563" y2="898.1563"/><text fill="#000000" font-family="sans-serif" font-size="14" lengthAdjust="spacing" textLength="134" x="268.5" y="915.1514">-Value(String title)</text><text fill="#000000" font-family="sans-serif" font-size="14" lengthAdjust="spacing" textLength="132" x="268.5" y="931.4482">+getTitle(): String</text><text fill="#000000" font-family="sans-serif" font-size="14" lengthAdjust="spacing" textLength="222" x="268.5" y="947.7451">+greater(Value value): boolean</text><text fill="#000000" font-family="sans-serif" font-size="14" lengthAdjust="spacing" textLength="181" x="268.5" y="964.042">+next(int amount): Value</text><text fill="#000000" font-family="sans-serif" font-size="14" lengthAdjust="spacing" textLength="97" x="268.5" y="980.3389">-next(): Value</text></g><!--reverse link Deck to Card--><g id="link_Deck_Card"><path codeLine="91" d="M107.6385,237.8082 C119.9739,286.1342 136.316,350.157 151.013,407.738 " fill="none" id="Deck-backto-Card" style="stroke:#181818;stroke-width:1.0;"/><polygon fill="#181818" points="104.6706,226.181,102.2788,232.9839,107.6385,237.8082,110.0303,231.0053,104.6706,226.181" style="stroke:#181818;stroke-width:1.0;"/><text fill="#000000" font-family="sans-serif" font-size="13" lengthAdjust="spacing" textLength="7" x="141.8767" y="396.902">*</text></g><!--reverse link Player to Card--><g id="link_Player_Card"><path codeLine="92" d="M258.7657,358.1499 C244.8567,378.8469 237.882,389.224 225.464,407.702 " fill="none" id="Player-backto-Card" style="stroke:#181818;stroke-width:1.0;"/><polygon fill="#181818" points="265.459,348.19,258.7924,350.9388,258.7657,358.1499,265.4323,355.4011,265.459,348.19" style="stroke:#181818;stroke-width:1.0;"/><text fill="#000000" font-family="sans-serif" font-size="13" lengthAdjust="spacing" textLength="7" x="222.9585" y="396.8628">*</text></g><!--reverse link Player to Value--><g id="link_Player_Value"><path codeLine="93" d="M379.5,360.023 C379.5,447.238 379.5,541.508 379.5,629.922 " fill="none" id="Player-backto-Value" style="stroke:#181818;stroke-width:1.0;"/><polygon fill="#181818" points="379.5,348.023,375.5,354.023,379.5,360.023,383.5,354.023,379.5,348.023" style="stroke:#181818;stroke-width:1.0;"/><text fill="#000000" font-family="sans-serif" font-size="13" lengthAdjust="spacing" textLength="7" x="372.3523" y="619.128">*</text></g><!--link Player to GambleType--><g id="link_Player_GambleType"><path codeLine="94" d="M546.246,177.5 C557.872,177.5 563.498,177.5 575.123,177.5 " fill="none" id="Player-to-GambleType" style="stroke:#181818;stroke-width:1.0;"/><polygon fill="#181818" points="581.123,177.5,572.123,173.5,576.123,177.5,572.123,181.5,581.123,177.5" style="stroke:#181818;stroke-width:1.0;"/></g><!--link Card to Value--><g id="link_Card_Value"><path codeLine="95" d="M223.987,570.245 C236.082,588.736 246.1366,604.1077 259.7646,624.9427 " fill="none" id="Card-to-Value" style="stroke:#181818;stroke-width:1.0;"/><polygon fill="#181818" points="263.049,629.964,261.47,620.2425,260.312,625.7796,254.775,624.6217,263.049,629.964" style="stroke:#181818;stroke-width:1.0;"/></g><!--link Card to Suite--><g id="link_Card_Suite"><path codeLine="96" d="M161.406,570.245 C156.014,613.115 150.0849,660.2519 144.4079,705.3819 " fill="none" id="Card-to-Suite" style="stroke:#181818;stroke-width:1.0;"/><polygon fill="#181818" points="143.659,711.335,148.751,702.9046,144.283,706.3741,140.8136,701.9061,143.659,711.335" style="stroke:#181818;stroke-width:1.0;"/></g><!--SRC=[XLJVRvim47xtNs5rBxGPqfwZgP93t8s9uWn8ftMQ8WUi18L0PZjBksh_-yus92HZtOljk_ku- -uNQbFMEoxv5WSLLsh2yyrADlkw29ggaVYmBhL0wWZA3OXeBSlbNeimR-gq_2NmEwJMpG7dfSmhWP15uQd8D_W5lS4vbqLKAZt6vdmVW7YBHjRkNSDZ9RJHUTTZR6xqk_DW9F3WOxK76cEScWl4dxpQW_XWBlZUVcnj3lZMMHpC1f22Qo4zwy-mWKZBfga4hrruYpVnEvUWimwDpaKTOTsaa7UziZhxCan5lT_Y3toxh4Jsl1D0Do19HXOaoWYQaOH-8cZA9X5Tj4AMX0pHD20HJGWAMCGIT3UF8ZHZd-SqEPeMpdGK4qeYO25-x7cbl5x4rV5vdbQRzF-GnshFAluifAttOCVQkgkWgS5GrlhRzwur5xfJd76lD61eP26aA6oLLUlS2cOUN7mx4RmeUiq2nM7TXEfBMTS0Q7dkx0M9E7cuGS1Fw1C5SEwRtjxpfukM-tZDLSgtmkaX4yoti0UwLwaZnkx6AvZiqCnuAPLtPe2uh9__kOD-BGQmVo4C5Gr1u93Qwm_y9M63yiuRReVMRGpCAql88ujfYgOXkITn1gzP690KHfLEM0IYZtMfAz4hgziE9pgZAMqjddH_PI2DpDXw7Havq5dk3jxnihcymD9O0YaAvYHB60h2E60efM6Aqf1c5B7W8qFnd3vG84uVKHZV6V8eeM5CuFoAo11pr-1pvlzWsgtGS7M7Ckc6gIk4ao4p-pEyyGiVNzrSkTzSEyUlAvs3LkjB_xQ_K7P507dRmawohUWV]--></g></svg>