<?xml version="1.0" encoding="us-ascii" standalone="no"?><svg xmlns="http://www.w3.org/2000/svg" xmlns:xlink="http://www.w3.org/1999/xlink" contentStyleType="text/css" height="1060px" preserveAspectRatio="none" style="width:1071px;height:1060px;background:#FFFFFF;" version="1.1" viewBox="0 0 1071 1060" width="1071px" zoomAndPan="magnify"><defs/><g><!--class Deck--><g id="elem_Deck"><rect codeLine="5" fill="#FFFFFF" height="96.8906" id="Deck" rx="2.5" ry="2.5" style="stroke:#181818;stroke-width:0.5;" width="171" x="7" y="121"/><ellipse cx="69.75" cy="137" fill="#ADD1B2" rx="11" ry="11" style="stroke:#181818;stroke-width:1.0;"/><path d="M72.0938,132.6719 C71.1563,132.2344 70.5625,132.0938 69.6875,132.0938 C67.0625,132.0938 65.0625,134.1719 65.0625,136.8906 L65.0625,138.0156 C65.0625,140.5938 67.1719,142.4844 70.0625,142.4844 C71.2813,142.4844 72.4375,142.1875 73.1875,141.6406 C73.7656,141.2344 74.0938,140.7813 74.0938,140.3906 C74.0938,139.9375 73.7031,139.5469 73.2344,139.5469 C73.0156,139.5469 72.8125,139.625 72.625,139.8125 C72.1719,140.2969 72.1719,140.2969 71.9844,140.3906 C71.5625,140.6563 70.875,140.7813 70.1094,140.7813 C68.0625,140.7813 66.7656,139.6875 66.7656,137.9844 L66.7656,136.8906 C66.7656,135.1094 68.0156,133.7969 69.75,133.7969 C70.3281,133.7969 70.9375,133.9531 71.4063,134.2031 C71.8906,134.4844 72.0625,134.7031 72.1563,135.1094 C72.2188,135.5156 72.25,135.6406 72.3906,135.7656 C72.5313,135.9063 72.7656,136.0156 72.9844,136.0156 C73.25,136.0156 73.5156,135.875 73.6875,135.6563 C73.7969,135.5 73.8281,135.3125 73.8281,134.8906 L73.8281,133.4688 C73.8281,133.0313 73.8125,132.9063 73.7188,132.75 C73.5625,132.4844 73.2813,132.3438 72.9844,132.3438 C72.6875,132.3438 72.4844,132.4375 72.2656,132.75 L72.0938,132.6719 Z " fill="#000000"/><text fill="#000000" font-family="sans-serif" font-size="14" lengthAdjust="spacing" textLength="37" x="90.25" y="141.8467">Deck</text><line style="stroke:#181818;stroke-width:0.5;" x1="8" x2="177" y1="153" y2="153"/><text fill="#000000" font-family="sans-serif" font-size="14" lengthAdjust="spacing" textLength="159" x="13" y="169.9951">#cardList: List&lt;Card&gt;</text><line style="stroke:#181818;stroke-width:0.5;" x1="8" x2="177" y1="177.2969" y2="177.2969"/><text fill="#000000" font-family="sans-serif" font-size="14" lengthAdjust="spacing" textLength="58" x="13" y="194.292">+Deck()</text><text fill="#000000" font-family="sans-serif" font-size="14" lengthAdjust="spacing" textLength="121" x="13" y="210.5889">+getCard(): Card</text></g><!--class Card--><g id="elem_Card"><rect codeLine="11" fill="#FFFFFF" height="162.0781" id="Card" rx="2.5" ry="2.5" style="stroke:#181818;stroke-width:0.5;" width="230" x="59.5" y="433"/><ellipse cx="153.75" cy="449" fill="#ADD1B2" rx="11" ry="11" style="stroke:#181818;stroke-width:1.0;"/><path d="M156.0938,444.6719 C155.1563,444.2344 154.5625,444.0938 153.6875,444.0938 C151.0625,444.0938 149.0625,446.1719 149.0625,448.8906 L149.0625,450.0156 C149.0625,452.5938 151.1719,454.4844 154.0625,454.4844 C155.2813,454.4844 156.4375,454.1875 157.1875,453.6406 C157.7656,453.2344 158.0938,452.7813 158.0938,452.3906 C158.0938,451.9375 157.7031,451.5469 157.2344,451.5469 C157.0156,451.5469 156.8125,451.625 156.625,451.8125 C156.1719,452.2969 156.1719,452.2969 155.9844,452.3906 C155.5625,452.6563 154.875,452.7813 154.1094,452.7813 C152.0625,452.7813 150.7656,451.6875 150.7656,449.9844 L150.7656,448.8906 C150.7656,447.1094 152.0156,445.7969 153.75,445.7969 C154.3281,445.7969 154.9375,445.9531 155.4063,446.2031 C155.8906,446.4844 156.0625,446.7031 156.1563,447.1094 C156.2188,447.5156 156.25,447.6406 156.3906,447.7656 C156.5313,447.9063 156.7656,448.0156 156.9844,448.0156 C157.25,448.0156 157.5156,447.875 157.6875,447.6563 C157.7969,447.5 157.8281,447.3125 157.8281,446.8906 L157.8281,445.4688 C157.8281,445.0313 157.8125,444.9063 157.7188,444.75 C157.5625,444.4844 157.2813,444.3438 156.9844,444.3438 C156.6875,444.3438 156.4844,444.4375 156.2656,444.75 L156.0938,444.6719 Z " fill="#000000"/><text fill="#000000" font-family="sans-serif" font-size="14" lengthAdjust="spacing" textLength="33" x="174.25" y="453.8467">Card</text><line style="stroke:#181818;stroke-width:0.5;" x1="60.5" x2="288.5" y1="465" y2="465"/><text fill="#000000" font-family="sans-serif" font-size="14" lengthAdjust="spacing" textLength="87" x="65.5" y="481.9951">-suite: Suite</text><text fill="#000000" font-family="sans-serif" font-size="14" lengthAdjust="spacing" textLength="91" x="65.5" y="498.292">-value: Value</text><line style="stroke:#181818;stroke-width:0.5;" x1="60.5" x2="288.5" y1="505.5938" y2="505.5938"/><text fill="#000000" font-family="sans-serif" font-size="14" lengthAdjust="spacing" textLength="218" x="65.5" y="522.5889">+Card(Suite suite, Value value)</text><text fill="#000000" font-family="sans-serif" font-size="14" lengthAdjust="spacing" textLength="210" x="65.5" y="538.8857">+greater(Card card): boolean</text><text fill="#000000" font-family="sans-serif" font-size="14" lengthAdjust="spacing" textLength="133" x="65.5" y="555.1826">+getValue(): Value</text><text fill="#000000" font-family="sans-serif" font-size="14" lengthAdjust="spacing" textLength="129" x="65.5" y="571.4795">+getSuite(): Suite</text><text fill="#000000" font-family="sans-serif" font-size="14" lengthAdjust="spacing" textLength="134" x="65.5" y="587.7764">+toString(): String</text></g><!--class GambleType--><g id="elem_GambleType"><rect codeLine="21" fill="#FFFFFF" height="243.5625" id="GambleType" rx="2.5" ry="2.5" style="stroke:#181818;stroke-width:0.5;" width="340" x="435.5" y="392"/><ellipse cx="555.25" cy="408" fill="#EB937F" rx="11" ry="11" style="stroke:#181818;stroke-width:1.0;"/><path d="M554.0469,408.875 L555.5,408.875 L555.5,408.9844 C555.5,409.3906 555.5313,409.5469 555.6094,409.7031 C555.7656,409.9531 556.0469,410.1094 556.3438,410.1094 C556.5938,410.1094 556.8594,409.9688 557.0156,409.75 C557.1406,409.5938 557.1719,409.4375 557.1719,408.9844 L557.1719,407.0625 C557.1719,406.9063 557.1719,406.8594 557.1563,406.7031 C557.0938,406.2344 556.7813,405.9219 556.3281,405.9219 C556.0781,405.9219 555.8125,406.0625 555.6406,406.2813 C555.5313,406.4531 555.5,406.6094 555.5,407.0625 L555.5,407.1875 L554.0469,407.1875 L554.0469,404.7813 L558.0313,404.7813 L558.0313,405.6406 C558.0313,406.0469 558.0625,406.2188 558.1406,406.375 C558.3125,406.625 558.5938,406.7813 558.875,406.7813 C559.1406,406.7813 559.4063,406.6406 559.5781,406.4219 C559.6875,406.25 559.7188,406.1094 559.7188,405.6406 L559.7188,403.0938 L552.0938,403.0938 C551.6563,403.0938 551.5313,403.1094 551.375,403.2031 C551.125,403.3594 550.9688,403.6563 550.9688,403.9375 C550.9688,404.2188 551.1094,404.4688 551.3281,404.6406 C551.4844,404.75 551.6719,404.7813 552.0938,404.7813 L552.3438,404.7813 L552.3438,411.2969 L552.0938,411.2969 C551.6875,411.2969 551.5313,411.3125 551.375,411.4219 C551.125,411.5938 550.9688,411.8594 550.9688,412.1563 C550.9688,412.4219 551.1094,412.6719 551.3281,412.8281 C551.4688,412.9531 551.7031,413 552.0938,413 L560.0938,413 L560.0938,410.4219 C560.0938,409.9844 560.0625,409.8438 559.9844,409.6875 C559.8125,409.4375 559.5313,409.2813 559.25,409.2813 C558.9844,409.2813 558.7188,409.3906 558.5469,409.6406 C558.4375,409.7969 558.4063,409.9375 558.4063,410.4219 L558.4063,411.2969 L554.0469,411.2969 L554.0469,408.875 Z " fill="#000000"/><text fill="#000000" font-family="sans-serif" font-size="14" lengthAdjust="spacing" textLength="92" x="575.75" y="412.8467">GambleType</text><line style="stroke:#181818;stroke-width:0.5;" x1="436.5" x2="774.5" y1="424" y2="424"/><text fill="#000000" font-family="sans-serif" font-size="14" lengthAdjust="spacing" textLength="93" x="441.5" y="440.9951">CARTA_ALTA</text><text fill="#000000" font-family="sans-serif" font-size="14" lengthAdjust="spacing" textLength="52" x="441.5" y="457.292">PAREJA</text><text fill="#000000" font-family="sans-serif" font-size="14" lengthAdjust="spacing" textLength="108" x="441.5" y="473.5889">DOBLE_PAREJA</text><text fill="#000000" font-family="sans-serif" font-size="14" lengthAdjust="spacing" textLength="34" x="441.5" y="489.8857">TRIO</text><text fill="#000000" font-family="sans-serif" font-size="14" lengthAdjust="spacing" textLength="75" x="441.5" y="506.1826">ESCALERA</text><text fill="#000000" font-family="sans-serif" font-size="14" lengthAdjust="spacing" textLength="50" x="441.5" y="522.4795">COLOR</text><text fill="#000000" font-family="sans-serif" font-size="14" lengthAdjust="spacing" textLength="33" x="441.5" y="538.7764">FULL</text><text fill="#000000" font-family="sans-serif" font-size="14" lengthAdjust="spacing" textLength="59" x="441.5" y="555.0732">POQUER</text><text fill="#000000" font-family="sans-serif" font-size="14" lengthAdjust="spacing" textLength="132" x="441.5" y="571.3701">ESCALERA_COLOR</text><text fill="#000000" font-family="sans-serif" font-size="14" lengthAdjust="spacing" textLength="119" x="441.5" y="587.667">ESCALERA_REAL</text><line style="stroke:#181818;stroke-width:0.5;" x1="436.5" x2="774.5" y1="594.9688" y2="594.9688"/><text fill="#000000" font-family="sans-serif" font-size="14" lengthAdjust="spacing" textLength="319" x="441.5" y="611.9639">+equals(GambleType gambleType): boolean</text><text fill="#000000" font-family="sans-serif" font-size="14" lengthAdjust="spacing" textLength="328" x="441.5" y="628.2607">+greater(GambleType gambleType): boolean</text></g><!--class Player--><g id="elem_Player"><rect codeLine="36" fill="#FFFFFF" height="325.0469" id="Player" rx="2.5" ry="2.5" style="stroke:#181818;stroke-width:0.5;" width="338" x="213.5" y="7"/><ellipse cx="356.25" cy="23" fill="#ADD1B2" rx="11" ry="11" style="stroke:#181818;stroke-width:1.0;"/><path d="M358.5938,18.6719 C357.6563,18.2344 357.0625,18.0938 356.1875,18.0938 C353.5625,18.0938 351.5625,20.1719 351.5625,22.8906 L351.5625,24.0156 C351.5625,26.5938 353.6719,28.4844 356.5625,28.4844 C357.7813,28.4844 358.9375,28.1875 359.6875,27.6406 C360.2656,27.2344 360.5938,26.7813 360.5938,26.3906 C360.5938,25.9375 360.2031,25.5469 359.7344,25.5469 C359.5156,25.5469 359.3125,25.625 359.125,25.8125 C358.6719,26.2969 358.6719,26.2969 358.4844,26.3906 C358.0625,26.6563 357.375,26.7813 356.6094,26.7813 C354.5625,26.7813 353.2656,25.6875 353.2656,23.9844 L353.2656,22.8906 C353.2656,21.1094 354.5156,19.7969 356.25,19.7969 C356.8281,19.7969 357.4375,19.9531 357.9063,20.2031 C358.3906,20.4844 358.5625,20.7031 358.6563,21.1094 C358.7188,21.5156 358.75,21.6406 358.8906,21.7656 C359.0313,21.9063 359.2656,22.0156 359.4844,22.0156 C359.75,22.0156 360.0156,21.875 360.1875,21.6563 C360.2969,21.5 360.3281,21.3125 360.3281,20.8906 L360.3281,19.4688 C360.3281,19.0313 360.3125,18.9063 360.2188,18.75 C360.0625,18.4844 359.7813,18.3438 359.4844,18.3438 C359.1875,18.3438 358.9844,18.4375 358.7656,18.75 L358.5938,18.6719 Z " fill="#000000"/><text fill="#000000" font-family="sans-serif" font-size="14" lengthAdjust="spacing" textLength="44" x="376.75" y="27.8467">Player</text><line style="stroke:#181818;stroke-width:0.5;" x1="214.5" x2="550.5" y1="39" y2="39"/><text fill="#000000" font-family="sans-serif" font-size="14" lengthAdjust="spacing" textLength="153" x="219.5" y="55.9951">-cardList: List&lt;Card&gt;</text><text fill="#000000" font-family="sans-serif" font-size="14" lengthAdjust="spacing" textLength="124" x="219.5" y="72.292">-valuesCont: int[]</text><text fill="#000000" font-family="sans-serif" font-size="14" lengthAdjust="spacing" textLength="122" x="219.5" y="88.5889">-suitesCont: int[]</text><text fill="#000000" font-family="sans-serif" font-size="14" lengthAdjust="spacing" textLength="125" x="219.5" y="104.8857">-gamble: Gamble</text><line style="stroke:#181818;stroke-width:0.5;" x1="214.5" x2="550.5" y1="112.1875" y2="112.1875"/><text fill="#000000" font-family="sans-serif" font-size="14" lengthAdjust="spacing" textLength="65" x="219.5" y="129.1826">+Player()</text><text fill="#000000" font-family="sans-serif" font-size="14" lengthAdjust="spacing" textLength="115" x="219.5" y="145.4795">+add(Card card)</text><text fill="#000000" font-family="sans-serif" font-size="14" lengthAdjust="spacing" textLength="258" x="219.5" y="161.7764">+whoIsWinner(Player player): Player</text><text fill="#000000" font-family="sans-serif" font-size="14" lengthAdjust="spacing" textLength="134" x="219.5" y="178.0732">+toString(): String</text><text fill="#000000" font-family="sans-serif" font-size="14" lengthAdjust="spacing" textLength="162" x="219.5" y="194.3701">-getGamble(): Gamble</text><text fill="#000000" font-family="sans-serif" font-size="14" lengthAdjust="spacing" textLength="161" x="219.5" y="210.667">+getMaxValue(): Value</text><text fill="#000000" font-family="sans-serif" font-size="14" lengthAdjust="spacing" textLength="270" x="219.5" y="226.9639">+hasSameValue(int amount): boolean</text><text fill="#000000" font-family="sans-serif" font-size="14" lengthAdjust="spacing" textLength="269" x="219.5" y="243.2607">+hasSameColor(int amount): boolean</text><text fill="#000000" font-family="sans-serif" font-size="14" lengthAdjust="spacing" textLength="175" x="219.5" y="259.5576">+hasTwoPairs(): boolean</text><text fill="#000000" font-family="sans-serif" font-size="14" lengthAdjust="spacing" textLength="326" x="219.5" y="275.8545">+getOrderedValues(int amount): List&lt;Value&gt;</text><text fill="#000000" font-family="sans-serif" font-size="14" lengthAdjust="spacing" textLength="247" x="219.5" y="292.1514">+getOrderedValues(): List&lt;Value&gt;</text><text fill="#000000" font-family="sans-serif" font-size="14" lengthAdjust="spacing" textLength="263" x="219.5" y="308.4482">+hasStairStart(Value value): boolean</text><text fill="#000000" font-family="sans-serif" font-size="14" lengthAdjust="spacing" textLength="146" x="219.5" y="324.7451">+hasStair(): boolean</text></g><!--class Suite--><g id="elem_Suite"><rect codeLine="56" fill="#FFFFFF" height="194.6719" id="Suite" rx="2.5" ry="2.5" style="stroke:#181818;stroke-width:0.5;" width="191" x="59" y="777.5"/><ellipse cx="131.75" cy="793.5" fill="#EB937F" rx="11" ry="11" style="stroke:#181818;stroke-width:1.0;"/><path d="M130.5469,794.375 L132,794.375 L132,794.4844 C132,794.8906 132.0313,795.0469 132.1094,795.2031 C132.2656,795.4531 132.5469,795.6094 132.8438,795.6094 C133.0938,795.6094 133.3594,795.4688 133.5156,795.25 C133.6406,795.0938 133.6719,794.9375 133.6719,794.4844 L133.6719,792.5625 C133.6719,792.4063 133.6719,792.3594 133.6563,792.2031 C133.5938,791.7344 133.2813,791.4219 132.8281,791.4219 C132.5781,791.4219 132.3125,791.5625 132.1406,791.7813 C132.0313,791.9531 132,792.1094 132,792.5625 L132,792.6875 L130.5469,792.6875 L130.5469,790.2813 L134.5313,790.2813 L134.5313,791.1406 C134.5313,791.5469 134.5625,791.7188 134.6406,791.875 C134.8125,792.125 135.0938,792.2813 135.375,792.2813 C135.6406,792.2813 135.9063,792.1406 136.0781,791.9219 C136.1875,791.75 136.2188,791.6094 136.2188,791.1406 L136.2188,788.5938 L128.5938,788.5938 C128.1563,788.5938 128.0313,788.6094 127.875,788.7031 C127.625,788.8594 127.4688,789.1563 127.4688,789.4375 C127.4688,789.7188 127.6094,789.9688 127.8281,790.1406 C127.9844,790.25 128.1719,790.2813 128.5938,790.2813 L128.8438,790.2813 L128.8438,796.7969 L128.5938,796.7969 C128.1875,796.7969 128.0313,796.8125 127.875,796.9219 C127.625,797.0938 127.4688,797.3594 127.4688,797.6563 C127.4688,797.9219 127.6094,798.1719 127.8281,798.3281 C127.9688,798.4531 128.2031,798.5 128.5938,798.5 L136.5938,798.5 L136.5938,795.9219 C136.5938,795.4844 136.5625,795.3438 136.4844,795.1875 C136.3125,794.9375 136.0313,794.7813 135.75,794.7813 C135.4844,794.7813 135.2188,794.8906 135.0469,795.1406 C134.9375,795.2969 134.9063,795.4375 134.9063,795.9219 L134.9063,796.7969 L130.5469,796.7969 L130.5469,794.375 Z " fill="#000000"/><text fill="#000000" font-family="sans-serif" font-size="14" lengthAdjust="spacing" textLength="37" x="152.25" y="798.3467">Suite</text><line style="stroke:#181818;stroke-width:0.5;" x1="60" x2="249" y1="809.5" y2="809.5"/><text fill="#000000" font-family="sans-serif" font-size="14" lengthAdjust="spacing" textLength="90" x="65" y="826.4951">CORAZONES</text><text fill="#000000" font-family="sans-serif" font-size="14" lengthAdjust="spacing" textLength="84" x="65" y="842.792">DIAMANTES</text><text fill="#000000" font-family="sans-serif" font-size="14" lengthAdjust="spacing" textLength="42" x="65" y="859.0889">PICAS</text><text fill="#000000" font-family="sans-serif" font-size="14" lengthAdjust="spacing" textLength="75" x="65" y="875.3857">TREBOLES</text><text fill="#000000" font-family="sans-serif" font-size="14" lengthAdjust="spacing" textLength="90" x="65" y="891.6826">-title: String</text><line style="stroke:#181818;stroke-width:0.5;" x1="60" x2="249" y1="898.9844" y2="898.9844"/><text fill="#000000" font-family="sans-serif" font-size="14" lengthAdjust="spacing" textLength="132" x="65" y="915.9795">-Suite(String title)</text><text fill="#000000" font-family="sans-serif" font-size="14" lengthAdjust="spacing" textLength="95" x="65" y="932.2764">-next(): Suite</text><text fill="#000000" font-family="sans-serif" font-size="14" lengthAdjust="spacing" textLength="132" x="65" y="948.5732">+getTitle(): String</text><text fill="#000000" font-family="sans-serif" font-size="14" lengthAdjust="spacing" textLength="179" x="65" y="964.8701">+next(int amount): Suite</text></g><!--class Value--><g id="elem_Value"><rect codeLine="68" fill="#FFFFFF" height="357.6406" id="Value" rx="2.5" ry="2.5" style="stroke:#181818;stroke-width:0.5;" width="234" x="285.5" y="696"/><ellipse cx="378.75" cy="712" fill="#EB937F" rx="11" ry="11" style="stroke:#181818;stroke-width:1.0;"/><path d="M377.5469,712.875 L379,712.875 L379,712.9844 C379,713.3906 379.0313,713.5469 379.1094,713.7031 C379.2656,713.9531 379.5469,714.1094 379.8438,714.1094 C380.0938,714.1094 380.3594,713.9688 380.5156,713.75 C380.6406,713.5938 380.6719,713.4375 380.6719,712.9844 L380.6719,711.0625 C380.6719,710.9063 380.6719,710.8594 380.6563,710.7031 C380.5938,710.2344 380.2813,709.9219 379.8281,709.9219 C379.5781,709.9219 379.3125,710.0625 379.1406,710.2813 C379.0313,710.4531 379,710.6094 379,711.0625 L379,711.1875 L377.5469,711.1875 L377.5469,708.7813 L381.5313,708.7813 L381.5313,709.6406 C381.5313,710.0469 381.5625,710.2188 381.6406,710.375 C381.8125,710.625 382.0938,710.7813 382.375,710.7813 C382.6406,710.7813 382.9063,710.6406 383.0781,710.4219 C383.1875,710.25 383.2188,710.1094 383.2188,709.6406 L383.2188,707.0938 L375.5938,707.0938 C375.1563,707.0938 375.0313,707.1094 374.875,707.2031 C374.625,707.3594 374.4688,707.6563 374.4688,707.9375 C374.4688,708.2188 374.6094,708.4688 374.8281,708.6406 C374.9844,708.75 375.1719,708.7813 375.5938,708.7813 L375.8438,708.7813 L375.8438,715.2969 L375.5938,715.2969 C375.1875,715.2969 375.0313,715.3125 374.875,715.4219 C374.625,715.5938 374.4688,715.8594 374.4688,716.1563 C374.4688,716.4219 374.6094,716.6719 374.8281,716.8281 C374.9688,716.9531 375.2031,717 375.5938,717 L383.5938,717 L383.5938,714.4219 C383.5938,713.9844 383.5625,713.8438 383.4844,713.6875 C383.3125,713.4375 383.0313,713.2813 382.75,713.2813 C382.4844,713.2813 382.2188,713.3906 382.0469,713.6406 C381.9375,713.7969 381.9063,713.9375 381.9063,714.4219 L381.9063,715.2969 L377.5469,715.2969 L377.5469,712.875 Z " fill="#000000"/><text fill="#000000" font-family="sans-serif" font-size="14" lengthAdjust="spacing" textLength="39" x="399.25" y="716.8467">Value</text><line style="stroke:#181818;stroke-width:0.5;" x1="286.5" x2="518.5" y1="728" y2="728"/><text fill="#000000" font-family="sans-serif" font-size="14" lengthAdjust="spacing" textLength="31" x="291.5" y="744.9951">DOS</text><text fill="#000000" font-family="sans-serif" font-size="14" lengthAdjust="spacing" textLength="37" x="291.5" y="761.292">TRES</text><text fill="#000000" font-family="sans-serif" font-size="14" lengthAdjust="spacing" textLength="59" x="291.5" y="777.5889">CUATRO</text><text fill="#000000" font-family="sans-serif" font-size="14" lengthAdjust="spacing" textLength="45" x="291.5" y="793.8857">CINCO</text><text fill="#000000" font-family="sans-serif" font-size="14" lengthAdjust="spacing" textLength="31" x="291.5" y="810.1826">SEIS</text><text fill="#000000" font-family="sans-serif" font-size="14" lengthAdjust="spacing" textLength="40" x="291.5" y="826.4795">SIETE</text><text fill="#000000" font-family="sans-serif" font-size="14" lengthAdjust="spacing" textLength="42" x="291.5" y="842.7764">OCHO</text><text fill="#000000" font-family="sans-serif" font-size="14" lengthAdjust="spacing" textLength="47" x="291.5" y="859.0732">NUEVE</text><text fill="#000000" font-family="sans-serif" font-size="14" lengthAdjust="spacing" textLength="34" x="291.5" y="875.3701">DIEZ</text><text fill="#000000" font-family="sans-serif" font-size="14" lengthAdjust="spacing" textLength="60" x="291.5" y="891.667">INFANTE</text><text fill="#000000" font-family="sans-serif" font-size="14" lengthAdjust="spacing" textLength="43" x="291.5" y="907.9639">REINA</text><text fill="#000000" font-family="sans-serif" font-size="14" lengthAdjust="spacing" textLength="28" x="291.5" y="924.2607">REY</text><text fill="#000000" font-family="sans-serif" font-size="14" lengthAdjust="spacing" textLength="19" x="291.5" y="940.5576">AS</text><text fill="#000000" font-family="sans-serif" font-size="14" lengthAdjust="spacing" textLength="90" x="291.5" y="956.8545">-title: String</text><line style="stroke:#181818;stroke-width:0.5;" x1="286.5" x2="518.5" y1="964.1563" y2="964.1563"/><text fill="#000000" font-family="sans-serif" font-size="14" lengthAdjust="spacing" textLength="134" x="291.5" y="981.1514">-Value(String title)</text><text fill="#000000" font-family="sans-serif" font-size="14" lengthAdjust="spacing" textLength="132" x="291.5" y="997.4482">+getTitle(): String</text><text fill="#000000" font-family="sans-serif" font-size="14" lengthAdjust="spacing" textLength="222" x="291.5" y="1013.7451">+greater(Value value): boolean</text><text fill="#000000" font-family="sans-serif" font-size="14" lengthAdjust="spacing" textLength="181" x="291.5" y="1030.042">+next(int amount): Value</text><text fill="#000000" font-family="sans-serif" font-size="14" lengthAdjust="spacing" textLength="97" x="291.5" y="1046.3389">-next(): Value</text></g><!--class Gamble--><g id="elem_Gamble"><rect codeLine="90" fill="#FFFFFF" height="145.7813" id="Gamble" rx="2.5" ry="2.5" style="stroke:#181818;stroke-width:0.5;" width="477" x="587" y="96.5"/><ellipse cx="793.25" cy="112.5" fill="#ADD1B2" rx="11" ry="11" style="stroke:#181818;stroke-width:1.0;"/><path d="M795.5938,108.1719 C794.6563,107.7344 794.0625,107.5938 793.1875,107.5938 C790.5625,107.5938 788.5625,109.6719 788.5625,112.3906 L788.5625,113.5156 C788.5625,116.0938 790.6719,117.9844 793.5625,117.9844 C794.7813,117.9844 795.9375,117.6875 796.6875,117.1406 C797.2656,116.7344 797.5938,116.2813 797.5938,115.8906 C797.5938,115.4375 797.2031,115.0469 796.7344,115.0469 C796.5156,115.0469 796.3125,115.125 796.125,115.3125 C795.6719,115.7969 795.6719,115.7969 795.4844,115.8906 C795.0625,116.1563 794.375,116.2813 793.6094,116.2813 C791.5625,116.2813 790.2656,115.1875 790.2656,113.4844 L790.2656,112.3906 C790.2656,110.6094 791.5156,109.2969 793.25,109.2969 C793.8281,109.2969 794.4375,109.4531 794.9063,109.7031 C795.3906,109.9844 795.5625,110.2031 795.6563,110.6094 C795.7188,111.0156 795.75,111.1406 795.8906,111.2656 C796.0313,111.4063 796.2656,111.5156 796.4844,111.5156 C796.75,111.5156 797.0156,111.375 797.1875,111.1563 C797.2969,111 797.3281,110.8125 797.3281,110.3906 L797.3281,108.9688 C797.3281,108.5313 797.3125,108.4063 797.2188,108.25 C797.0625,107.9844 796.7813,107.8438 796.4844,107.8438 C796.1875,107.8438 795.9844,107.9375 795.7656,108.25 L795.5938,108.1719 Z " fill="#000000"/><text fill="#000000" font-family="sans-serif" font-size="14" lengthAdjust="spacing" textLength="56" x="813.75" y="117.3467">Gamble</text><line style="stroke:#181818;stroke-width:0.5;" x1="588" x2="1063" y1="128.5" y2="128.5"/><text fill="#000000" font-family="sans-serif" font-size="14" lengthAdjust="spacing" textLength="203" x="593" y="145.4951">#gambleType: GambleType</text><text fill="#000000" font-family="sans-serif" font-size="14" lengthAdjust="spacing" textLength="205" x="593" y="161.792">-orderedValues: List&lt;Value&gt;</text><line style="stroke:#181818;stroke-width:0.5;" x1="588" x2="1063" y1="169.0938" y2="169.0938"/><text fill="#000000" font-family="sans-serif" font-size="14" lengthAdjust="spacing" textLength="465" x="593" y="186.0889">+Gamble(GambleType gambleType, List&lt;Value&gt; orderedValues)</text><text fill="#000000" font-family="sans-serif" font-size="14" lengthAdjust="spacing" textLength="291" x="593" y="202.3857">+whoIsWinner(Gamble gamble): Gamble</text><text fill="#000000" font-family="sans-serif" font-size="14" lengthAdjust="spacing" textLength="452" x="593" y="218.6826">-whoIsWinnerWithSameGambleType(Gamble gamble): Gamble</text><text fill="#000000" font-family="sans-serif" font-size="14" lengthAdjust="spacing" textLength="134" x="593" y="234.9795">+toString(): String</text></g><!--reverse link Deck to Card--><g id="link_Deck_Card"><path codeLine="99" d="M106.6958,229.7932 C119.9861,285.3032 139.366,366.251 155.32,432.888 " fill="none" id="Deck-backto-Card" style="stroke:#181818;stroke-width:1.0;"/><polygon fill="#181818" points="103.9017,218.123,101.4087,224.8895,106.6958,229.7932,109.1888,223.0267,103.9017,218.123" style="stroke:#181818;stroke-width:1.0;"/><text fill="#000000" font-family="sans-serif" font-size="13" lengthAdjust="spacing" textLength="7" x="146.3001" y="422.0653">*</text></g><!--reverse link Player to Card--><g id="link_Player_Card"><path codeLine="100" d="M278.0572,342.4788 C256.8102,377.4658 241.468,402.728 223.136,432.913 " fill="none" id="Player-backto-Card" style="stroke:#181818;stroke-width:1.0;"/><polygon fill="#181818" points="284.286,332.222,277.7527,335.2741,278.0572,342.4788,284.5905,339.4267,284.286,332.222" style="stroke:#181818;stroke-width:1.0;"/><text fill="#000000" font-family="sans-serif" font-size="13" lengthAdjust="spacing" textLength="7" x="220.297" y="421.8158">*</text></g><!--reverse link Player to Value--><g id="link_Player_Value"><path codeLine="101" d="M387.442,344.3342 C390.53,452.9652 394.259,584.116 397.439,695.969 " fill="none" id="Player-backto-Value" style="stroke:#181818;stroke-width:1.0;"/><polygon fill="#181818" points="387.101,332.339,383.2731,338.4502,387.442,344.3342,391.2699,338.2229,387.101,332.339" style="stroke:#181818;stroke-width:1.0;"/><text fill="#000000" font-family="sans-serif" font-size="13" lengthAdjust="spacing" textLength="7" x="390.0778" y="685.177">*</text></g><!--reverse link Player to Gamble--><g id="link_Player_Gamble"><path codeLine="102" d="M563.653,169.5 C575.42,169.5 575.187,169.5 586.954,169.5 " fill="none" id="Player-backto-Gamble" style="stroke:#181818;stroke-width:1.0;"/><polygon fill="#181818" points="551.653,169.5,557.653,173.5,563.653,169.5,557.653,165.5,551.653,169.5" style="stroke:#181818;stroke-width:1.0;"/></g><!--link Gamble to GambleType--><g id="link_Gamble_GambleType"><path codeLine="103" d="M779.112,242.717 C751.378,285.894 718.6667,336.8208 686.6767,386.6228 " fill="none" id="Gamble-to-GambleType" style="stroke:#181818;stroke-width:1.0;"/><polygon fill="#181818" points="683.434,391.671,691.6636,386.2604,686.1363,387.4641,684.9326,381.9368,683.434,391.671" style="stroke:#181818;stroke-width:1.0;"/></g><!--link Gamble to Value--><g id="link_Gamble_Value"><path codeLine="104" d="M839.779,242.776 C854.921,339.841 867.573,514.181 793.5,636 C732.394,736.494 616.8414,798.1387 525.5084,834.1217 " fill="none" id="Gamble-to-Value" style="stroke:#181818;stroke-width:1.0;"/><polygon fill="#181818" points="519.926,836.321,529.7658,836.7436,524.578,834.4882,526.8334,829.3004,519.926,836.321" style="stroke:#181818;stroke-width:1.0;"/><text fill="#000000" font-family="sans-serif" font-size="13" lengthAdjust="spacing" textLength="7" x="527.6728" y="830.4453">*</text></g><!--link Card to Value--><g id="link_Card_Value"><path codeLine="105" d="M225.384,595.12 C244.414,625.084 263.6544,655.3791 286.0704,690.6751 " fill="none" id="Card-to-Value" style="stroke:#181818;stroke-width:1.0;"/><polygon fill="#181818" points="289.287,695.74,287.8386,685.9982,286.6065,691.5193,281.0854,690.2871,289.287,695.74" style="stroke:#181818;stroke-width:1.0;"/></g><!--link Card to Suite--><g id="link_Card_Suite"><path codeLine="106" d="M170.037,595.12 C167.037,648.952 163.4017,714.2083 160.2267,771.2133 " fill="none" id="Card-to-Suite" style="stroke:#181818;stroke-width:1.0;"/><polygon fill="#181818" points="159.893,777.204,164.3873,768.4404,160.1711,772.2117,156.3997,767.9955,159.893,777.204" style="stroke:#181818;stroke-width:1.0;"/></g><!--SRC=[XLJVRzem47xtNs5rBw5jf3sZ2SbDtIrJYbaIMgtJX4nYGKH8c6r6ksh_-yvs20c5xiNstNs- -tm_h5P5jU6Iht5GSgLkUBPQo7fRvK5TrXBlbeKMIBMWp828rhAORxK8ixfAYZy2VqHgMUzmLiYi50XP5BuLsGg_eWyuupAF2gM7sAoV0X17wChQlG4S5a8RdJSOOhEZltiFHW8FFbPRe374YTb0_CtBBOWFPeFxzhArEU2ripYO3I05rq9wrfzX0v7cTLqANhdm5c_Yxrs2pZeqEXVr2kiwWNTN2wkp9yDKLDir_ipNyrAaBni1T0CIfsH6efIW2OdfLu9ksKr4PusGnY53D0b8H6E20XQn6DrDemXDsBSfZLlJp9bQCQOa0XRYrvQNokj4NBJ7_hEQH_yFsMPxKl8N8Ms-JrQioRiAwWeCHQL__DoNvaZduWoRj00NvzeMc-TvfmwWs2thK3qMLGM0XiB6Ri3HoQTpxviYkGX6syO2xJr_VbFH9LS9Nmkd1wAOhw7DTIzb3SQs_ZkOT5TFU26LTzn6JEP2Yjp6K7q7De_MC3g5VOCmL3G4WKLghzlFnuGDoklNq_Qa6mXeHnQJ9pQc2ReDoJqPft2QX059e1Ff3Oj0zB4kj2bOcrhN_4vqnW5eA_6iknC1pqYDhLELAmVglTt1zxpiMrvX9Yo110LJaiOC1U4uO2YXOOAIaAOKiU0BG-CfVQ10d3wXS7ndoAEOXcC2wtT4JZ5t1UupFyDqFo7dills9QwP3ebmSZj1hWVjdtSOjM7dTu2hTRVknrLlsldao5vtiNqtnsFKy71t3xFXTq6FXLwQPZ_4EdVjtCzd__TBF_VnnUM5-xcR-NrVwPBMQgM_3zJ41zoecxEk-d3V_Y5MTopRTli7]--></g></svg>