<?xml version="1.0" encoding="us-ascii" standalone="no"?><svg xmlns="http://www.w3.org/2000/svg" xmlns:xlink="http://www.w3.org/1999/xlink" contentStyleType="text/css" height="1352px" preserveAspectRatio="none" style="width:2481px;height:1352px;background:#FFFFFF;" version="1.1" viewBox="0 0 2481 1352" width="2481px" zoomAndPan="magnify"><defs/><g><!--cluster analyzers--><g id="cluster_analyzers"><path d="M8.5,255 L87.5,255 A3.75,3.75 0 0 1 90,257.5 L97,277.2969 L1329.5,277.2969 A2.5,2.5 0 0 1 1332,279.7969 L1332,909 A2.5,2.5 0 0 1 1329.5,911.5 L8.5,911.5 A2.5,2.5 0 0 1 6,909 L6,257.5 A2.5,2.5 0 0 1 8.5,255 " fill="none" style="stroke:#000000;stroke-width:1.5;"/><line style="stroke:#000000;stroke-width:1.5;" x1="6" x2="97" y1="277.2969" y2="277.2969"/><text fill="#000000" font-family="sans-serif" font-size="14" font-weight="bold" lengthAdjust="spacing" textLength="78" x="10" y="269.9951">analyzers</text></g><!--class Analyzer--><g id="elem_Analyzer"><rect codeLine="104" fill="#FFFFFF" height="96.8906" id="Analyzer" rx="2.5" ry="2.5" style="stroke:#181818;stroke-width:0.5;" width="397" x="913.5" y="544"/><ellipse cx="1076.75" cy="560" fill="#A9DCDF" rx="11" ry="11" style="stroke:#181818;stroke-width:1.0;"/><path d="M1078.8281,561.8125 L1079.2188,562.7969 L1078.8281,562.7969 C1078.375,562.7969 1078.2656,562.8125 1078.1094,562.9219 C1077.8594,563.0781 1077.7031,563.3594 1077.7031,563.6563 C1077.7031,563.9219 1077.8438,564.1719 1078.0625,564.3281 C1078.2031,564.4531 1078.4063,564.5 1078.8281,564.5 L1081.1875,564.5 C1081.5469,564.5 1081.7656,564.4688 1081.9063,564.375 C1082.1563,564.2344 1082.3125,563.9375 1082.3125,563.6563 C1082.3125,563.375 1082.1719,563.125 1081.9531,562.9688 C1081.7813,562.8281 1081.625,562.7969 1081.1563,562.7969 L1077.7656,554.5938 L1074.0938,554.5938 C1073.6406,554.5938 1073.5156,554.6094 1073.3594,554.7031 C1073.1094,554.875 1072.9531,555.1563 1072.9531,555.4375 C1072.9531,555.7188 1073.0938,555.9688 1073.3125,556.1406 C1073.4844,556.25 1073.6563,556.2813 1074.0938,556.2813 L1075.1719,556.2813 L1072.5313,562.7969 C1072.1094,562.7969 1071.9531,562.8125 1071.7969,562.9219 C1071.5469,563.0781 1071.3906,563.3594 1071.3906,563.6563 C1071.3906,564.2188 1071.7656,564.5 1072.5156,564.5 L1074.7813,564.5 C1075.1406,564.5 1075.3594,564.4688 1075.4844,564.375 C1075.75,564.2344 1075.8906,563.9375 1075.8906,563.6563 C1075.8906,563.375 1075.7656,563.125 1075.5469,562.9531 C1075.375,562.8281 1075.2344,562.7969 1074.7813,562.7969 L1074.3906,562.7969 L1074.7813,561.8125 L1078.8281,561.8125 Z M1078.125,560.1094 L1075.4531,560.1094 L1076.7969,556.8438 L1078.125,560.1094 Z " fill="#000000"/><text fill="#000000" font-family="sans-serif" font-size="14" font-style="italic" lengthAdjust="spacing" textLength="62" x="1097.25" y="564.8467">Analyzer</text><line style="stroke:#181818;stroke-width:0.5;" x1="914.5" x2="1309.5" y1="576" y2="576"/><text fill="#000000" font-family="sans-serif" font-size="14" lengthAdjust="spacing" textLength="178" x="919.5" y="592.9951">#nextAnalyzer: Analyzer</text><line style="stroke:#181818;stroke-width:0.5;" x1="914.5" x2="1309.5" y1="600.2969" y2="600.2969"/><text fill="#000000" font-family="sans-serif" font-size="14" lengthAdjust="spacing" textLength="244" x="919.5" y="617.292">+Analyzer(Analyzer nextAnalyzer)</text><text fill="#000000" font-family="sans-serif" font-size="14" font-style="italic" lengthAdjust="spacing" textLength="385" x="919.5" y="633.5889">+getGamble(PlayerStatistics playerStatistics): Gamble</text></g><!--class GambleAnalyzer--><g id="elem_GambleAnalyzer"><rect codeLine="110" fill="#FFFFFF" height="129.4844" id="GambleAnalyzer" rx="2.5" ry="2.5" style="stroke:#181818;stroke-width:0.5;" width="408" x="908" y="290"/><ellipse cx="1048.75" cy="306" fill="#ADD1B2" rx="11" ry="11" style="stroke:#181818;stroke-width:1.0;"/><path d="M1051.0938,301.6719 C1050.1563,301.2344 1049.5625,301.0938 1048.6875,301.0938 C1046.0625,301.0938 1044.0625,303.1719 1044.0625,305.8906 L1044.0625,307.0156 C1044.0625,309.5938 1046.1719,311.4844 1049.0625,311.4844 C1050.2813,311.4844 1051.4375,311.1875 1052.1875,310.6406 C1052.7656,310.2344 1053.0938,309.7813 1053.0938,309.3906 C1053.0938,308.9375 1052.7031,308.5469 1052.2344,308.5469 C1052.0156,308.5469 1051.8125,308.625 1051.625,308.8125 C1051.1719,309.2969 1051.1719,309.2969 1050.9844,309.3906 C1050.5625,309.6563 1049.875,309.7813 1049.1094,309.7813 C1047.0625,309.7813 1045.7656,308.6875 1045.7656,306.9844 L1045.7656,305.8906 C1045.7656,304.1094 1047.0156,302.7969 1048.75,302.7969 C1049.3281,302.7969 1049.9375,302.9531 1050.4063,303.2031 C1050.8906,303.4844 1051.0625,303.7031 1051.1563,304.1094 C1051.2188,304.5156 1051.25,304.6406 1051.3906,304.7656 C1051.5313,304.9063 1051.7656,305.0156 1051.9844,305.0156 C1052.25,305.0156 1052.5156,304.875 1052.6875,304.6563 C1052.7969,304.5 1052.8281,304.3125 1052.8281,303.8906 L1052.8281,302.4688 C1052.8281,302.0313 1052.8125,301.9063 1052.7188,301.75 C1052.5625,301.4844 1052.2813,301.3438 1051.9844,301.3438 C1051.6875,301.3438 1051.4844,301.4375 1051.2656,301.75 L1051.0938,301.6719 Z " fill="#000000"/><text fill="#000000" font-family="sans-serif" font-size="14" lengthAdjust="spacing" textLength="118" x="1069.25" y="310.8467">GambleAnalyzer</text><line style="stroke:#181818;stroke-width:0.5;" x1="909" x2="1315" y1="322" y2="322"/><text fill="#000000" font-family="sans-serif" font-size="14" lengthAdjust="spacing" textLength="311" x="914" y="338.9951">-dobleParejaAnalyzer: DobleParejaAnalyzer</text><text fill="#000000" font-family="sans-serif" font-size="14" lengthAdjust="spacing" textLength="228" x="914" y="355.292">-parejaAnalyzer: ParejaAnalyzer</text><text fill="#000000" font-family="sans-serif" font-size="14" lengthAdjust="spacing" textLength="273" x="914" y="371.5889">-cartaAltaAnalyzer: CartaAltaAnalyzer</text><line style="stroke:#181818;stroke-width:0.5;" x1="909" x2="1315" y1="378.8906" y2="378.8906"/><text fill="#000000" font-family="sans-serif" font-size="14" lengthAdjust="spacing" textLength="139" x="914" y="395.8857">+GambleAnalyzer()</text><text fill="#000000" font-family="sans-serif" font-size="14" lengthAdjust="spacing" textLength="396" x="914" y="412.1826">+getGamble(PlayerStatistics playerStatistics): Gamble</text></g><!--class CartaAltaAnalyzer--><g id="elem_CartaAltaAnalyzer"><rect codeLine="118" fill="#FFFFFF" height="96.8906" id="CartaAltaAnalyzer" rx="2.5" ry="2.5" style="stroke:#181818;stroke-width:0.5;" width="408" x="22" y="798.5"/><ellipse cx="156.75" cy="814.5" fill="#ADD1B2" rx="11" ry="11" style="stroke:#181818;stroke-width:1.0;"/><path d="M159.0938,810.1719 C158.1563,809.7344 157.5625,809.5938 156.6875,809.5938 C154.0625,809.5938 152.0625,811.6719 152.0625,814.3906 L152.0625,815.5156 C152.0625,818.0938 154.1719,819.9844 157.0625,819.9844 C158.2813,819.9844 159.4375,819.6875 160.1875,819.1406 C160.7656,818.7344 161.0938,818.2813 161.0938,817.8906 C161.0938,817.4375 160.7031,817.0469 160.2344,817.0469 C160.0156,817.0469 159.8125,817.125 159.625,817.3125 C159.1719,817.7969 159.1719,817.7969 158.9844,817.8906 C158.5625,818.1563 157.875,818.2813 157.1094,818.2813 C155.0625,818.2813 153.7656,817.1875 153.7656,815.4844 L153.7656,814.3906 C153.7656,812.6094 155.0156,811.2969 156.75,811.2969 C157.3281,811.2969 157.9375,811.4531 158.4063,811.7031 C158.8906,811.9844 159.0625,812.2031 159.1563,812.6094 C159.2188,813.0156 159.25,813.1406 159.3906,813.2656 C159.5313,813.4063 159.7656,813.5156 159.9844,813.5156 C160.25,813.5156 160.5156,813.375 160.6875,813.1563 C160.7969,813 160.8281,812.8125 160.8281,812.3906 L160.8281,810.9688 C160.8281,810.5313 160.8125,810.4063 160.7188,810.25 C160.5625,809.9844 160.2813,809.8438 159.9844,809.8438 C159.6875,809.8438 159.4844,809.9375 159.2656,810.25 L159.0938,810.1719 Z " fill="#000000"/><text fill="#000000" font-family="sans-serif" font-size="14" lengthAdjust="spacing" textLength="130" x="177.25" y="819.3467">CartaAltaAnalyzer</text><line style="stroke:#181818;stroke-width:0.5;" x1="23" x2="429" y1="830.5" y2="830.5"/><line style="stroke:#181818;stroke-width:0.5;" x1="23" x2="429" y1="838.5" y2="838.5"/><text fill="#000000" font-family="sans-serif" font-size="14" lengthAdjust="spacing" textLength="151" x="28" y="855.4951">+CartaAltaAnalyzer()</text><text fill="#000000" font-family="sans-serif" font-size="14" lengthAdjust="spacing" textLength="277" x="28" y="871.792">+CartaAltaAnalyzer(Analyzer analyzer)</text><text fill="#000000" font-family="sans-serif" font-size="14" lengthAdjust="spacing" textLength="396" x="28" y="888.0889">+getGamble(PlayerStatistics playerStatistics): Gamble</text></g><!--class ParejaAnalyzer--><g id="elem_ParejaAnalyzer"><rect codeLine="123" fill="#FFFFFF" height="80.5938" id="ParejaAnalyzer" rx="2.5" ry="2.5" style="stroke:#181818;stroke-width:0.5;" width="408" x="465" y="806.5"/><ellipse cx="611.75" cy="822.5" fill="#ADD1B2" rx="11" ry="11" style="stroke:#181818;stroke-width:1.0;"/><path d="M614.0938,818.1719 C613.1563,817.7344 612.5625,817.5938 611.6875,817.5938 C609.0625,817.5938 607.0625,819.6719 607.0625,822.3906 L607.0625,823.5156 C607.0625,826.0938 609.1719,827.9844 612.0625,827.9844 C613.2813,827.9844 614.4375,827.6875 615.1875,827.1406 C615.7656,826.7344 616.0938,826.2813 616.0938,825.8906 C616.0938,825.4375 615.7031,825.0469 615.2344,825.0469 C615.0156,825.0469 614.8125,825.125 614.625,825.3125 C614.1719,825.7969 614.1719,825.7969 613.9844,825.8906 C613.5625,826.1563 612.875,826.2813 612.1094,826.2813 C610.0625,826.2813 608.7656,825.1875 608.7656,823.4844 L608.7656,822.3906 C608.7656,820.6094 610.0156,819.2969 611.75,819.2969 C612.3281,819.2969 612.9375,819.4531 613.4063,819.7031 C613.8906,819.9844 614.0625,820.2031 614.1563,820.6094 C614.2188,821.0156 614.25,821.1406 614.3906,821.2656 C614.5313,821.4063 614.7656,821.5156 614.9844,821.5156 C615.25,821.5156 615.5156,821.375 615.6875,821.1563 C615.7969,821 615.8281,820.8125 615.8281,820.3906 L615.8281,818.9688 C615.8281,818.5313 615.8125,818.4063 615.7188,818.25 C615.5625,817.9844 615.2813,817.8438 614.9844,817.8438 C614.6875,817.8438 614.4844,817.9375 614.2656,818.25 L614.0938,818.1719 Z " fill="#000000"/><text fill="#000000" font-family="sans-serif" font-size="14" lengthAdjust="spacing" textLength="106" x="632.25" y="827.3467">ParejaAnalyzer</text><line style="stroke:#181818;stroke-width:0.5;" x1="466" x2="872" y1="838.5" y2="838.5"/><line style="stroke:#181818;stroke-width:0.5;" x1="466" x2="872" y1="846.5" y2="846.5"/><text fill="#000000" font-family="sans-serif" font-size="14" lengthAdjust="spacing" textLength="253" x="471" y="863.4951">+ParejaAnalyzer(Analyzer analyzer)</text><text fill="#000000" font-family="sans-serif" font-size="14" lengthAdjust="spacing" textLength="396" x="471" y="879.792">+getGamble(PlayerStatistics playerStatistics): Gamble</text></g><!--class DobleParejaAnalyzer--><g id="elem_DobleParejaAnalyzer"><rect codeLine="127" fill="#FFFFFF" height="80.5938" id="DobleParejaAnalyzer" rx="2.5" ry="2.5" style="stroke:#181818;stroke-width:0.5;" width="408" x="908" y="806.5"/><ellipse cx="1033.25" cy="822.5" fill="#ADD1B2" rx="11" ry="11" style="stroke:#181818;stroke-width:1.0;"/><path d="M1035.5938,818.1719 C1034.6563,817.7344 1034.0625,817.5938 1033.1875,817.5938 C1030.5625,817.5938 1028.5625,819.6719 1028.5625,822.3906 L1028.5625,823.5156 C1028.5625,826.0938 1030.6719,827.9844 1033.5625,827.9844 C1034.7813,827.9844 1035.9375,827.6875 1036.6875,827.1406 C1037.2656,826.7344 1037.5938,826.2813 1037.5938,825.8906 C1037.5938,825.4375 1037.2031,825.0469 1036.7344,825.0469 C1036.5156,825.0469 1036.3125,825.125 1036.125,825.3125 C1035.6719,825.7969 1035.6719,825.7969 1035.4844,825.8906 C1035.0625,826.1563 1034.375,826.2813 1033.6094,826.2813 C1031.5625,826.2813 1030.2656,825.1875 1030.2656,823.4844 L1030.2656,822.3906 C1030.2656,820.6094 1031.5156,819.2969 1033.25,819.2969 C1033.8281,819.2969 1034.4375,819.4531 1034.9063,819.7031 C1035.3906,819.9844 1035.5625,820.2031 1035.6563,820.6094 C1035.7188,821.0156 1035.75,821.1406 1035.8906,821.2656 C1036.0313,821.4063 1036.2656,821.5156 1036.4844,821.5156 C1036.75,821.5156 1037.0156,821.375 1037.1875,821.1563 C1037.2969,821 1037.3281,820.8125 1037.3281,820.3906 L1037.3281,818.9688 C1037.3281,818.5313 1037.3125,818.4063 1037.2188,818.25 C1037.0625,817.9844 1036.7813,817.8438 1036.4844,817.8438 C1036.1875,817.8438 1035.9844,817.9375 1035.7656,818.25 L1035.5938,818.1719 Z " fill="#000000"/><text fill="#000000" font-family="sans-serif" font-size="14" lengthAdjust="spacing" textLength="149" x="1053.75" y="827.3467">DobleParejaAnalyzer</text><line style="stroke:#181818;stroke-width:0.5;" x1="909" x2="1315" y1="838.5" y2="838.5"/><line style="stroke:#181818;stroke-width:0.5;" x1="909" x2="1315" y1="846.5" y2="846.5"/><text fill="#000000" font-family="sans-serif" font-size="14" lengthAdjust="spacing" textLength="296" x="914" y="863.4951">+DobleParejaAnalyzer(Analyzer analyzer)</text><text fill="#000000" font-family="sans-serif" font-size="14" lengthAdjust="spacing" textLength="396" x="914" y="879.792">+getGamble(PlayerStatistics playerStatistics): Gamble</text></g><!--class Deck--><g id="elem_Deck"><rect codeLine="5" fill="#FFFFFF" height="96.8906" id="Deck" rx="2.5" ry="2.5" style="stroke:#181818;stroke-width:0.5;" width="171" x="2234.5" y="544"/><ellipse cx="2297.25" cy="560" fill="#ADD1B2" rx="11" ry="11" style="stroke:#181818;stroke-width:1.0;"/><path d="M2299.5938,555.6719 C2298.6563,555.2344 2298.0625,555.0938 2297.1875,555.0938 C2294.5625,555.0938 2292.5625,557.1719 2292.5625,559.8906 L2292.5625,561.0156 C2292.5625,563.5938 2294.6719,565.4844 2297.5625,565.4844 C2298.7813,565.4844 2299.9375,565.1875 2300.6875,564.6406 C2301.2656,564.2344 2301.5938,563.7813 2301.5938,563.3906 C2301.5938,562.9375 2301.2031,562.5469 2300.7344,562.5469 C2300.5156,562.5469 2300.3125,562.625 2300.125,562.8125 C2299.6719,563.2969 2299.6719,563.2969 2299.4844,563.3906 C2299.0625,563.6563 2298.375,563.7813 2297.6094,563.7813 C2295.5625,563.7813 2294.2656,562.6875 2294.2656,560.9844 L2294.2656,559.8906 C2294.2656,558.1094 2295.5156,556.7969 2297.25,556.7969 C2297.8281,556.7969 2298.4375,556.9531 2298.9063,557.2031 C2299.3906,557.4844 2299.5625,557.7031 2299.6563,558.1094 C2299.7188,558.5156 2299.75,558.6406 2299.8906,558.7656 C2300.0313,558.9063 2300.2656,559.0156 2300.4844,559.0156 C2300.75,559.0156 2301.0156,558.875 2301.1875,558.6563 C2301.2969,558.5 2301.3281,558.3125 2301.3281,557.8906 L2301.3281,556.4688 C2301.3281,556.0313 2301.3125,555.9063 2301.2188,555.75 C2301.0625,555.4844 2300.7813,555.3438 2300.4844,555.3438 C2300.1875,555.3438 2299.9844,555.4375 2299.7656,555.75 L2299.5938,555.6719 Z " fill="#000000"/><text fill="#000000" font-family="sans-serif" font-size="14" lengthAdjust="spacing" textLength="37" x="2317.75" y="564.8467">Deck</text><line style="stroke:#181818;stroke-width:0.5;" x1="2235.5" x2="2404.5" y1="576" y2="576"/><text fill="#000000" font-family="sans-serif" font-size="14" lengthAdjust="spacing" textLength="159" x="2240.5" y="592.9951">#cardList: List&lt;Card&gt;</text><line style="stroke:#181818;stroke-width:0.5;" x1="2235.5" x2="2404.5" y1="600.2969" y2="600.2969"/><text fill="#000000" font-family="sans-serif" font-size="14" lengthAdjust="spacing" textLength="58" x="2240.5" y="617.292">+Deck()</text><text fill="#000000" font-family="sans-serif" font-size="14" lengthAdjust="spacing" textLength="121" x="2240.5" y="633.5889">+getCard(): Card</text></g><!--class Card--><g id="elem_Card"><rect codeLine="11" fill="#FFFFFF" height="162.0781" id="Card" rx="2.5" ry="2.5" style="stroke:#181818;stroke-width:0.5;" width="230" x="2050" y="766"/><ellipse cx="2144.25" cy="782" fill="#ADD1B2" rx="11" ry="11" style="stroke:#181818;stroke-width:1.0;"/><path d="M2146.5938,777.6719 C2145.6563,777.2344 2145.0625,777.0938 2144.1875,777.0938 C2141.5625,777.0938 2139.5625,779.1719 2139.5625,781.8906 L2139.5625,783.0156 C2139.5625,785.5938 2141.6719,787.4844 2144.5625,787.4844 C2145.7813,787.4844 2146.9375,787.1875 2147.6875,786.6406 C2148.2656,786.2344 2148.5938,785.7813 2148.5938,785.3906 C2148.5938,784.9375 2148.2031,784.5469 2147.7344,784.5469 C2147.5156,784.5469 2147.3125,784.625 2147.125,784.8125 C2146.6719,785.2969 2146.6719,785.2969 2146.4844,785.3906 C2146.0625,785.6563 2145.375,785.7813 2144.6094,785.7813 C2142.5625,785.7813 2141.2656,784.6875 2141.2656,782.9844 L2141.2656,781.8906 C2141.2656,780.1094 2142.5156,778.7969 2144.25,778.7969 C2144.8281,778.7969 2145.4375,778.9531 2145.9063,779.2031 C2146.3906,779.4844 2146.5625,779.7031 2146.6563,780.1094 C2146.7188,780.5156 2146.75,780.6406 2146.8906,780.7656 C2147.0313,780.9063 2147.2656,781.0156 2147.4844,781.0156 C2147.75,781.0156 2148.0156,780.875 2148.1875,780.6563 C2148.2969,780.5 2148.3281,780.3125 2148.3281,779.8906 L2148.3281,778.4688 C2148.3281,778.0313 2148.3125,777.9063 2148.2188,777.75 C2148.0625,777.4844 2147.7813,777.3438 2147.4844,777.3438 C2147.1875,777.3438 2146.9844,777.4375 2146.7656,777.75 L2146.5938,777.6719 Z " fill="#000000"/><text fill="#000000" font-family="sans-serif" font-size="14" lengthAdjust="spacing" textLength="33" x="2164.75" y="786.8467">Card</text><line style="stroke:#181818;stroke-width:0.5;" x1="2051" x2="2279" y1="798" y2="798"/><text fill="#000000" font-family="sans-serif" font-size="14" lengthAdjust="spacing" textLength="87" x="2056" y="814.9951">-suite: Suite</text><text fill="#000000" font-family="sans-serif" font-size="14" lengthAdjust="spacing" textLength="91" x="2056" y="831.292">-value: Value</text><line style="stroke:#181818;stroke-width:0.5;" x1="2051" x2="2279" y1="838.5938" y2="838.5938"/><text fill="#000000" font-family="sans-serif" font-size="14" lengthAdjust="spacing" textLength="218" x="2056" y="855.5889">+Card(Suite suite, Value value)</text><text fill="#000000" font-family="sans-serif" font-size="14" lengthAdjust="spacing" textLength="210" x="2056" y="871.8857">+greater(Card card): boolean</text><text fill="#000000" font-family="sans-serif" font-size="14" lengthAdjust="spacing" textLength="133" x="2056" y="888.1826">+getValue(): Value</text><text fill="#000000" font-family="sans-serif" font-size="14" lengthAdjust="spacing" textLength="129" x="2056" y="904.4795">+getSuite(): Suite</text><text fill="#000000" font-family="sans-serif" font-size="14" lengthAdjust="spacing" textLength="134" x="2056" y="920.7764">+toString(): String</text></g><!--class GambleType--><g id="elem_GambleType"><rect codeLine="21" fill="#FFFFFF" height="243.5625" id="GambleType" rx="2.5" ry="2.5" style="stroke:#181818;stroke-width:0.5;" width="340" x="720" y="1045"/><ellipse cx="839.75" cy="1061" fill="#EB937F" rx="11" ry="11" style="stroke:#181818;stroke-width:1.0;"/><path d="M838.5469,1061.875 L840,1061.875 L840,1061.9844 C840,1062.3906 840.0313,1062.5469 840.1094,1062.7031 C840.2656,1062.9531 840.5469,1063.1094 840.8438,1063.1094 C841.0938,1063.1094 841.3594,1062.9688 841.5156,1062.75 C841.6406,1062.5938 841.6719,1062.4375 841.6719,1061.9844 L841.6719,1060.0625 C841.6719,1059.9063 841.6719,1059.8594 841.6563,1059.7031 C841.5938,1059.2344 841.2813,1058.9219 840.8281,1058.9219 C840.5781,1058.9219 840.3125,1059.0625 840.1406,1059.2813 C840.0313,1059.4531 840,1059.6094 840,1060.0625 L840,1060.1875 L838.5469,1060.1875 L838.5469,1057.7813 L842.5313,1057.7813 L842.5313,1058.6406 C842.5313,1059.0469 842.5625,1059.2188 842.6406,1059.375 C842.8125,1059.625 843.0938,1059.7813 843.375,1059.7813 C843.6406,1059.7813 843.9063,1059.6406 844.0781,1059.4219 C844.1875,1059.25 844.2188,1059.1094 844.2188,1058.6406 L844.2188,1056.0938 L836.5938,1056.0938 C836.1563,1056.0938 836.0313,1056.1094 835.875,1056.2031 C835.625,1056.3594 835.4688,1056.6563 835.4688,1056.9375 C835.4688,1057.2188 835.6094,1057.4688 835.8281,1057.6406 C835.9844,1057.75 836.1719,1057.7813 836.5938,1057.7813 L836.8438,1057.7813 L836.8438,1064.2969 L836.5938,1064.2969 C836.1875,1064.2969 836.0313,1064.3125 835.875,1064.4219 C835.625,1064.5938 835.4688,1064.8594 835.4688,1065.1563 C835.4688,1065.4219 835.6094,1065.6719 835.8281,1065.8281 C835.9688,1065.9531 836.2031,1066 836.5938,1066 L844.5938,1066 L844.5938,1063.4219 C844.5938,1062.9844 844.5625,1062.8438 844.4844,1062.6875 C844.3125,1062.4375 844.0313,1062.2813 843.75,1062.2813 C843.4844,1062.2813 843.2188,1062.3906 843.0469,1062.6406 C842.9375,1062.7969 842.9063,1062.9375 842.9063,1063.4219 L842.9063,1064.2969 L838.5469,1064.2969 L838.5469,1061.875 Z " fill="#000000"/><text fill="#000000" font-family="sans-serif" font-size="14" lengthAdjust="spacing" textLength="92" x="860.25" y="1065.8467">GambleType</text><line style="stroke:#181818;stroke-width:0.5;" x1="721" x2="1059" y1="1077" y2="1077"/><text fill="#000000" font-family="sans-serif" font-size="14" lengthAdjust="spacing" textLength="93" x="726" y="1093.9951">CARTA_ALTA</text><text fill="#000000" font-family="sans-serif" font-size="14" lengthAdjust="spacing" textLength="52" x="726" y="1110.292">PAREJA</text><text fill="#000000" font-family="sans-serif" font-size="14" lengthAdjust="spacing" textLength="108" x="726" y="1126.5889">DOBLE_PAREJA</text><text fill="#000000" font-family="sans-serif" font-size="14" lengthAdjust="spacing" textLength="34" x="726" y="1142.8857">TRIO</text><text fill="#000000" font-family="sans-serif" font-size="14" lengthAdjust="spacing" textLength="75" x="726" y="1159.1826">ESCALERA</text><text fill="#000000" font-family="sans-serif" font-size="14" lengthAdjust="spacing" textLength="50" x="726" y="1175.4795">COLOR</text><text fill="#000000" font-family="sans-serif" font-size="14" lengthAdjust="spacing" textLength="33" x="726" y="1191.7764">FULL</text><text fill="#000000" font-family="sans-serif" font-size="14" lengthAdjust="spacing" textLength="59" x="726" y="1208.0732">POQUER</text><text fill="#000000" font-family="sans-serif" font-size="14" lengthAdjust="spacing" textLength="132" x="726" y="1224.3701">ESCALERA_COLOR</text><text fill="#000000" font-family="sans-serif" font-size="14" lengthAdjust="spacing" textLength="119" x="726" y="1240.667">ESCALERA_REAL</text><line style="stroke:#181818;stroke-width:0.5;" x1="721" x2="1059" y1="1247.9688" y2="1247.9688"/><text fill="#000000" font-family="sans-serif" font-size="14" lengthAdjust="spacing" textLength="319" x="726" y="1264.9639">+equals(GambleType gambleType): boolean</text><text fill="#000000" font-family="sans-serif" font-size="14" lengthAdjust="spacing" textLength="328" x="726" y="1281.2607">+greater(GambleType gambleType): boolean</text></g><!--class Player--><g id="elem_Player"><rect codeLine="36" fill="#FFFFFF" height="162.0781" id="Player" rx="2.5" ry="2.5" style="stroke:#181818;stroke-width:0.5;" width="270" x="1627" y="7"/><ellipse cx="1735.75" cy="23" fill="#ADD1B2" rx="11" ry="11" style="stroke:#181818;stroke-width:1.0;"/><path d="M1738.0938,18.6719 C1737.1563,18.2344 1736.5625,18.0938 1735.6875,18.0938 C1733.0625,18.0938 1731.0625,20.1719 1731.0625,22.8906 L1731.0625,24.0156 C1731.0625,26.5938 1733.1719,28.4844 1736.0625,28.4844 C1737.2813,28.4844 1738.4375,28.1875 1739.1875,27.6406 C1739.7656,27.2344 1740.0938,26.7813 1740.0938,26.3906 C1740.0938,25.9375 1739.7031,25.5469 1739.2344,25.5469 C1739.0156,25.5469 1738.8125,25.625 1738.625,25.8125 C1738.1719,26.2969 1738.1719,26.2969 1737.9844,26.3906 C1737.5625,26.6563 1736.875,26.7813 1736.1094,26.7813 C1734.0625,26.7813 1732.7656,25.6875 1732.7656,23.9844 L1732.7656,22.8906 C1732.7656,21.1094 1734.0156,19.7969 1735.75,19.7969 C1736.3281,19.7969 1736.9375,19.9531 1737.4063,20.2031 C1737.8906,20.4844 1738.0625,20.7031 1738.1563,21.1094 C1738.2188,21.5156 1738.25,21.6406 1738.3906,21.7656 C1738.5313,21.9063 1738.7656,22.0156 1738.9844,22.0156 C1739.25,22.0156 1739.5156,21.875 1739.6875,21.6563 C1739.7969,21.5 1739.8281,21.3125 1739.8281,20.8906 L1739.8281,19.4688 C1739.8281,19.0313 1739.8125,18.9063 1739.7188,18.75 C1739.5625,18.4844 1739.2813,18.3438 1738.9844,18.3438 C1738.6875,18.3438 1738.4844,18.4375 1738.2656,18.75 L1738.0938,18.6719 Z " fill="#000000"/><text fill="#000000" font-family="sans-serif" font-size="14" lengthAdjust="spacing" textLength="44" x="1756.25" y="27.8467">Player</text><line style="stroke:#181818;stroke-width:0.5;" x1="1628" x2="1896" y1="39" y2="39"/><text fill="#000000" font-family="sans-serif" font-size="14" lengthAdjust="spacing" textLength="153" x="1633" y="55.9951">-cardList: List&lt;Card&gt;</text><text fill="#000000" font-family="sans-serif" font-size="14" lengthAdjust="spacing" textLength="125" x="1633" y="72.292">-gamble: Gamble</text><line style="stroke:#181818;stroke-width:0.5;" x1="1628" x2="1896" y1="79.5938" y2="79.5938"/><text fill="#000000" font-family="sans-serif" font-size="14" lengthAdjust="spacing" textLength="65" x="1633" y="96.5889">+Player()</text><text fill="#000000" font-family="sans-serif" font-size="14" lengthAdjust="spacing" textLength="115" x="1633" y="112.8857">+add(Card card)</text><text fill="#000000" font-family="sans-serif" font-size="14" lengthAdjust="spacing" textLength="258" x="1633" y="129.1826">+whoIsWinner(Player player): Player</text><text fill="#000000" font-family="sans-serif" font-size="14" lengthAdjust="spacing" textLength="134" x="1633" y="145.4795">+toString(): String</text><text fill="#000000" font-family="sans-serif" font-size="14" lengthAdjust="spacing" textLength="162" x="1633" y="161.7764">-getGamble(): Gamble</text></g><!--class Suite--><g id="elem_Suite"><rect codeLine="46" fill="#FFFFFF" height="194.6719" id="Suite" rx="2.5" ry="2.5" style="stroke:#181818;stroke-width:0.5;" width="191" x="2069.5" y="1069.5"/><ellipse cx="2142.25" cy="1085.5" fill="#EB937F" rx="11" ry="11" style="stroke:#181818;stroke-width:1.0;"/><path d="M2141.0469,1086.375 L2142.5,1086.375 L2142.5,1086.4844 C2142.5,1086.8906 2142.5313,1087.0469 2142.6094,1087.2031 C2142.7656,1087.4531 2143.0469,1087.6094 2143.3438,1087.6094 C2143.5938,1087.6094 2143.8594,1087.4688 2144.0156,1087.25 C2144.1406,1087.0938 2144.1719,1086.9375 2144.1719,1086.4844 L2144.1719,1084.5625 C2144.1719,1084.4063 2144.1719,1084.3594 2144.1563,1084.2031 C2144.0938,1083.7344 2143.7813,1083.4219 2143.3281,1083.4219 C2143.0781,1083.4219 2142.8125,1083.5625 2142.6406,1083.7813 C2142.5313,1083.9531 2142.5,1084.1094 2142.5,1084.5625 L2142.5,1084.6875 L2141.0469,1084.6875 L2141.0469,1082.2813 L2145.0313,1082.2813 L2145.0313,1083.1406 C2145.0313,1083.5469 2145.0625,1083.7188 2145.1406,1083.875 C2145.3125,1084.125 2145.5938,1084.2813 2145.875,1084.2813 C2146.1406,1084.2813 2146.4063,1084.1406 2146.5781,1083.9219 C2146.6875,1083.75 2146.7188,1083.6094 2146.7188,1083.1406 L2146.7188,1080.5938 L2139.0938,1080.5938 C2138.6563,1080.5938 2138.5313,1080.6094 2138.375,1080.7031 C2138.125,1080.8594 2137.9688,1081.1563 2137.9688,1081.4375 C2137.9688,1081.7188 2138.1094,1081.9688 2138.3281,1082.1406 C2138.4844,1082.25 2138.6719,1082.2813 2139.0938,1082.2813 L2139.3438,1082.2813 L2139.3438,1088.7969 L2139.0938,1088.7969 C2138.6875,1088.7969 2138.5313,1088.8125 2138.375,1088.9219 C2138.125,1089.0938 2137.9688,1089.3594 2137.9688,1089.6563 C2137.9688,1089.9219 2138.1094,1090.1719 2138.3281,1090.3281 C2138.4688,1090.4531 2138.7031,1090.5 2139.0938,1090.5 L2147.0938,1090.5 L2147.0938,1087.9219 C2147.0938,1087.4844 2147.0625,1087.3438 2146.9844,1087.1875 C2146.8125,1086.9375 2146.5313,1086.7813 2146.25,1086.7813 C2145.9844,1086.7813 2145.7188,1086.8906 2145.5469,1087.1406 C2145.4375,1087.2969 2145.4063,1087.4375 2145.4063,1087.9219 L2145.4063,1088.7969 L2141.0469,1088.7969 L2141.0469,1086.375 Z " fill="#000000"/><text fill="#000000" font-family="sans-serif" font-size="14" lengthAdjust="spacing" textLength="37" x="2162.75" y="1090.3467">Suite</text><line style="stroke:#181818;stroke-width:0.5;" x1="2070.5" x2="2259.5" y1="1101.5" y2="1101.5"/><text fill="#000000" font-family="sans-serif" font-size="14" lengthAdjust="spacing" textLength="90" x="2075.5" y="1118.4951">CORAZONES</text><text fill="#000000" font-family="sans-serif" font-size="14" lengthAdjust="spacing" textLength="84" x="2075.5" y="1134.792">DIAMANTES</text><text fill="#000000" font-family="sans-serif" font-size="14" lengthAdjust="spacing" textLength="42" x="2075.5" y="1151.0889">PICAS</text><text fill="#000000" font-family="sans-serif" font-size="14" lengthAdjust="spacing" textLength="75" x="2075.5" y="1167.3857">TREBOLES</text><text fill="#000000" font-family="sans-serif" font-size="14" lengthAdjust="spacing" textLength="90" x="2075.5" y="1183.6826">-title: String</text><line style="stroke:#181818;stroke-width:0.5;" x1="2070.5" x2="2259.5" y1="1190.9844" y2="1190.9844"/><text fill="#000000" font-family="sans-serif" font-size="14" lengthAdjust="spacing" textLength="132" x="2075.5" y="1207.9795">-Suite(String title)</text><text fill="#000000" font-family="sans-serif" font-size="14" lengthAdjust="spacing" textLength="95" x="2075.5" y="1224.2764">-next(): Suite</text><text fill="#000000" font-family="sans-serif" font-size="14" lengthAdjust="spacing" textLength="132" x="2075.5" y="1240.5732">+getTitle(): String</text><text fill="#000000" font-family="sans-serif" font-size="14" lengthAdjust="spacing" textLength="179" x="2075.5" y="1256.8701">+next(int amount): Suite</text></g><!--class Value--><g id="elem_Value"><rect codeLine="58" fill="#FFFFFF" height="357.6406" id="Value" rx="2.5" ry="2.5" style="stroke:#181818;stroke-width:0.5;" width="234" x="1470" y="988"/><ellipse cx="1563.25" cy="1004" fill="#EB937F" rx="11" ry="11" style="stroke:#181818;stroke-width:1.0;"/><path d="M1562.0469,1004.875 L1563.5,1004.875 L1563.5,1004.9844 C1563.5,1005.3906 1563.5313,1005.5469 1563.6094,1005.7031 C1563.7656,1005.9531 1564.0469,1006.1094 1564.3438,1006.1094 C1564.5938,1006.1094 1564.8594,1005.9688 1565.0156,1005.75 C1565.1406,1005.5938 1565.1719,1005.4375 1565.1719,1004.9844 L1565.1719,1003.0625 C1565.1719,1002.9063 1565.1719,1002.8594 1565.1563,1002.7031 C1565.0938,1002.2344 1564.7813,1001.9219 1564.3281,1001.9219 C1564.0781,1001.9219 1563.8125,1002.0625 1563.6406,1002.2813 C1563.5313,1002.4531 1563.5,1002.6094 1563.5,1003.0625 L1563.5,1003.1875 L1562.0469,1003.1875 L1562.0469,1000.7813 L1566.0313,1000.7813 L1566.0313,1001.6406 C1566.0313,1002.0469 1566.0625,1002.2188 1566.1406,1002.375 C1566.3125,1002.625 1566.5938,1002.7813 1566.875,1002.7813 C1567.1406,1002.7813 1567.4063,1002.6406 1567.5781,1002.4219 C1567.6875,1002.25 1567.7188,1002.1094 1567.7188,1001.6406 L1567.7188,999.0938 L1560.0938,999.0938 C1559.6563,999.0938 1559.5313,999.1094 1559.375,999.2031 C1559.125,999.3594 1558.9688,999.6563 1558.9688,999.9375 C1558.9688,1000.2188 1559.1094,1000.4688 1559.3281,1000.6406 C1559.4844,1000.75 1559.6719,1000.7813 1560.0938,1000.7813 L1560.3438,1000.7813 L1560.3438,1007.2969 L1560.0938,1007.2969 C1559.6875,1007.2969 1559.5313,1007.3125 1559.375,1007.4219 C1559.125,1007.5938 1558.9688,1007.8594 1558.9688,1008.1563 C1558.9688,1008.4219 1559.1094,1008.6719 1559.3281,1008.8281 C1559.4688,1008.9531 1559.7031,1009 1560.0938,1009 L1568.0938,1009 L1568.0938,1006.4219 C1568.0938,1005.9844 1568.0625,1005.8438 1567.9844,1005.6875 C1567.8125,1005.4375 1567.5313,1005.2813 1567.25,1005.2813 C1566.9844,1005.2813 1566.7188,1005.3906 1566.5469,1005.6406 C1566.4375,1005.7969 1566.4063,1005.9375 1566.4063,1006.4219 L1566.4063,1007.2969 L1562.0469,1007.2969 L1562.0469,1004.875 Z " fill="#000000"/><text fill="#000000" font-family="sans-serif" font-size="14" lengthAdjust="spacing" textLength="39" x="1583.75" y="1008.8467">Value</text><line style="stroke:#181818;stroke-width:0.5;" x1="1471" x2="1703" y1="1020" y2="1020"/><text fill="#000000" font-family="sans-serif" font-size="14" lengthAdjust="spacing" textLength="31" x="1476" y="1036.9951">DOS</text><text fill="#000000" font-family="sans-serif" font-size="14" lengthAdjust="spacing" textLength="37" x="1476" y="1053.292">TRES</text><text fill="#000000" font-family="sans-serif" font-size="14" lengthAdjust="spacing" textLength="59" x="1476" y="1069.5889">CUATRO</text><text fill="#000000" font-family="sans-serif" font-size="14" lengthAdjust="spacing" textLength="45" x="1476" y="1085.8857">CINCO</text><text fill="#000000" font-family="sans-serif" font-size="14" lengthAdjust="spacing" textLength="31" x="1476" y="1102.1826">SEIS</text><text fill="#000000" font-family="sans-serif" font-size="14" lengthAdjust="spacing" textLength="40" x="1476" y="1118.4795">SIETE</text><text fill="#000000" font-family="sans-serif" font-size="14" lengthAdjust="spacing" textLength="42" x="1476" y="1134.7764">OCHO</text><text fill="#000000" font-family="sans-serif" font-size="14" lengthAdjust="spacing" textLength="47" x="1476" y="1151.0732">NUEVE</text><text fill="#000000" font-family="sans-serif" font-size="14" lengthAdjust="spacing" textLength="34" x="1476" y="1167.3701">DIEZ</text><text fill="#000000" font-family="sans-serif" font-size="14" lengthAdjust="spacing" textLength="60" x="1476" y="1183.667">INFANTE</text><text fill="#000000" font-family="sans-serif" font-size="14" lengthAdjust="spacing" textLength="43" x="1476" y="1199.9639">REINA</text><text fill="#000000" font-family="sans-serif" font-size="14" lengthAdjust="spacing" textLength="28" x="1476" y="1216.2607">REY</text><text fill="#000000" font-family="sans-serif" font-size="14" lengthAdjust="spacing" textLength="19" x="1476" y="1232.5576">AS</text><text fill="#000000" font-family="sans-serif" font-size="14" lengthAdjust="spacing" textLength="90" x="1476" y="1248.8545">-title: String</text><line style="stroke:#181818;stroke-width:0.5;" x1="1471" x2="1703" y1="1256.1563" y2="1256.1563"/><text fill="#000000" font-family="sans-serif" font-size="14" lengthAdjust="spacing" textLength="134" x="1476" y="1273.1514">-Value(String title)</text><text fill="#000000" font-family="sans-serif" font-size="14" lengthAdjust="spacing" textLength="132" x="1476" y="1289.4482">+getTitle(): String</text><text fill="#000000" font-family="sans-serif" font-size="14" lengthAdjust="spacing" textLength="222" x="1476" y="1305.7451">+greater(Value value): boolean</text><text fill="#000000" font-family="sans-serif" font-size="14" lengthAdjust="spacing" textLength="181" x="1476" y="1322.042">+next(int amount): Value</text><text fill="#000000" font-family="sans-serif" font-size="14" lengthAdjust="spacing" textLength="97" x="1476" y="1338.3389">-next(): Value</text></g><!--class Gamble--><g id="elem_Gamble"><rect codeLine="80" fill="#FFFFFF" height="145.7813" id="Gamble" rx="2.5" ry="2.5" style="stroke:#181818;stroke-width:0.5;" width="477" x="1348.5" y="519.5"/><ellipse cx="1554.75" cy="535.5" fill="#ADD1B2" rx="11" ry="11" style="stroke:#181818;stroke-width:1.0;"/><path d="M1557.0938,531.1719 C1556.1563,530.7344 1555.5625,530.5938 1554.6875,530.5938 C1552.0625,530.5938 1550.0625,532.6719 1550.0625,535.3906 L1550.0625,536.5156 C1550.0625,539.0938 1552.1719,540.9844 1555.0625,540.9844 C1556.2813,540.9844 1557.4375,540.6875 1558.1875,540.1406 C1558.7656,539.7344 1559.0938,539.2813 1559.0938,538.8906 C1559.0938,538.4375 1558.7031,538.0469 1558.2344,538.0469 C1558.0156,538.0469 1557.8125,538.125 1557.625,538.3125 C1557.1719,538.7969 1557.1719,538.7969 1556.9844,538.8906 C1556.5625,539.1563 1555.875,539.2813 1555.1094,539.2813 C1553.0625,539.2813 1551.7656,538.1875 1551.7656,536.4844 L1551.7656,535.3906 C1551.7656,533.6094 1553.0156,532.2969 1554.75,532.2969 C1555.3281,532.2969 1555.9375,532.4531 1556.4063,532.7031 C1556.8906,532.9844 1557.0625,533.2031 1557.1563,533.6094 C1557.2188,534.0156 1557.25,534.1406 1557.3906,534.2656 C1557.5313,534.4063 1557.7656,534.5156 1557.9844,534.5156 C1558.25,534.5156 1558.5156,534.375 1558.6875,534.1563 C1558.7969,534 1558.8281,533.8125 1558.8281,533.3906 L1558.8281,531.9688 C1558.8281,531.5313 1558.8125,531.4063 1558.7188,531.25 C1558.5625,530.9844 1558.2813,530.8438 1557.9844,530.8438 C1557.6875,530.8438 1557.4844,530.9375 1557.2656,531.25 L1557.0938,531.1719 Z " fill="#000000"/><text fill="#000000" font-family="sans-serif" font-size="14" lengthAdjust="spacing" textLength="56" x="1575.25" y="540.3467">Gamble</text><line style="stroke:#181818;stroke-width:0.5;" x1="1349.5" x2="1824.5" y1="551.5" y2="551.5"/><text fill="#000000" font-family="sans-serif" font-size="14" lengthAdjust="spacing" textLength="203" x="1354.5" y="568.4951">#gambleType: GambleType</text><text fill="#000000" font-family="sans-serif" font-size="14" lengthAdjust="spacing" textLength="205" x="1354.5" y="584.792">-orderedValues: List&lt;Value&gt;</text><line style="stroke:#181818;stroke-width:0.5;" x1="1349.5" x2="1824.5" y1="592.0938" y2="592.0938"/><text fill="#000000" font-family="sans-serif" font-size="14" lengthAdjust="spacing" textLength="465" x="1354.5" y="609.0889">+Gamble(GambleType gambleType, List&lt;Value&gt; orderedValues)</text><text fill="#000000" font-family="sans-serif" font-size="14" lengthAdjust="spacing" textLength="291" x="1354.5" y="625.3857">+whoIsWinner(Gamble gamble): Gamble</text><text fill="#000000" font-family="sans-serif" font-size="14" lengthAdjust="spacing" textLength="452" x="1354.5" y="641.6826">-whoIsWinnerWithSameGambleType(Gamble gamble): Gamble</text><text fill="#000000" font-family="sans-serif" font-size="14" lengthAdjust="spacing" textLength="134" x="1354.5" y="657.9795">+toString(): String</text></g><!--class PlayerStatistics--><g id="elem_PlayerStatistics"><rect codeLine="89" fill="#FFFFFF" height="227.2656" id="PlayerStatistics" rx="2.5" ry="2.5" style="stroke:#181818;stroke-width:0.5;" width="338" x="1861" y="479"/><ellipse cx="1969.75" cy="495" fill="#ADD1B2" rx="11" ry="11" style="stroke:#181818;stroke-width:1.0;"/><path d="M1972.0938,490.6719 C1971.1563,490.2344 1970.5625,490.0938 1969.6875,490.0938 C1967.0625,490.0938 1965.0625,492.1719 1965.0625,494.8906 L1965.0625,496.0156 C1965.0625,498.5938 1967.1719,500.4844 1970.0625,500.4844 C1971.2813,500.4844 1972.4375,500.1875 1973.1875,499.6406 C1973.7656,499.2344 1974.0938,498.7813 1974.0938,498.3906 C1974.0938,497.9375 1973.7031,497.5469 1973.2344,497.5469 C1973.0156,497.5469 1972.8125,497.625 1972.625,497.8125 C1972.1719,498.2969 1972.1719,498.2969 1971.9844,498.3906 C1971.5625,498.6563 1970.875,498.7813 1970.1094,498.7813 C1968.0625,498.7813 1966.7656,497.6875 1966.7656,495.9844 L1966.7656,494.8906 C1966.7656,493.1094 1968.0156,491.7969 1969.75,491.7969 C1970.3281,491.7969 1970.9375,491.9531 1971.4063,492.2031 C1971.8906,492.4844 1972.0625,492.7031 1972.1563,493.1094 C1972.2188,493.5156 1972.25,493.6406 1972.3906,493.7656 C1972.5313,493.9063 1972.7656,494.0156 1972.9844,494.0156 C1973.25,494.0156 1973.5156,493.875 1973.6875,493.6563 C1973.7969,493.5 1973.8281,493.3125 1973.8281,492.8906 L1973.8281,491.4688 C1973.8281,491.0313 1973.8125,490.9063 1973.7188,490.75 C1973.5625,490.4844 1973.2813,490.3438 1972.9844,490.3438 C1972.6875,490.3438 1972.4844,490.4375 1972.2656,490.75 L1972.0938,490.6719 Z " fill="#000000"/><text fill="#000000" font-family="sans-serif" font-size="14" lengthAdjust="spacing" textLength="112" x="1990.25" y="499.8467">PlayerStatistics</text><line style="stroke:#181818;stroke-width:0.5;" x1="1862" x2="2198" y1="511" y2="511"/><text fill="#000000" font-family="sans-serif" font-size="14" lengthAdjust="spacing" textLength="124" x="1867" y="527.9951">-valuesCont: int[]</text><text fill="#000000" font-family="sans-serif" font-size="14" lengthAdjust="spacing" textLength="122" x="1867" y="544.292">-suitesCont: int[]</text><line style="stroke:#181818;stroke-width:0.5;" x1="1862" x2="2198" y1="551.5938" y2="551.5938"/><text fill="#000000" font-family="sans-serif" font-size="14" lengthAdjust="spacing" textLength="275" x="1867" y="568.5889">+PlayerStatistics(List&lt;Card&gt; cardList)</text><text fill="#000000" font-family="sans-serif" font-size="14" lengthAdjust="spacing" textLength="161" x="1867" y="584.8857">+getMaxValue(): Value</text><text fill="#000000" font-family="sans-serif" font-size="14" lengthAdjust="spacing" textLength="270" x="1867" y="601.1826">+hasSameValue(int amount): boolean</text><text fill="#000000" font-family="sans-serif" font-size="14" lengthAdjust="spacing" textLength="269" x="1867" y="617.4795">+hasSameColor(int amount): boolean</text><text fill="#000000" font-family="sans-serif" font-size="14" lengthAdjust="spacing" textLength="175" x="1867" y="633.7764">+hasTwoPairs(): boolean</text><text fill="#000000" font-family="sans-serif" font-size="14" lengthAdjust="spacing" textLength="326" x="1867" y="650.0732">+getOrderedValues(int amount): List&lt;Value&gt;</text><text fill="#000000" font-family="sans-serif" font-size="14" lengthAdjust="spacing" textLength="247" x="1867" y="666.3701">+getOrderedValues(): List&lt;Value&gt;</text><text fill="#000000" font-family="sans-serif" font-size="14" lengthAdjust="spacing" textLength="263" x="1867" y="682.667">+hasStairStart(Value value): boolean</text><text fill="#000000" font-family="sans-serif" font-size="14" lengthAdjust="spacing" textLength="146" x="1867" y="698.9639">+hasStair(): boolean</text></g><!--reverse link Deck to Card--><g id="link_Deck_Card"><path codeLine="133" d="M2284.3835,651.5177 C2262.8435,686.6177 2239.34,724.895 2214.18,765.88 " fill="none" id="Deck-backto-Card" style="stroke:#181818;stroke-width:1.0;"/><polygon fill="#181818" points="2290.66,641.29,2284.1125,644.3117,2284.3835,651.5177,2290.931,648.496,2290.66,641.29" style="stroke:#181818;stroke-width:1.0;"/><text fill="#000000" font-family="sans-serif" font-size="13" lengthAdjust="spacing" textLength="7" x="2211.2484" y="755.0566">*</text></g><!--reverse link Player to Card--><g id="link_Player_Card"><path codeLine="135" d="M1908.7345,128.3687 C2067.1145,178.3087 2310.59,282.16 2423,479 C2473.03,566.61 2474.59,619.302 2423,706 C2391.86,758.333 2333.57,792.314 2280.27,813.673 " fill="none" id="Player-backto-Card" style="stroke:#181818;stroke-width:1.0;"/><polygon fill="#181818" points="1897.29,124.76,1901.8094,130.3792,1908.7345,128.3687,1904.2152,122.7495,1897.29,124.76" style="stroke:#181818;stroke-width:1.0;"/><text fill="#000000" font-family="sans-serif" font-size="13" lengthAdjust="spacing" textLength="7" x="2287.8787" y="808.1262">*</text></g><!--reverse link Player to GambleAnalyzer--><g id="link_Player_GambleAnalyzer"><path codeLine="136" d="M1615.805,148.4929 C1511.385,190.9829 1377.77,245.35 1268.33,289.88 " fill="none" id="Player-backto-GambleAnalyzer" style="stroke:#181818;stroke-width:1.0;"/><polygon fill="#181818" points="1626.92,143.97,1619.8549,142.5264,1615.805,148.4929,1622.8701,149.9364,1626.92,143.97" style="stroke:#181818;stroke-width:1.0;"/></g><!--link Player to Gamble--><g id="link_Player_Gamble"><path codeLine="137" d="M1734.08,169.18 C1700.45,265.74 1646.4333,420.8488 1614.1033,513.6818 " fill="none" id="Player-to-Gamble" style="stroke:#181818;stroke-width:1.0;"/><polygon fill="#181818" points="1612.13,519.348,1618.8675,512.1642,1613.7744,514.6262,1611.3125,509.5331,1612.13,519.348" style="stroke:#181818;stroke-width:1.0;"/></g><!--reverse link Player to PlayerStatistics--><g id="link_Player_PlayerStatistics"><path codeLine="138" d="M1810.4071,179.7682 C1855.0371,263.4482 1919.74,384.755 1969.93,478.873 " fill="none" id="Player-backto-PlayerStatistics" style="stroke:#181818;stroke-width:1.0;"/><polygon fill="#181818" points="1804.76,169.18,1804.0542,176.3565,1810.4071,179.7682,1811.113,172.5917,1804.76,169.18" style="stroke:#181818;stroke-width:1.0;"/></g><!--link PlayerStatistics to Card--><g id="link_PlayerStatistics_Card"><path codeLine="140" d="M2090.2,706.089 C2100.95,726.21 2109.1307,741.508 2119.2807,760.489 " fill="none" id="PlayerStatistics-to-Card" style="stroke:#181818;stroke-width:1.0;"/><polygon fill="#181818" points="2122.11,765.78,2121.3933,755.9573,2119.7522,761.3708,2114.3386,759.7297,2122.11,765.78" style="stroke:#181818;stroke-width:1.0;"/><text fill="#000000" font-family="sans-serif" font-size="13" lengthAdjust="spacing" textLength="7" x="2110.9784" y="754.9477">*</text></g><!--reverse link PlayerStatistics to Value--><g id="link_PlayerStatistics_Value"><path codeLine="141" d="M1935.3961,715.7564 C1867.1461,803.9544 1778.95,917.941 1704.06,1014.723 " fill="none" id="PlayerStatistics-backto-Value" style="stroke:#181818;stroke-width:1.0;"/><polygon fill="#181818" points="1942.74,706.266,1935.9046,708.5632,1935.3961,715.7564,1942.2315,713.4592,1942.74,706.266" style="stroke:#181818;stroke-width:1.0;"/><text fill="#000000" font-family="sans-serif" font-size="13" lengthAdjust="spacing" textLength="7" x="1712.1601" y="1001.0714">*</text></g><!--link Gamble to GambleType--><g id="link_Gamble_GambleType"><path codeLine="143" d="M1544.86,665.626 C1499.46,738.69 1421.55,851.542 1332,928 C1251.14,997.041 1152.385,1051.7668 1065.485,1092.8248 " fill="none" id="Gamble-to-GambleType" style="stroke:#181818;stroke-width:1.0;"/><polygon fill="#181818" points="1060.06,1095.388,1069.9062,1095.1599,1064.5808,1093.252,1066.4887,1087.9266,1060.06,1095.388" style="stroke:#181818;stroke-width:1.0;"/></g><!--link Gamble to Value--><g id="link_Gamble_Value"><path codeLine="144" d="M1587,665.717 C1587,746.128 1587,873.076 1587,981.714 " fill="none" id="Gamble-to-Value" style="stroke:#181818;stroke-width:1.0;"/><polygon fill="#181818" points="1587,987.714,1591,978.714,1587,982.714,1583,978.714,1587,987.714" style="stroke:#181818;stroke-width:1.0;"/><text fill="#000000" font-family="sans-serif" font-size="13" lengthAdjust="spacing" textLength="7" x="1579.8523" y="976.9112">*</text></g><!--link Card to Value--><g id="link_Card_Value"><path codeLine="146" d="M2049.77,911.397 C1949.49,966.57 1810.0569,1043.2778 1709.2569,1098.7358 " fill="none" id="Card-to-Value" style="stroke:#181818;stroke-width:1.0;"/><polygon fill="#181818" points="1704,1101.628,1713.8135,1100.7942,1708.3807,1099.2178,1709.9572,1093.7851,1704,1101.628" style="stroke:#181818;stroke-width:1.0;"/></g><!--link Card to Suite--><g id="link_Card_Suite"><path codeLine="147" d="M2165,928.245 C2165,971.115 2165,1018.205 2165,1063.335 " fill="none" id="Card-to-Suite" style="stroke:#181818;stroke-width:1.0;"/><polygon fill="#181818" points="2165,1069.335,2169,1060.335,2165,1064.335,2161,1060.335,2165,1069.335" style="stroke:#181818;stroke-width:1.0;"/></g><!--link GambleAnalyzer to Analyzer--><g id="link_GambleAnalyzer_Analyzer"><path codeLine="149" d="M1112,431.054 C1112,470.373 1112,502.021 1112,537.937 " fill="none" id="GambleAnalyzer-Analyzer" style="stroke:#181818;stroke-width:1.0;"/><polygon fill="#181818" points="1112,419.054,1108,425.054,1112,431.054,1116,425.054,1112,419.054" style="stroke:#181818;stroke-width:1.0;"/><polygon fill="#181818" points="1112,543.937,1116,534.937,1112,538.937,1108,534.937,1112,543.937" style="stroke:#181818;stroke-width:1.0;"/></g><!--link GambleAnalyzer to Gamble--><g id="link_GambleAnalyzer_Gamble"><path codeLine="150" d="M1239.92,419.054 C1302.29,450.045 1372.2066,484.7835 1436.7066,516.8265 " fill="none" id="GambleAnalyzer-to-Gamble" style="stroke:#181818;stroke-width:1.0;"/><polygon fill="#181818" points="1442.08,519.496,1435.7995,511.9095,1437.6021,517.2714,1432.2402,519.0741,1442.08,519.496" style="stroke:#181818;stroke-width:1.0;"/></g><!--link GambleAnalyzer to PlayerStatistics--><g id="link_GambleAnalyzer_PlayerStatistics"><path codeLine="151" d="M1316.2,369.459 C1465.79,384.556 1671.75,415.617 1843,479 C1848.95,481.203 1849.4039,481.2383 1855.3739,483.7933 " fill="none" id="GambleAnalyzer-to-PlayerStatistics" style="stroke:#181818;stroke-width:1.0;"/><polygon fill="#181818" points="1860.89,486.154,1854.1897,478.9355,1856.2933,484.1867,1851.0421,486.2903,1860.89,486.154" style="stroke:#181818;stroke-width:1.0;"/></g><!--reverse link Analyzer to ParejaAnalyzer--><g id="link_Analyzer_ParejaAnalyzer"><path codeLine="153" d="M1012.7721,650.0558 C928.9051,697.8608 816.853,761.727 738.399,806.444 " fill="none" id="Analyzer-backto-ParejaAnalyzer" style="stroke:#181818;stroke-width:1.0;"/><polygon fill="none" points="1028.41,641.142,1009.8008,644.8431,1015.7433,655.2684,1028.41,641.142" style="stroke:#181818;stroke-width:1.0;"/></g><!--reverse link Analyzer to DobleParejaAnalyzer--><g id="link_Analyzer_DobleParejaAnalyzer"><path codeLine="154" d="M1112,659.29 C1112,707.043 1112,761.608 1112,806.292 " fill="none" id="Analyzer-backto-DobleParejaAnalyzer" style="stroke:#181818;stroke-width:1.0;"/><polygon fill="none" points="1112,641.29,1106,659.29,1118,659.29,1112,641.29" style="stroke:#181818;stroke-width:1.0;"/></g><!--reverse link Analyzer to CartaAltaAnalyzer--><g id="link_Analyzer_CartaAltaAnalyzer"><path codeLine="155" d="M896.0047,644.0899 C763.0987,676.3749 602.223,717.888 447,766 C415.625,775.725 382.129,787.244 350.949,798.468 " fill="none" id="Analyzer-backto-CartaAltaAnalyzer" style="stroke:#181818;stroke-width:1.0;"/><polygon fill="none" points="913.496,639.841,894.5884,638.2595,897.421,649.9204,913.496,639.841" style="stroke:#181818;stroke-width:1.0;"/></g><!--link Analyzer to Gamble--><g id="link_Analyzer_Gamble"><path codeLine="157" d="M1310.54,592.5 C1323.13,592.5 1329.73,592.5 1342.33,592.5 " fill="none" id="Analyzer-to-Gamble" style="stroke:#181818;stroke-width:1.0;"/><polygon fill="#181818" points="1348.33,592.5,1339.33,588.5,1343.33,592.5,1339.33,596.5,1348.33,592.5" style="stroke:#181818;stroke-width:1.0;"/></g><!--link Analyzer to PlayerStatistics--><g id="link_Analyzer_PlayerStatistics"><path codeLine="158" d="M1171.38,543.759 C1216.78,509.807 1282.59,467.432 1348.5,449 C1450.58,420.452 1724.42,417.074 1825.5,449 C1848.04,456.119 1865.0687,463.6854 1886.0687,475.9484 " fill="none" id="Analyzer-to-PlayerStatistics" style="stroke:#181818;stroke-width:1.0;"/><polygon fill="#181818" points="1891.25,478.974,1885.4952,470.9814,1886.9323,476.4527,1881.461,477.8898,1891.25,478.974" style="stroke:#181818;stroke-width:1.0;"/></g><!--link CartaAltaAnalyzer to GambleType--><g id="link_CartaAltaAnalyzer_GambleType"><path codeLine="160" d="M325.408,895.608 C429.511,945.465 589.5186,1022.0954 714.4516,1081.9274 " fill="none" id="CartaAltaAnalyzer-to-GambleType" style="stroke:#181818;stroke-width:1.0;"/><polygon fill="#181818" points="719.863,1084.519,713.4736,1077.024,715.3535,1082.3593,710.0181,1084.2392,719.863,1084.519" style="stroke:#181818;stroke-width:1.0;"/></g><!--link DobleParejaAnalyzer to GambleType--><g id="link_DobleParejaAnalyzer_GambleType"><path codeLine="162" d="M1084.33,887.632 C1056.9,926.925 1016.9046,984.2183 978.0506,1039.8733 " fill="none" id="DobleParejaAnalyzer-to-GambleType" style="stroke:#181818;stroke-width:1.0;"/><polygon fill="#181818" points="974.616,1044.793,983.0477,1039.7031,977.4781,1040.6932,976.488,1035.1237,974.616,1044.793" style="stroke:#181818;stroke-width:1.0;"/></g><!--link DobleParejaAnalyzer to Value--><g id="link_DobleParejaAnalyzer_Value"><path codeLine="163" d="M1171.2,887.632 C1245.56,937.414 1369.8841,1020.6483 1464.6141,1084.0633 " fill="none" id="DobleParejaAnalyzer-to-Value" style="stroke:#181818;stroke-width:1.0;"/><polygon fill="#181818" points="1469.6,1087.401,1464.3462,1079.0704,1465.4451,1084.6196,1459.8959,1085.7184,1469.6,1087.401" style="stroke:#181818;stroke-width:1.0;"/><text fill="#000000" font-family="sans-serif" font-size="13" lengthAdjust="spacing" textLength="7" x="1454.8548" y="1078.9039">*</text></g><!--link ParejaAnalyzer to GambleType--><g id="link_ParejaAnalyzer_GambleType"><path codeLine="165" d="M696.543,887.632 C723.85,926.925 763.6619,984.211 802.3409,1039.866 " fill="none" id="ParejaAnalyzer-to-GambleType" style="stroke:#181818;stroke-width:1.0;"/><polygon fill="#181818" points="805.765,1044.793,803.9134,1035.1198,802.9115,1040.6872,797.3441,1039.6853,805.765,1044.793" style="stroke:#181818;stroke-width:1.0;"/></g><!--link ParejaAnalyzer to Value--><g id="link_ParejaAnalyzer_Value"><path codeLine="166" d="M775.788,887.554 C811.95,900.709 852.638,915.248 890,928 C972.606,956.193 994.23,960.283 1077,988 C1212.17,1033.265 1360.9656,1085.5222 1464.1456,1122.1422 " fill="none" id="ParejaAnalyzer-to-Value" style="stroke:#181818;stroke-width:1.0;"/><polygon fill="#181818" points="1469.8,1124.149,1462.6562,1117.3691,1465.088,1122.4766,1459.9805,1124.9084,1469.8,1124.149" style="stroke:#181818;stroke-width:1.0;"/><text fill="#000000" font-family="sans-serif" font-size="13" lengthAdjust="spacing" textLength="7" x="1455.0677" y="1118.006">*</text></g><!--SRC=[lLRVZviu47wk_mghVI6R8lKvgbRoilIEYeOKs5RNKxNoWfLmIo05f-bss_-zOnkCmQHzkDxn0CpCDvxFyyFGtXVLWJPqZxsIjkqLpUwtJNsiSgykwmQVTWLdgDMWJ808vqrnT-GioEegARuo_0Ark_g4iwB9IeQGHE5hbjtZH_GCPxJ9mwBbAopkBpqGBz5Isfq5l6mP5pfdiSBYYRxtAmW9Ld1nUmGQAvo81uYVQNa4yPruWBzqbZO5VAui2YO3D8norZXoFS468jtLTSbefS9Bl8ZVBmawkQ3GgQXBpEi4zbrjfKw-2QQiEkxn7tH_LxBquS20haVYbDoIC2LeGsB_DK7NqLNettP26WSHyXEFX7vCa1U5KOnUtOGXsaHlR_nOcswLIOknJq9WmJuTQTawHiIjVXrlgzlqhv0wsvkIFh16vdksOcxdl-gs2p6KYomYpNCZlw0uxUgWVLzK5G2wfG_o0R6LF9zJLoHVHH3QBbQVQLLcI78Kam_Hsa_GTK3Ua7KARvl08mdarx-AGX1Tp0ikwEg5LKcLg8mBq5Ri2pVh3E5JOJCuBHMeg3YcUvWEhk4zBzauZr1fII11tWr9umXvmTgBKE872Ke2F_LHvFqPeVMD_yu7ulu75AnV2V8ezeCrWVjVYCmnLmqwPdw6QLztSmRClh1teff-I8IITL-e2iX97XfePVGykDPDpXgMIy-swnefY47lYZdRYCzDx7YPQHDrF9Jlq1ck2NfVy5r2zso8TSxjt3oRiv1moe5TaRLoAcGkMw-kO2uWWNz_x4-caMvfEJl34Ed9wihtXdwnpfuTRSKMb7vKgA687KOUqZ_1fATwGukcTQO7NcGcUhp0k7OMra88AXo2mAtXPxkkHpdZa-S0tnkwPPXMj7puoXgHQ0mNlMjvGpEEIMVezE9w9XkrDwmqH0EMMkLeTzDbeP6FVPplU6aSErRr3nF5q4PY5TY7U9ZJCaFRnNaDbWrjs3zqO7zjAmsNmmHz5WXznIafkO7rfYhqH6LdJD5P68dxFJcm8XjfMDhM4GFRgXUXLlt-5U61xpYh8x9Zq__0PQOVHeHcxFyPAoYg_8cxS7CNFxrugdxFKFSr7siDfUjEMgmtkWtOBliOOuyfkJwCGHU0bzE0XbdpKGSfwWv-wMLyh4orWPR_BbAf58EiFlHeCjWNqgPtEB4QGMTDzcwr_UKtDwzFbJkTTHimTtJOAFiO641G44rphBG9saCzpIoQwzqfw2p6gCKlblYfzmy0]--></g></svg>