<?xml version="1.0" encoding="us-ascii" standalone="no"?><svg xmlns="http://www.w3.org/2000/svg" xmlns:xlink="http://www.w3.org/1999/xlink" contentStyleType="text/css" height="1308px" preserveAspectRatio="none" style="width:1583px;height:1308px;background:#FFFFFF;" version="1.1" viewBox="0 0 1583 1308" width="1583px" zoomAndPan="magnify"><defs/><g><!--cluster analyzers--><g id="cluster_analyzers"><path d="M47.3592,194 L126.3592,194 A3.75,3.75 0 0 1 128.8592,196.5 L135.8592,216.2969 L1368.3596,216.2969 A2.5,2.5 0 0 1 1370.8596,218.7969 L1370.8596,306.5 A2.5,2.5 0 0 1 1368.3596,309 L47.3592,309 A2.5,2.5 0 0 1 44.8592,306.5 L44.8592,196.5 A2.5,2.5 0 0 1 47.3592,194 " fill="none" style="stroke:#000000;stroke-width:1.5;"/><line style="stroke:#000000;stroke-width:1.5;" x1="44.8592" x2="135.8592" y1="216.2969" y2="216.2969"/><text fill="#000000" font-family="sans-serif" font-size="14" font-weight="bold" lengthAdjust="spacing" textLength="78" x="48.8592" y="208.9951">analyzers</text></g><!--class CartaAltaAnalyzer--><g id="elem_CartaAltaAnalyzer"><rect codeLine="104" fill="#FFFFFF" height="64.2969" id="CartaAltaAnalyzer" rx="2.5" ry="2.5" style="stroke:#181818;stroke-width:0.5;" width="408" x="503.8596" y="229"/><ellipse cx="638.6096" cy="245" fill="#ADD1B2" rx="11" ry="11" style="stroke:#181818;stroke-width:1.0;"/><path d="M640.9534,240.6719 C640.0159,240.2344 639.4221,240.0938 638.5471,240.0938 C635.9221,240.0938 633.9221,242.1719 633.9221,244.8906 L633.9221,246.0156 C633.9221,248.5938 636.0315,250.4844 638.9221,250.4844 C640.1409,250.4844 641.2971,250.1875 642.0471,249.6406 C642.6252,249.2344 642.9534,248.7813 642.9534,248.3906 C642.9534,247.9375 642.5627,247.5469 642.094,247.5469 C641.8752,247.5469 641.6721,247.625 641.4846,247.8125 C641.0315,248.2969 641.0315,248.2969 640.844,248.3906 C640.4221,248.6563 639.7346,248.7813 638.969,248.7813 C636.9221,248.7813 635.6252,247.6875 635.6252,245.9844 L635.6252,244.8906 C635.6252,243.1094 636.8752,241.7969 638.6096,241.7969 C639.1877,241.7969 639.7971,241.9531 640.2659,242.2031 C640.7502,242.4844 640.9221,242.7031 641.0159,243.1094 C641.0784,243.5156 641.1096,243.6406 641.2502,243.7656 C641.3909,243.9063 641.6252,244.0156 641.844,244.0156 C642.1096,244.0156 642.3752,243.875 642.5471,243.6563 C642.6565,243.5 642.6877,243.3125 642.6877,242.8906 L642.6877,241.4688 C642.6877,241.0313 642.6721,240.9063 642.5784,240.75 C642.4221,240.4844 642.1409,240.3438 641.844,240.3438 C641.5471,240.3438 641.344,240.4375 641.1252,240.75 L640.9534,240.6719 Z " fill="#000000"/><text fill="#000000" font-family="sans-serif" font-size="14" lengthAdjust="spacing" textLength="130" x="659.1096" y="249.8467">CartaAltaAnalyzer</text><line style="stroke:#181818;stroke-width:0.5;" x1="504.8596" x2="910.8596" y1="261" y2="261"/><line style="stroke:#181818;stroke-width:0.5;" x1="504.8596" x2="910.8596" y1="269" y2="269"/><text fill="#000000" font-family="sans-serif" font-size="14" lengthAdjust="spacing" textLength="396" x="509.8596" y="285.9951">+getGamble(PlayerStatistics playerStatistics): Gamble</text></g><!--class ParejaAnalyzer--><g id="elem_ParejaAnalyzer"><rect codeLine="107" fill="#FFFFFF" height="64.2969" id="ParejaAnalyzer" rx="2.5" ry="2.5" style="stroke:#181818;stroke-width:0.5;" width="408" x="60.8592" y="229"/><ellipse cx="207.6092" cy="245" fill="#ADD1B2" rx="11" ry="11" style="stroke:#181818;stroke-width:1.0;"/><path d="M209.953,240.6719 C209.0155,240.2344 208.4217,240.0938 207.5467,240.0938 C204.9217,240.0938 202.9217,242.1719 202.9217,244.8906 L202.9217,246.0156 C202.9217,248.5938 205.0311,250.4844 207.9217,250.4844 C209.1405,250.4844 210.2967,250.1875 211.0467,249.6406 C211.6248,249.2344 211.953,248.7813 211.953,248.3906 C211.953,247.9375 211.5623,247.5469 211.0936,247.5469 C210.8748,247.5469 210.6717,247.625 210.4842,247.8125 C210.0311,248.2969 210.0311,248.2969 209.8436,248.3906 C209.4217,248.6563 208.7342,248.7813 207.9686,248.7813 C205.9217,248.7813 204.6248,247.6875 204.6248,245.9844 L204.6248,244.8906 C204.6248,243.1094 205.8748,241.7969 207.6092,241.7969 C208.1873,241.7969 208.7967,241.9531 209.2655,242.2031 C209.7498,242.4844 209.9217,242.7031 210.0155,243.1094 C210.078,243.5156 210.1092,243.6406 210.2498,243.7656 C210.3905,243.9063 210.6248,244.0156 210.8436,244.0156 C211.1092,244.0156 211.3748,243.875 211.5467,243.6563 C211.6561,243.5 211.6873,243.3125 211.6873,242.8906 L211.6873,241.4688 C211.6873,241.0313 211.6717,240.9063 211.578,240.75 C211.4217,240.4844 211.1405,240.3438 210.8436,240.3438 C210.5467,240.3438 210.3436,240.4375 210.1248,240.75 L209.953,240.6719 Z " fill="#000000"/><text fill="#000000" font-family="sans-serif" font-size="14" lengthAdjust="spacing" textLength="106" x="228.1092" y="249.8467">ParejaAnalyzer</text><line style="stroke:#181818;stroke-width:0.5;" x1="61.8592" x2="467.8592" y1="261" y2="261"/><line style="stroke:#181818;stroke-width:0.5;" x1="61.8592" x2="467.8592" y1="269" y2="269"/><text fill="#000000" font-family="sans-serif" font-size="14" lengthAdjust="spacing" textLength="396" x="66.8592" y="285.9951">+getGamble(PlayerStatistics playerStatistics): Gamble</text></g><!--class DobleParejaAnalyzer--><g id="elem_DobleParejaAnalyzer"><rect codeLine="110" fill="#FFFFFF" height="64.2969" id="DobleParejaAnalyzer" rx="2.5" ry="2.5" style="stroke:#181818;stroke-width:0.5;" width="408" x="946.8596" y="229"/><ellipse cx="1072.1096" cy="245" fill="#ADD1B2" rx="11" ry="11" style="stroke:#181818;stroke-width:1.0;"/><path d="M1074.4534,240.6719 C1073.5159,240.2344 1072.9221,240.0938 1072.0471,240.0938 C1069.4221,240.0938 1067.4221,242.1719 1067.4221,244.8906 L1067.4221,246.0156 C1067.4221,248.5938 1069.5315,250.4844 1072.4221,250.4844 C1073.6409,250.4844 1074.7971,250.1875 1075.5471,249.6406 C1076.1252,249.2344 1076.4534,248.7813 1076.4534,248.3906 C1076.4534,247.9375 1076.0627,247.5469 1075.594,247.5469 C1075.3752,247.5469 1075.1721,247.625 1074.9846,247.8125 C1074.5315,248.2969 1074.5315,248.2969 1074.344,248.3906 C1073.9221,248.6563 1073.2346,248.7813 1072.469,248.7813 C1070.4221,248.7813 1069.1252,247.6875 1069.1252,245.9844 L1069.1252,244.8906 C1069.1252,243.1094 1070.3752,241.7969 1072.1096,241.7969 C1072.6877,241.7969 1073.2971,241.9531 1073.7659,242.2031 C1074.2502,242.4844 1074.4221,242.7031 1074.5159,243.1094 C1074.5784,243.5156 1074.6096,243.6406 1074.7502,243.7656 C1074.8909,243.9063 1075.1252,244.0156 1075.344,244.0156 C1075.6096,244.0156 1075.8752,243.875 1076.0471,243.6563 C1076.1565,243.5 1076.1877,243.3125 1076.1877,242.8906 L1076.1877,241.4688 C1076.1877,241.0313 1076.1721,240.9063 1076.0784,240.75 C1075.9221,240.4844 1075.6409,240.3438 1075.344,240.3438 C1075.0471,240.3438 1074.844,240.4375 1074.6252,240.75 L1074.4534,240.6719 Z " fill="#000000"/><text fill="#000000" font-family="sans-serif" font-size="14" lengthAdjust="spacing" textLength="149" x="1092.6096" y="249.8467">DobleParejaAnalyzer</text><line style="stroke:#181818;stroke-width:0.5;" x1="947.8596" x2="1353.8596" y1="261" y2="261"/><line style="stroke:#181818;stroke-width:0.5;" x1="947.8596" x2="1353.8596" y1="269" y2="269"/><text fill="#000000" font-family="sans-serif" font-size="14" lengthAdjust="spacing" textLength="396" x="952.8596" y="285.9951">+getGamble(PlayerStatistics playerStatistics): Gamble</text></g><!--class Deck--><g id="elem_Deck"><rect codeLine="5" fill="#FFFFFF" height="96.8906" id="Deck" rx="2.5" ry="2.5" style="stroke:#181818;stroke-width:0.5;" width="171" x="1347.3596" y="418"/><ellipse cx="1410.1096" cy="434" fill="#ADD1B2" rx="11" ry="11" style="stroke:#181818;stroke-width:1.0;"/><path d="M1412.4534,429.6719 C1411.5159,429.2344 1410.9221,429.0938 1410.0471,429.0938 C1407.4221,429.0938 1405.4221,431.1719 1405.4221,433.8906 L1405.4221,435.0156 C1405.4221,437.5938 1407.5315,439.4844 1410.4221,439.4844 C1411.6409,439.4844 1412.7971,439.1875 1413.5471,438.6406 C1414.1252,438.2344 1414.4534,437.7813 1414.4534,437.3906 C1414.4534,436.9375 1414.0627,436.5469 1413.594,436.5469 C1413.3752,436.5469 1413.1721,436.625 1412.9846,436.8125 C1412.5315,437.2969 1412.5315,437.2969 1412.344,437.3906 C1411.9221,437.6563 1411.2346,437.7813 1410.469,437.7813 C1408.4221,437.7813 1407.1252,436.6875 1407.1252,434.9844 L1407.1252,433.8906 C1407.1252,432.1094 1408.3752,430.7969 1410.1096,430.7969 C1410.6877,430.7969 1411.2971,430.9531 1411.7659,431.2031 C1412.2502,431.4844 1412.4221,431.7031 1412.5159,432.1094 C1412.5784,432.5156 1412.6096,432.6406 1412.7502,432.7656 C1412.8909,432.9063 1413.1252,433.0156 1413.344,433.0156 C1413.6096,433.0156 1413.8752,432.875 1414.0471,432.6563 C1414.1565,432.5 1414.1877,432.3125 1414.1877,431.8906 L1414.1877,430.4688 C1414.1877,430.0313 1414.1721,429.9063 1414.0784,429.75 C1413.9221,429.4844 1413.6409,429.3438 1413.344,429.3438 C1413.0471,429.3438 1412.844,429.4375 1412.6252,429.75 L1412.4534,429.6719 Z " fill="#000000"/><text fill="#000000" font-family="sans-serif" font-size="14" lengthAdjust="spacing" textLength="37" x="1430.6096" y="438.8467">Deck</text><line style="stroke:#181818;stroke-width:0.5;" x1="1348.3596" x2="1517.3596" y1="450" y2="450"/><text fill="#000000" font-family="sans-serif" font-size="14" lengthAdjust="spacing" textLength="159" x="1353.3596" y="466.9951">#cardList: List&lt;Card&gt;</text><line style="stroke:#181818;stroke-width:0.5;" x1="1348.3596" x2="1517.3596" y1="474.2969" y2="474.2969"/><text fill="#000000" font-family="sans-serif" font-size="14" lengthAdjust="spacing" textLength="58" x="1353.3596" y="491.292">+Deck()</text><text fill="#000000" font-family="sans-serif" font-size="14" lengthAdjust="spacing" textLength="121" x="1353.3596" y="507.5889">+getCard(): Card</text></g><!--class Card--><g id="elem_Card"><rect codeLine="11" fill="#FFFFFF" height="162.0781" id="Card" rx="2.5" ry="2.5" style="stroke:#181818;stroke-width:0.5;" width="230" x="1346.8596" y="681"/><ellipse cx="1441.1096" cy="697" fill="#ADD1B2" rx="11" ry="11" style="stroke:#181818;stroke-width:1.0;"/><path d="M1443.4534,692.6719 C1442.5159,692.2344 1441.9221,692.0938 1441.0471,692.0938 C1438.4221,692.0938 1436.4221,694.1719 1436.4221,696.8906 L1436.4221,698.0156 C1436.4221,700.5938 1438.5315,702.4844 1441.4221,702.4844 C1442.6409,702.4844 1443.7971,702.1875 1444.5471,701.6406 C1445.1252,701.2344 1445.4534,700.7813 1445.4534,700.3906 C1445.4534,699.9375 1445.0627,699.5469 1444.594,699.5469 C1444.3752,699.5469 1444.1721,699.625 1443.9846,699.8125 C1443.5315,700.2969 1443.5315,700.2969 1443.344,700.3906 C1442.9221,700.6563 1442.2346,700.7813 1441.469,700.7813 C1439.4221,700.7813 1438.1252,699.6875 1438.1252,697.9844 L1438.1252,696.8906 C1438.1252,695.1094 1439.3752,693.7969 1441.1096,693.7969 C1441.6877,693.7969 1442.2971,693.9531 1442.7659,694.2031 C1443.2502,694.4844 1443.4221,694.7031 1443.5159,695.1094 C1443.5784,695.5156 1443.6096,695.6406 1443.7502,695.7656 C1443.8909,695.9063 1444.1252,696.0156 1444.344,696.0156 C1444.6096,696.0156 1444.8752,695.875 1445.0471,695.6563 C1445.1565,695.5 1445.1877,695.3125 1445.1877,694.8906 L1445.1877,693.4688 C1445.1877,693.0313 1445.1721,692.9063 1445.0784,692.75 C1444.9221,692.4844 1444.6409,692.3438 1444.344,692.3438 C1444.0471,692.3438 1443.844,692.4375 1443.6252,692.75 L1443.4534,692.6719 Z " fill="#000000"/><text fill="#000000" font-family="sans-serif" font-size="14" lengthAdjust="spacing" textLength="33" x="1461.6096" y="701.8467">Card</text><line style="stroke:#181818;stroke-width:0.5;" x1="1347.8596" x2="1575.8596" y1="713" y2="713"/><text fill="#000000" font-family="sans-serif" font-size="14" lengthAdjust="spacing" textLength="87" x="1352.8596" y="729.9951">-suite: Suite</text><text fill="#000000" font-family="sans-serif" font-size="14" lengthAdjust="spacing" textLength="91" x="1352.8596" y="746.292">-value: Value</text><line style="stroke:#181818;stroke-width:0.5;" x1="1347.8596" x2="1575.8596" y1="753.5938" y2="753.5938"/><text fill="#000000" font-family="sans-serif" font-size="14" lengthAdjust="spacing" textLength="218" x="1352.8596" y="770.5889">+Card(Suite suite, Value value)</text><text fill="#000000" font-family="sans-serif" font-size="14" lengthAdjust="spacing" textLength="210" x="1352.8596" y="786.8857">+greater(Card card): boolean</text><text fill="#000000" font-family="sans-serif" font-size="14" lengthAdjust="spacing" textLength="133" x="1352.8596" y="803.1826">+getValue(): Value</text><text fill="#000000" font-family="sans-serif" font-size="14" lengthAdjust="spacing" textLength="129" x="1352.8596" y="819.4795">+getSuite(): Suite</text><text fill="#000000" font-family="sans-serif" font-size="14" lengthAdjust="spacing" textLength="134" x="1352.8596" y="835.7764">+toString(): String</text></g><!--class GambleType--><g id="elem_GambleType"><rect codeLine="21" fill="#FFFFFF" height="243.5625" id="GambleType" rx="2.5" ry="2.5" style="stroke:#181818;stroke-width:0.5;" width="340" x="591.8596" y="640"/><ellipse cx="711.6096" cy="656" fill="#EB937F" rx="11" ry="11" style="stroke:#181818;stroke-width:1.0;"/><path d="M710.4065,656.875 L711.8596,656.875 L711.8596,656.9844 C711.8596,657.3906 711.8909,657.5469 711.969,657.7031 C712.1252,657.9531 712.4065,658.1094 712.7034,658.1094 C712.9534,658.1094 713.219,657.9688 713.3752,657.75 C713.5002,657.5938 713.5315,657.4375 713.5315,656.9844 L713.5315,655.0625 C713.5315,654.9063 713.5315,654.8594 713.5159,654.7031 C713.4534,654.2344 713.1409,653.9219 712.6877,653.9219 C712.4377,653.9219 712.1721,654.0625 712.0002,654.2813 C711.8909,654.4531 711.8596,654.6094 711.8596,655.0625 L711.8596,655.1875 L710.4065,655.1875 L710.4065,652.7813 L714.3909,652.7813 L714.3909,653.6406 C714.3909,654.0469 714.4221,654.2188 714.5002,654.375 C714.6721,654.625 714.9534,654.7813 715.2346,654.7813 C715.5002,654.7813 715.7659,654.6406 715.9377,654.4219 C716.0471,654.25 716.0784,654.1094 716.0784,653.6406 L716.0784,651.0938 L708.4534,651.0938 C708.0159,651.0938 707.8909,651.1094 707.7346,651.2031 C707.4846,651.3594 707.3284,651.6563 707.3284,651.9375 C707.3284,652.2188 707.469,652.4688 707.6877,652.6406 C707.844,652.75 708.0315,652.7813 708.4534,652.7813 L708.7034,652.7813 L708.7034,659.2969 L708.4534,659.2969 C708.0471,659.2969 707.8909,659.3125 707.7346,659.4219 C707.4846,659.5938 707.3284,659.8594 707.3284,660.1563 C707.3284,660.4219 707.469,660.6719 707.6877,660.8281 C707.8284,660.9531 708.0627,661 708.4534,661 L716.4534,661 L716.4534,658.4219 C716.4534,657.9844 716.4221,657.8438 716.344,657.6875 C716.1721,657.4375 715.8909,657.2813 715.6096,657.2813 C715.344,657.2813 715.0784,657.3906 714.9065,657.6406 C714.7971,657.7969 714.7659,657.9375 714.7659,658.4219 L714.7659,659.2969 L710.4065,659.2969 L710.4065,656.875 Z " fill="#000000"/><text fill="#000000" font-family="sans-serif" font-size="14" lengthAdjust="spacing" textLength="92" x="732.1096" y="660.8467">GambleType</text><line style="stroke:#181818;stroke-width:0.5;" x1="592.8596" x2="930.8596" y1="672" y2="672"/><text fill="#000000" font-family="sans-serif" font-size="14" lengthAdjust="spacing" textLength="93" x="597.8596" y="688.9951">CARTA_ALTA</text><text fill="#000000" font-family="sans-serif" font-size="14" lengthAdjust="spacing" textLength="52" x="597.8596" y="705.292">PAREJA</text><text fill="#000000" font-family="sans-serif" font-size="14" lengthAdjust="spacing" textLength="108" x="597.8596" y="721.5889">DOBLE_PAREJA</text><text fill="#000000" font-family="sans-serif" font-size="14" lengthAdjust="spacing" textLength="34" x="597.8596" y="737.8857">TRIO</text><text fill="#000000" font-family="sans-serif" font-size="14" lengthAdjust="spacing" textLength="75" x="597.8596" y="754.1826">ESCALERA</text><text fill="#000000" font-family="sans-serif" font-size="14" lengthAdjust="spacing" textLength="50" x="597.8596" y="770.4795">COLOR</text><text fill="#000000" font-family="sans-serif" font-size="14" lengthAdjust="spacing" textLength="33" x="597.8596" y="786.7764">FULL</text><text fill="#000000" font-family="sans-serif" font-size="14" lengthAdjust="spacing" textLength="59" x="597.8596" y="803.0732">POQUER</text><text fill="#000000" font-family="sans-serif" font-size="14" lengthAdjust="spacing" textLength="132" x="597.8596" y="819.3701">ESCALERA_COLOR</text><text fill="#000000" font-family="sans-serif" font-size="14" lengthAdjust="spacing" textLength="119" x="597.8596" y="835.667">ESCALERA_REAL</text><line style="stroke:#181818;stroke-width:0.5;" x1="592.8596" x2="930.8596" y1="842.9688" y2="842.9688"/><text fill="#000000" font-family="sans-serif" font-size="14" lengthAdjust="spacing" textLength="319" x="597.8596" y="859.9639">+equals(GambleType gambleType): boolean</text><text fill="#000000" font-family="sans-serif" font-size="14" lengthAdjust="spacing" textLength="328" x="597.8596" y="876.2607">+greater(GambleType gambleType): boolean</text></g><!--class Player--><g id="elem_Player"><rect codeLine="36" fill="#FFFFFF" height="162.0781" id="Player" rx="2.5" ry="2.5" style="stroke:#181818;stroke-width:0.5;" width="270" x="793.8596" y="7"/><ellipse cx="902.6096" cy="23" fill="#ADD1B2" rx="11" ry="11" style="stroke:#181818;stroke-width:1.0;"/><path d="M904.9534,18.6719 C904.0159,18.2344 903.4221,18.0938 902.5471,18.0938 C899.9221,18.0938 897.9221,20.1719 897.9221,22.8906 L897.9221,24.0156 C897.9221,26.5938 900.0315,28.4844 902.9221,28.4844 C904.1409,28.4844 905.2971,28.1875 906.0471,27.6406 C906.6252,27.2344 906.9534,26.7813 906.9534,26.3906 C906.9534,25.9375 906.5627,25.5469 906.094,25.5469 C905.8752,25.5469 905.6721,25.625 905.4846,25.8125 C905.0315,26.2969 905.0315,26.2969 904.844,26.3906 C904.4221,26.6563 903.7346,26.7813 902.969,26.7813 C900.9221,26.7813 899.6252,25.6875 899.6252,23.9844 L899.6252,22.8906 C899.6252,21.1094 900.8752,19.7969 902.6096,19.7969 C903.1877,19.7969 903.7971,19.9531 904.2659,20.2031 C904.7502,20.4844 904.9221,20.7031 905.0159,21.1094 C905.0784,21.5156 905.1096,21.6406 905.2502,21.7656 C905.3909,21.9063 905.6252,22.0156 905.844,22.0156 C906.1096,22.0156 906.3752,21.875 906.5471,21.6563 C906.6565,21.5 906.6877,21.3125 906.6877,20.8906 L906.6877,19.4688 C906.6877,19.0313 906.6721,18.9063 906.5784,18.75 C906.4221,18.4844 906.1409,18.3438 905.844,18.3438 C905.5471,18.3438 905.344,18.4375 905.1252,18.75 L904.9534,18.6719 Z " fill="#000000"/><text fill="#000000" font-family="sans-serif" font-size="14" lengthAdjust="spacing" textLength="44" x="923.1096" y="27.8467">Player</text><line style="stroke:#181818;stroke-width:0.5;" x1="794.8596" x2="1062.8596" y1="39" y2="39"/><text fill="#000000" font-family="sans-serif" font-size="14" lengthAdjust="spacing" textLength="153" x="799.8596" y="55.9951">-cardList: List&lt;Card&gt;</text><text fill="#000000" font-family="sans-serif" font-size="14" lengthAdjust="spacing" textLength="125" x="799.8596" y="72.292">-gamble: Gamble</text><line style="stroke:#181818;stroke-width:0.5;" x1="794.8596" x2="1062.8596" y1="79.5938" y2="79.5938"/><text fill="#000000" font-family="sans-serif" font-size="14" lengthAdjust="spacing" textLength="65" x="799.8596" y="96.5889">+Player()</text><text fill="#000000" font-family="sans-serif" font-size="14" lengthAdjust="spacing" textLength="115" x="799.8596" y="112.8857">+add(Card card)</text><text fill="#000000" font-family="sans-serif" font-size="14" lengthAdjust="spacing" textLength="258" x="799.8596" y="129.1826">+whoIsWinner(Player player): Player</text><text fill="#000000" font-family="sans-serif" font-size="14" lengthAdjust="spacing" textLength="134" x="799.8596" y="145.4795">+toString(): String</text><text fill="#000000" font-family="sans-serif" font-size="14" lengthAdjust="spacing" textLength="162" x="799.8596" y="161.7764">-getGamble(): Gamble</text></g><!--class Suite--><g id="elem_Suite"><rect codeLine="46" fill="#FFFFFF" height="194.6719" id="Suite" rx="2.5" ry="2.5" style="stroke:#181818;stroke-width:0.5;" width="191" x="1366.3596" y="1025.5"/><ellipse cx="1439.1096" cy="1041.5" fill="#EB937F" rx="11" ry="11" style="stroke:#181818;stroke-width:1.0;"/><path d="M1437.9065,1042.375 L1439.3596,1042.375 L1439.3596,1042.4844 C1439.3596,1042.8906 1439.3909,1043.0469 1439.469,1043.2031 C1439.6252,1043.4531 1439.9065,1043.6094 1440.2034,1043.6094 C1440.4534,1043.6094 1440.719,1043.4688 1440.8752,1043.25 C1441.0002,1043.0938 1441.0315,1042.9375 1441.0315,1042.4844 L1441.0315,1040.5625 C1441.0315,1040.4063 1441.0315,1040.3594 1441.0159,1040.2031 C1440.9534,1039.7344 1440.6409,1039.4219 1440.1877,1039.4219 C1439.9377,1039.4219 1439.6721,1039.5625 1439.5002,1039.7813 C1439.3909,1039.9531 1439.3596,1040.1094 1439.3596,1040.5625 L1439.3596,1040.6875 L1437.9065,1040.6875 L1437.9065,1038.2813 L1441.8909,1038.2813 L1441.8909,1039.1406 C1441.8909,1039.5469 1441.9221,1039.7188 1442.0002,1039.875 C1442.1721,1040.125 1442.4534,1040.2813 1442.7346,1040.2813 C1443.0002,1040.2813 1443.2659,1040.1406 1443.4377,1039.9219 C1443.5471,1039.75 1443.5784,1039.6094 1443.5784,1039.1406 L1443.5784,1036.5938 L1435.9534,1036.5938 C1435.5159,1036.5938 1435.3909,1036.6094 1435.2346,1036.7031 C1434.9846,1036.8594 1434.8284,1037.1563 1434.8284,1037.4375 C1434.8284,1037.7188 1434.969,1037.9688 1435.1877,1038.1406 C1435.344,1038.25 1435.5315,1038.2813 1435.9534,1038.2813 L1436.2034,1038.2813 L1436.2034,1044.7969 L1435.9534,1044.7969 C1435.5471,1044.7969 1435.3909,1044.8125 1435.2346,1044.9219 C1434.9846,1045.0938 1434.8284,1045.3594 1434.8284,1045.6563 C1434.8284,1045.9219 1434.969,1046.1719 1435.1877,1046.3281 C1435.3284,1046.4531 1435.5627,1046.5 1435.9534,1046.5 L1443.9534,1046.5 L1443.9534,1043.9219 C1443.9534,1043.4844 1443.9221,1043.3438 1443.844,1043.1875 C1443.6721,1042.9375 1443.3909,1042.7813 1443.1096,1042.7813 C1442.844,1042.7813 1442.5784,1042.8906 1442.4065,1043.1406 C1442.2971,1043.2969 1442.2659,1043.4375 1442.2659,1043.9219 L1442.2659,1044.7969 L1437.9065,1044.7969 L1437.9065,1042.375 Z " fill="#000000"/><text fill="#000000" font-family="sans-serif" font-size="14" lengthAdjust="spacing" textLength="37" x="1459.6096" y="1046.3467">Suite</text><line style="stroke:#181818;stroke-width:0.5;" x1="1367.3596" x2="1556.3596" y1="1057.5" y2="1057.5"/><text fill="#000000" font-family="sans-serif" font-size="14" lengthAdjust="spacing" textLength="90" x="1372.3596" y="1074.4951">CORAZONES</text><text fill="#000000" font-family="sans-serif" font-size="14" lengthAdjust="spacing" textLength="84" x="1372.3596" y="1090.792">DIAMANTES</text><text fill="#000000" font-family="sans-serif" font-size="14" lengthAdjust="spacing" textLength="42" x="1372.3596" y="1107.0889">PICAS</text><text fill="#000000" font-family="sans-serif" font-size="14" lengthAdjust="spacing" textLength="75" x="1372.3596" y="1123.3857">TREBOLES</text><text fill="#000000" font-family="sans-serif" font-size="14" lengthAdjust="spacing" textLength="90" x="1372.3596" y="1139.6826">-title: String</text><line style="stroke:#181818;stroke-width:0.5;" x1="1367.3596" x2="1556.3596" y1="1146.9844" y2="1146.9844"/><text fill="#000000" font-family="sans-serif" font-size="14" lengthAdjust="spacing" textLength="132" x="1372.3596" y="1163.9795">-Suite(String title)</text><text fill="#000000" font-family="sans-serif" font-size="14" lengthAdjust="spacing" textLength="95" x="1372.3596" y="1180.2764">-next(): Suite</text><text fill="#000000" font-family="sans-serif" font-size="14" lengthAdjust="spacing" textLength="132" x="1372.3596" y="1196.5732">+getTitle(): String</text><text fill="#000000" font-family="sans-serif" font-size="14" lengthAdjust="spacing" textLength="179" x="1372.3596" y="1212.8701">+next(int amount): Suite</text></g><!--class Value--><g id="elem_Value"><rect codeLine="58" fill="#FFFFFF" height="357.6406" id="Value" rx="2.5" ry="2.5" style="stroke:#181818;stroke-width:0.5;" width="234" x="954.8596" y="944"/><ellipse cx="1048.1096" cy="960" fill="#EB937F" rx="11" ry="11" style="stroke:#181818;stroke-width:1.0;"/><path d="M1046.9065,960.875 L1048.3596,960.875 L1048.3596,960.9844 C1048.3596,961.3906 1048.3909,961.5469 1048.469,961.7031 C1048.6252,961.9531 1048.9065,962.1094 1049.2034,962.1094 C1049.4534,962.1094 1049.719,961.9688 1049.8752,961.75 C1050.0002,961.5938 1050.0315,961.4375 1050.0315,960.9844 L1050.0315,959.0625 C1050.0315,958.9063 1050.0315,958.8594 1050.0159,958.7031 C1049.9534,958.2344 1049.6409,957.9219 1049.1877,957.9219 C1048.9377,957.9219 1048.6721,958.0625 1048.5002,958.2813 C1048.3909,958.4531 1048.3596,958.6094 1048.3596,959.0625 L1048.3596,959.1875 L1046.9065,959.1875 L1046.9065,956.7813 L1050.8909,956.7813 L1050.8909,957.6406 C1050.8909,958.0469 1050.9221,958.2188 1051.0002,958.375 C1051.1721,958.625 1051.4534,958.7813 1051.7346,958.7813 C1052.0002,958.7813 1052.2659,958.6406 1052.4377,958.4219 C1052.5471,958.25 1052.5784,958.1094 1052.5784,957.6406 L1052.5784,955.0938 L1044.9534,955.0938 C1044.5159,955.0938 1044.3909,955.1094 1044.2346,955.2031 C1043.9846,955.3594 1043.8284,955.6563 1043.8284,955.9375 C1043.8284,956.2188 1043.969,956.4688 1044.1877,956.6406 C1044.344,956.75 1044.5315,956.7813 1044.9534,956.7813 L1045.2034,956.7813 L1045.2034,963.2969 L1044.9534,963.2969 C1044.5471,963.2969 1044.3909,963.3125 1044.2346,963.4219 C1043.9846,963.5938 1043.8284,963.8594 1043.8284,964.1563 C1043.8284,964.4219 1043.969,964.6719 1044.1877,964.8281 C1044.3284,964.9531 1044.5627,965 1044.9534,965 L1052.9534,965 L1052.9534,962.4219 C1052.9534,961.9844 1052.9221,961.8438 1052.844,961.6875 C1052.6721,961.4375 1052.3909,961.2813 1052.1096,961.2813 C1051.844,961.2813 1051.5784,961.3906 1051.4065,961.6406 C1051.2971,961.7969 1051.2659,961.9375 1051.2659,962.4219 L1051.2659,963.2969 L1046.9065,963.2969 L1046.9065,960.875 Z " fill="#000000"/><text fill="#000000" font-family="sans-serif" font-size="14" lengthAdjust="spacing" textLength="39" x="1068.6096" y="964.8467">Value</text><line style="stroke:#181818;stroke-width:0.5;" x1="955.8596" x2="1187.8596" y1="976" y2="976"/><text fill="#000000" font-family="sans-serif" font-size="14" lengthAdjust="spacing" textLength="31" x="960.8596" y="992.9951">DOS</text><text fill="#000000" font-family="sans-serif" font-size="14" lengthAdjust="spacing" textLength="37" x="960.8596" y="1009.292">TRES</text><text fill="#000000" font-family="sans-serif" font-size="14" lengthAdjust="spacing" textLength="59" x="960.8596" y="1025.5889">CUATRO</text><text fill="#000000" font-family="sans-serif" font-size="14" lengthAdjust="spacing" textLength="45" x="960.8596" y="1041.8857">CINCO</text><text fill="#000000" font-family="sans-serif" font-size="14" lengthAdjust="spacing" textLength="31" x="960.8596" y="1058.1826">SEIS</text><text fill="#000000" font-family="sans-serif" font-size="14" lengthAdjust="spacing" textLength="40" x="960.8596" y="1074.4795">SIETE</text><text fill="#000000" font-family="sans-serif" font-size="14" lengthAdjust="spacing" textLength="42" x="960.8596" y="1090.7764">OCHO</text><text fill="#000000" font-family="sans-serif" font-size="14" lengthAdjust="spacing" textLength="47" x="960.8596" y="1107.0732">NUEVE</text><text fill="#000000" font-family="sans-serif" font-size="14" lengthAdjust="spacing" textLength="34" x="960.8596" y="1123.3701">DIEZ</text><text fill="#000000" font-family="sans-serif" font-size="14" lengthAdjust="spacing" textLength="60" x="960.8596" y="1139.667">INFANTE</text><text fill="#000000" font-family="sans-serif" font-size="14" lengthAdjust="spacing" textLength="43" x="960.8596" y="1155.9639">REINA</text><text fill="#000000" font-family="sans-serif" font-size="14" lengthAdjust="spacing" textLength="28" x="960.8596" y="1172.2607">REY</text><text fill="#000000" font-family="sans-serif" font-size="14" lengthAdjust="spacing" textLength="19" x="960.8596" y="1188.5576">AS</text><text fill="#000000" font-family="sans-serif" font-size="14" lengthAdjust="spacing" textLength="90" x="960.8596" y="1204.8545">-title: String</text><line style="stroke:#181818;stroke-width:0.5;" x1="955.8596" x2="1187.8596" y1="1212.1563" y2="1212.1563"/><text fill="#000000" font-family="sans-serif" font-size="14" lengthAdjust="spacing" textLength="134" x="960.8596" y="1229.1514">-Value(String title)</text><text fill="#000000" font-family="sans-serif" font-size="14" lengthAdjust="spacing" textLength="132" x="960.8596" y="1245.4482">+getTitle(): String</text><text fill="#000000" font-family="sans-serif" font-size="14" lengthAdjust="spacing" textLength="222" x="960.8596" y="1261.7451">+greater(Value value): boolean</text><text fill="#000000" font-family="sans-serif" font-size="14" lengthAdjust="spacing" textLength="181" x="960.8596" y="1278.042">+next(int amount): Value</text><text fill="#000000" font-family="sans-serif" font-size="14" lengthAdjust="spacing" textLength="97" x="960.8596" y="1294.3389">-next(): Value</text></g><!--class Gamble--><g id="elem_Gamble"><rect codeLine="80" fill="#FFFFFF" height="145.7813" id="Gamble" rx="2.5" ry="2.5" style="stroke:#181818;stroke-width:0.5;" width="477" x="248.3596" y="393.5"/><ellipse cx="454.6096" cy="409.5" fill="#ADD1B2" rx="11" ry="11" style="stroke:#181818;stroke-width:1.0;"/><path d="M456.9534,405.1719 C456.0159,404.7344 455.4221,404.5938 454.5471,404.5938 C451.9221,404.5938 449.9221,406.6719 449.9221,409.3906 L449.9221,410.5156 C449.9221,413.0938 452.0315,414.9844 454.9221,414.9844 C456.1409,414.9844 457.2971,414.6875 458.0471,414.1406 C458.6252,413.7344 458.9534,413.2813 458.9534,412.8906 C458.9534,412.4375 458.5627,412.0469 458.094,412.0469 C457.8752,412.0469 457.6721,412.125 457.4846,412.3125 C457.0315,412.7969 457.0315,412.7969 456.844,412.8906 C456.4221,413.1563 455.7346,413.2813 454.969,413.2813 C452.9221,413.2813 451.6252,412.1875 451.6252,410.4844 L451.6252,409.3906 C451.6252,407.6094 452.8752,406.2969 454.6096,406.2969 C455.1877,406.2969 455.7971,406.4531 456.2659,406.7031 C456.7502,406.9844 456.9221,407.2031 457.0159,407.6094 C457.0784,408.0156 457.1096,408.1406 457.2502,408.2656 C457.3909,408.4063 457.6252,408.5156 457.844,408.5156 C458.1096,408.5156 458.3752,408.375 458.5471,408.1563 C458.6565,408 458.6877,407.8125 458.6877,407.3906 L458.6877,405.9688 C458.6877,405.5313 458.6721,405.4063 458.5784,405.25 C458.4221,404.9844 458.1409,404.8438 457.844,404.8438 C457.5471,404.8438 457.344,404.9375 457.1252,405.25 L456.9534,405.1719 Z " fill="#000000"/><text fill="#000000" font-family="sans-serif" font-size="14" lengthAdjust="spacing" textLength="56" x="475.1096" y="414.3467">Gamble</text><line style="stroke:#181818;stroke-width:0.5;" x1="249.3596" x2="724.3596" y1="425.5" y2="425.5"/><text fill="#000000" font-family="sans-serif" font-size="14" lengthAdjust="spacing" textLength="203" x="254.3596" y="442.4951">#gambleType: GambleType</text><text fill="#000000" font-family="sans-serif" font-size="14" lengthAdjust="spacing" textLength="205" x="254.3596" y="458.792">-orderedValues: List&lt;Value&gt;</text><line style="stroke:#181818;stroke-width:0.5;" x1="249.3596" x2="724.3596" y1="466.0938" y2="466.0938"/><text fill="#000000" font-family="sans-serif" font-size="14" lengthAdjust="spacing" textLength="465" x="254.3596" y="483.0889">+Gamble(GambleType gambleType, List&lt;Value&gt; orderedValues)</text><text fill="#000000" font-family="sans-serif" font-size="14" lengthAdjust="spacing" textLength="291" x="254.3596" y="499.3857">+whoIsWinner(Gamble gamble): Gamble</text><text fill="#000000" font-family="sans-serif" font-size="14" lengthAdjust="spacing" textLength="452" x="254.3596" y="515.6826">-whoIsWinnerWithSameGambleType(Gamble gamble): Gamble</text><text fill="#000000" font-family="sans-serif" font-size="14" lengthAdjust="spacing" textLength="134" x="254.3596" y="531.9795">+toString(): String</text></g><!--class PlayerStatistics--><g id="elem_PlayerStatistics"><rect codeLine="89" fill="#FFFFFF" height="227.2656" id="PlayerStatistics" rx="2.5" ry="2.5" style="stroke:#181818;stroke-width:0.5;" width="338" x="902.8596" y="353"/><ellipse cx="1011.6096" cy="369" fill="#ADD1B2" rx="11" ry="11" style="stroke:#181818;stroke-width:1.0;"/><path d="M1013.9534,364.6719 C1013.0159,364.2344 1012.4221,364.0938 1011.5471,364.0938 C1008.9221,364.0938 1006.9221,366.1719 1006.9221,368.8906 L1006.9221,370.0156 C1006.9221,372.5938 1009.0315,374.4844 1011.9221,374.4844 C1013.1409,374.4844 1014.2971,374.1875 1015.0471,373.6406 C1015.6252,373.2344 1015.9534,372.7813 1015.9534,372.3906 C1015.9534,371.9375 1015.5627,371.5469 1015.094,371.5469 C1014.8752,371.5469 1014.6721,371.625 1014.4846,371.8125 C1014.0315,372.2969 1014.0315,372.2969 1013.844,372.3906 C1013.4221,372.6563 1012.7346,372.7813 1011.969,372.7813 C1009.9221,372.7813 1008.6252,371.6875 1008.6252,369.9844 L1008.6252,368.8906 C1008.6252,367.1094 1009.8752,365.7969 1011.6096,365.7969 C1012.1877,365.7969 1012.7971,365.9531 1013.2659,366.2031 C1013.7502,366.4844 1013.9221,366.7031 1014.0159,367.1094 C1014.0784,367.5156 1014.1096,367.6406 1014.2502,367.7656 C1014.3909,367.9063 1014.6252,368.0156 1014.844,368.0156 C1015.1096,368.0156 1015.3752,367.875 1015.5471,367.6563 C1015.6565,367.5 1015.6877,367.3125 1015.6877,366.8906 L1015.6877,365.4688 C1015.6877,365.0313 1015.6721,364.9063 1015.5784,364.75 C1015.4221,364.4844 1015.1409,364.3438 1014.844,364.3438 C1014.5471,364.3438 1014.344,364.4375 1014.1252,364.75 L1013.9534,364.6719 Z " fill="#000000"/><text fill="#000000" font-family="sans-serif" font-size="14" lengthAdjust="spacing" textLength="112" x="1032.1096" y="373.8467">PlayerStatistics</text><line style="stroke:#181818;stroke-width:0.5;" x1="903.8596" x2="1239.8596" y1="385" y2="385"/><text fill="#000000" font-family="sans-serif" font-size="14" lengthAdjust="spacing" textLength="124" x="908.8596" y="401.9951">-valuesCont: int[]</text><text fill="#000000" font-family="sans-serif" font-size="14" lengthAdjust="spacing" textLength="122" x="908.8596" y="418.292">-suitesCont: int[]</text><line style="stroke:#181818;stroke-width:0.5;" x1="903.8596" x2="1239.8596" y1="425.5938" y2="425.5938"/><text fill="#000000" font-family="sans-serif" font-size="14" lengthAdjust="spacing" textLength="275" x="908.8596" y="442.5889">+PlayerStatistics(List&lt;Card&gt; cardList)</text><text fill="#000000" font-family="sans-serif" font-size="14" lengthAdjust="spacing" textLength="161" x="908.8596" y="458.8857">+getMaxValue(): Value</text><text fill="#000000" font-family="sans-serif" font-size="14" lengthAdjust="spacing" textLength="270" x="908.8596" y="475.1826">+hasSameValue(int amount): boolean</text><text fill="#000000" font-family="sans-serif" font-size="14" lengthAdjust="spacing" textLength="269" x="908.8596" y="491.4795">+hasSameColor(int amount): boolean</text><text fill="#000000" font-family="sans-serif" font-size="14" lengthAdjust="spacing" textLength="175" x="908.8596" y="507.7764">+hasTwoPairs(): boolean</text><text fill="#000000" font-family="sans-serif" font-size="14" lengthAdjust="spacing" textLength="326" x="908.8596" y="524.0732">+getOrderedValues(int amount): List&lt;Value&gt;</text><text fill="#000000" font-family="sans-serif" font-size="14" lengthAdjust="spacing" textLength="247" x="908.8596" y="540.3701">+getOrderedValues(): List&lt;Value&gt;</text><text fill="#000000" font-family="sans-serif" font-size="14" lengthAdjust="spacing" textLength="263" x="908.8596" y="556.667">+hasStairStart(Value value): boolean</text><text fill="#000000" font-family="sans-serif" font-size="14" lengthAdjust="spacing" textLength="146" x="908.8596" y="572.9639">+hasStair(): boolean</text></g><!--reverse link Deck to Card--><g id="link_Deck_Card"><path codeLine="115" d="M1438.7617,527.2506 C1443.1917,572.0016 1448.6996,627.788 1453.9396,680.808 " fill="none" id="Deck-backto-Card" style="stroke:#181818;stroke-width:1.0;"/><polygon fill="#181818" points="1437.5796,515.309,1434.1901,521.6739,1438.7617,527.2506,1442.1512,520.8858,1437.5796,515.309" style="stroke:#181818;stroke-width:1.0;"/><text fill="#000000" font-family="sans-serif" font-size="13" lengthAdjust="spacing" textLength="7" x="1445.9225" y="669.9782">*</text></g><!--reverse link Player to Card--><g id="link_Player_Card"><path codeLine="117" d="M1075.8085,106.989 C1197.3285,123.639 1353.3096,150.41 1409.8596,186 C1565.4596,283.92 1571.3096,399.603 1535.8596,580 C1529.1496,614.144 1515.9496,649.963 1502.5296,680.641 " fill="none" id="Player-backto-Card" style="stroke:#181818;stroke-width:1.0;"/><polygon fill="#181818" points="1063.9196,105.36,1069.3211,110.1375,1075.8085,106.989,1070.407,102.2115,1063.9196,105.36" style="stroke:#181818;stroke-width:1.0;"/><text fill="#000000" font-family="sans-serif" font-size="13" lengthAdjust="spacing" textLength="7" x="1498.8401" y="669.7963">*</text></g><!--reverse link Player to Gamble--><g id="link_Player_Gamble"><path codeLine="118" d="M781.585,94.6122 C546.273,104.8622 93.8709,131.32 44.8592,186 C6,229.36 10.8722,269.73 44.8592,317 C92.3506,383.056 170.6736,420.134 248.3016,440.806 " fill="none" id="Player-backto-Gamble" style="stroke:#181818;stroke-width:1.0;"/><polygon fill="#181818" points="793.5736,94.09,787.4052,90.3549,781.585,94.6122,787.7534,98.3473,793.5736,94.09" style="stroke:#181818;stroke-width:1.0;"/></g><!--reverse link Player to PlayerStatistics--><g id="link_Player_PlayerStatistics"><path codeLine="119" d="M1075.9164,101.6431 C1191.3864,114.4531 1332.7896,138.67 1370.8596,186 C1407.3496,231.37 1401.5396,267.51 1370.8596,317 C1362.3096,330.793 1304.0096,360.941 1241.1296,390.494 " fill="none" id="Player-backto-PlayerStatistics" style="stroke:#181818;stroke-width:1.0;"/><polygon fill="#181818" points="1063.9896,100.32,1069.512,104.9572,1075.9164,101.6431,1070.3941,97.006,1063.9896,100.32" style="stroke:#181818;stroke-width:1.0;"/></g><!--reverse link Player to CartaAltaAnalyzer--><g id="link_Player_CartaAltaAnalyzer"><path codeLine="120" d="M815.6641,176.585 C788.3001,197.765 769.8686,212.02 748.1346,228.84 " fill="none" id="Player-backto-CartaAltaAnalyzer" style="stroke:#181818;stroke-width:1.0;"/><polygon fill="#181818" points="825.1536,169.24,817.9605,169.7493,815.6641,176.585,822.8572,176.0757,825.1536,169.24" style="stroke:#181818;stroke-width:1.0;"/></g><!--reverse link Player to DobleParejaAnalyzer--><g id="link_Player_DobleParejaAnalyzer"><path codeLine="121" d="M1042.5354,176.5639 C1070.0254,197.7439 1088.5696,212.02 1110.3996,228.84 " fill="none" id="Player-backto-DobleParejaAnalyzer" style="stroke:#181818;stroke-width:1.0;"/><polygon fill="#181818" points="1033.0296,169.24,1035.3412,176.0705,1042.5354,176.5639,1040.2238,169.7333,1033.0296,169.24" style="stroke:#181818;stroke-width:1.0;"/></g><!--reverse link Player to ParejaAnalyzer--><g id="link_Player_ParejaAnalyzer"><path codeLine="122" d="M781.9223,117.032 C693.7063,134.742 588.1256,157.77 485.8596,186 C440.7136,198.46 391.2116,214.78 350.5226,228.93 " fill="none" id="Player-backto-ParejaAnalyzer" style="stroke:#181818;stroke-width:1.0;"/><polygon fill="#181818" points="793.6876,114.67,787.0177,111.9292,781.9223,117.032,788.5923,119.7727,793.6876,114.67" style="stroke:#181818;stroke-width:1.0;"/></g><!--link PlayerStatistics to Card--><g id="link_PlayerStatistics_Card"><path codeLine="124" d="M1221.5296,580.135 C1266.2096,613.76 1309.4555,646.3062 1350.7555,677.3862 " fill="none" id="PlayerStatistics-to-Card" style="stroke:#181818;stroke-width:1.0;"/><polygon fill="#181818" points="1355.5496,680.994,1350.7636,672.3862,1351.5545,677.9875,1345.9532,678.7784,1355.5496,680.994" style="stroke:#181818;stroke-width:1.0;"/><text fill="#000000" font-family="sans-serif" font-size="13" lengthAdjust="spacing" textLength="7" x="1338.4265" y="669.9043">*</text></g><!--reverse link PlayerStatistics to Value--><g id="link_PlayerStatistics_Value"><path codeLine="125" d="M1071.8596,592.013 C1071.8596,691.974 1071.8596,827.796 1071.8596,943.822 " fill="none" id="PlayerStatistics-backto-Value" style="stroke:#181818;stroke-width:1.0;"/><polygon fill="#181818" points="1071.8596,580.013,1067.8596,586.013,1071.8596,592.013,1075.8596,586.013,1071.8596,580.013" style="stroke:#181818;stroke-width:1.0;"/><text fill="#000000" font-family="sans-serif" font-size="13" lengthAdjust="spacing" textLength="7" x="1064.7119" y="933.0238">*</text></g><!--link Gamble to GambleType--><g id="link_Gamble_GambleType"><path codeLine="127" d="M554.4836,539.674 C582.7916,569.886 612.3792,601.4636 644.2862,635.5176 " fill="none" id="Gamble-to-GambleType" style="stroke:#181818;stroke-width:1.0;"/><polygon fill="#181818" points="648.3886,639.896,645.154,630.5935,644.97,636.2473,639.3161,636.0633,648.3886,639.896" style="stroke:#181818;stroke-width:1.0;"/></g><!--link Gamble to Value--><g id="link_Gamble_Value"><path codeLine="128" d="M483.4786,539.534 C483.0346,629.501 495.1856,783.762 573.8596,884 C668.6686,1004.795 834.1166,1066.0989 948.9576,1096.1959 " fill="none" id="Gamble-to-Value" style="stroke:#181818;stroke-width:1.0;"/><polygon fill="#181818" points="954.7616,1097.717,947.0697,1091.566,949.9249,1096.4494,945.0416,1099.3047,954.7616,1097.717" style="stroke:#181818;stroke-width:1.0;"/><text fill="#000000" font-family="sans-serif" font-size="13" lengthAdjust="spacing" textLength="7" x="940.0358" y="1108.6604">*</text></g><!--link Card to Value--><g id="link_Card_Value"><path codeLine="130" d="M1374.8196,843.12 C1320.0396,893.543 1253.084,955.1794 1193.374,1010.1444 " fill="none" id="Card-to-Value" style="stroke:#181818;stroke-width:1.0;"/><polygon fill="#181818" points="1188.9596,1014.208,1198.2903,1011.0555,1192.6383,1010.8217,1192.8721,1005.1696,1188.9596,1014.208" style="stroke:#181818;stroke-width:1.0;"/></g><!--link Card to Suite--><g id="link_Card_Suite"><path codeLine="131" d="M1461.8596,843.12 C1461.8596,896.952 1461.8596,962.199 1461.8596,1019.204 " fill="none" id="Card-to-Suite" style="stroke:#181818;stroke-width:1.0;"/><polygon fill="#181818" points="1461.8596,1025.204,1465.8596,1016.204,1461.8596,1020.204,1457.8596,1016.204,1461.8596,1025.204" style="stroke:#181818;stroke-width:1.0;"/></g><!--link CartaAltaAnalyzer to PlayerStatistics--><g id="link_CartaAltaAnalyzer_PlayerStatistics"><path codeLine="134" d="M763.5396,293.13 C800.9806,314.061 847.2585,339.9331 897.4635,368.0011 " fill="none" id="CartaAltaAnalyzer-to-PlayerStatistics" style="stroke:#181818;stroke-width:1.0;"/><polygon fill="#181818" points="902.7006,370.929,896.7969,363.0457,898.3363,368.4891,892.893,370.0286,902.7006,370.929" style="stroke:#181818;stroke-width:1.0;"/></g><!--reverse link CartaAltaAnalyzer to Gamble--><g id="link_CartaAltaAnalyzer_Gamble"><path codeLine="135" d="M664.9851,301.4787 C636.1681,328.0147 602.5726,358.949 565.4196,393.16 " fill="none" id="CartaAltaAnalyzer-backto-Gamble" style="stroke:#181818;stroke-width:1.0;"/><polygon fill="#181818" points="673.8126,293.35,666.6893,294.4719,664.9851,301.4787,672.1084,300.3568,673.8126,293.35" style="stroke:#181818;stroke-width:1.0;"/></g><!--link CartaAltaAnalyzer to GambleType--><g id="link_CartaAltaAnalyzer_GambleType"><path codeLine="136" d="M722.7406,293.25 C730.2016,310.466 738.5486,332.458 742.8596,353 C762.7746,447.902 766.8751,551.8371 766.3361,633.6641 " fill="none" id="CartaAltaAnalyzer-to-GambleType" style="stroke:#181818;stroke-width:1.0;"/><polygon fill="#181818" points="766.2966,639.664,770.3558,630.6905,766.3295,634.6641,762.356,630.6378,766.2966,639.664" style="stroke:#181818;stroke-width:1.0;"/></g><!--link DobleParejaAnalyzer to PlayerStatistics--><g id="link_DobleParejaAnalyzer_PlayerStatistics"><path codeLine="138" d="M1138.6896,293.35 C1132.3296,309.74 1126.2802,325.3154 1117.8002,347.1684 " fill="none" id="DobleParejaAnalyzer-to-PlayerStatistics" style="stroke:#181818;stroke-width:1.0;"/><polygon fill="#181818" points="1115.6296,352.762,1122.6146,345.8186,1117.4384,348.1007,1115.1564,342.9245,1115.6296,352.762" style="stroke:#181818;stroke-width:1.0;"/></g><!--reverse link DobleParejaAnalyzer to Gamble--><g id="link_DobleParejaAnalyzer_Gamble"><path codeLine="139" d="M1021.9484,296.2427 C959.4684,313.1977 893.0306,331.844 823.8596,353 C782.7176,365.583 738.9786,379.66 697.1106,393.484 " fill="none" id="DobleParejaAnalyzer-backto-Gamble" style="stroke:#181818;stroke-width:1.0;"/><polygon fill="#181818" points="1033.5296,293.1,1026.6914,290.811,1021.9484,296.2427,1028.7866,298.5318,1033.5296,293.1" style="stroke:#181818;stroke-width:1.0;"/></g><!--link DobleParejaAnalyzer to GambleType--><g id="link_DobleParejaAnalyzer_GambleType"><path codeLine="140" d="M982.2116,293.05 C946.2936,306.434 911.2786,325.589 884.8596,353 C845.0696,394.282 809.646,529.2809 786.883,634.0039 " fill="none" id="DobleParejaAnalyzer-to-GambleType" style="stroke:#181818;stroke-width:1.0;"/><polygon fill="#181818" points="785.6086,639.867,791.429,631.922,786.6706,634.9811,783.6115,630.2227,785.6086,639.867" style="stroke:#181818;stroke-width:1.0;"/></g><!--link DobleParejaAnalyzer to Value--><g id="link_DobleParejaAnalyzer_Value"><path codeLine="141" d="M1204.3096,293.07 C1225.0696,308.242 1246.5496,328.54 1257.8596,353 C1300.1896,444.577 1274.4596,480.486 1257.8596,580 C1236.9896,705.113 1192.9778,834.4661 1151.8378,938.4021 " fill="none" id="DobleParejaAnalyzer-to-Value" style="stroke:#181818;stroke-width:1.0;"/><polygon fill="#181818" points="1149.6296,943.981,1156.6612,937.0849,1151.4698,939.3319,1149.2227,934.1406,1149.6296,943.981" style="stroke:#181818;stroke-width:1.0;"/><text fill="#000000" font-family="sans-serif" font-size="13" lengthAdjust="spacing" textLength="7" x="1145.7629" y="933.1895">*</text></g><!--link ParejaAnalyzer to PlayerStatistics--><g id="link_ParejaAnalyzer_PlayerStatistics"><path codeLine="143" d="M379.9096,293.06 C413.8676,301.56 451.2166,310.282 485.8596,317 C599.0876,338.957 630.6736,326.22 742.8596,353 C795.5566,365.579 846.0706,381.2064 896.8206,398.7434 " fill="none" id="ParejaAnalyzer-to-PlayerStatistics" style="stroke:#181818;stroke-width:1.0;"/><polygon fill="#181818" points="902.4916,400.703,895.2916,393.9829,897.7658,399.07,892.6787,401.5442,902.4916,400.703" style="stroke:#181818;stroke-width:1.0;"/></g><!--reverse link ParejaAnalyzer to Gamble--><g id="link_ParejaAnalyzer_Gamble"><path codeLine="144" d="M307.9063,301.4589 C336.8533,327.9949 370.6226,358.949 407.9436,393.16 " fill="none" id="ParejaAnalyzer-backto-Gamble" style="stroke:#181818;stroke-width:1.0;"/><polygon fill="#181818" points="299.0606,293.35,300.7805,300.353,307.9063,301.4589,306.1864,294.4559,299.0606,293.35" style="stroke:#181818;stroke-width:1.0;"/></g><!--link ParejaAnalyzer to GambleType--><g id="link_ParejaAnalyzer_GambleType"><path codeLine="145" d="M249.0336,293.03 C220.2896,354.241 168.0116,492.179 230.8596,580 C312.2676,693.757 463.5177,736.0683 585.8417,751.9743 " fill="none" id="ParejaAnalyzer-to-GambleType" style="stroke:#181818;stroke-width:1.0;"/><polygon fill="#181818" points="591.7916,752.748,583.3825,747.6209,586.8333,752.1033,582.351,755.5541,591.7916,752.748" style="stroke:#181818;stroke-width:1.0;"/></g><!--link ParejaAnalyzer to Value--><g id="link_ParejaAnalyzer_Value"><path codeLine="146" d="M231.9116,293.33 C217.2356,309.559 201.5496,330.64 193.8596,353 C161.0446,448.403 156.5946,486.245 193.8596,580 C262.4906,752.671 327.3456,779.314 480.8596,884 C630.2746,985.891 824.1452,1053.0311 948.9022,1089.4631 " fill="none" id="ParejaAnalyzer-to-Value" style="stroke:#181818;stroke-width:1.0;"/><polygon fill="#181818" points="954.6616,1091.145,947.1437,1084.7825,949.8621,1089.7434,944.9012,1092.4618,954.6616,1091.145" style="stroke:#181818;stroke-width:1.0;"/><text fill="#000000" font-family="sans-serif" font-size="13" lengthAdjust="spacing" textLength="7" x="939.9294" y="1085.7065">*</text></g><!--SRC=[jLNRRfj047tVhrYrBquSf3vRLQGD9YqLCIxWH4rLHHkyicamkCkwkId_tjaBi1YSzA6D5CFCd9avEvUbkikABULqWzsSLjKPJUzMlDmLIxVCIuxlrvbWg6f0gGGH8NXsknFCJyiYpfuO_e2gTNcFquodEKD8eV2KfNVu6Rt7AUNB8Al41ClVZow8fsYixACZU5an8NMZemcMJ_HIHv0IH71mjGCQ4npB1uY_QRu3yL8-m5yvAvi6dcYBXga4d571-4Z5asmWqsrPvemMEht2o_nrID2fW5AdiuwnA6CuTx5IElKccR9Yjy6VwEOsPydZbW5TbqG9kI51Gj2SHDuNWgRXMU3T6269_11viKi2BoB83OCmGkUB843pyEl2YnhJZJOrOkIH05YmNpkQLoChuwfvxHxB7FejP5FjUKuV6LVr7koOO_mdvhYGGxke9jBbqgelAExNfLzTPKK101DwgnwGMyl3DNLayNK6gJMvwahhDaEHmuXSXpClHbEVN91P0czptoKnrDSx2mCG7Imo8UasWNLBjQYDHw0js8Em-mpf4scpE8qrA2i4fXlO3j70QrvgS9wXquf0ZDm5IQ8GkVxC3L7i-J6AVI_nKEX-3j5iuLrwGDoxHlxiN997aUVF2Fn-GsI8kHxGBlC3JEk-spjWpqN_97hesq9ekPaBtG6roUq0JQoP1zUIBnbdI-LPcQbHWbnqqyp1GJoniTqm-qDaU6ZVTZ8S6tILYNLCDwpDTSZjq3xRkn0BAe1TbbPgArGjAxSiO2-WWDz_r3TJHpVkEO_Q9MesoxJlWZxqxfurhUGHjBxJgBQ91gCkwLSmoNqvfnclHliNNcWNkXkWsxiUjeUGL0GaWHyk3avTZHfrRvujV6_eYc5QqFpnYN5PQ0n_pVqlACdXtvYDTMnT4RrERVSKRSkbwuiLVauv-_cVOazBqFxx150ozLazTfOEVdVyJdymaRbVkzf6oPqwY8tRpzqnzYhViGuShXkwQqAzOmBeT9-ePMxEeLS2cHLMNjQrOwijjFeAAQLMjBA-iXLYRwwKkLUHFaunCyKy4CKYY8QcO3ZL4D9ETZ2IbUuWnYhENv5vXSSR55xD_WS0]--></g></svg>